%TF.GenerationSoftware,KiCad,Pcbnew,8.0.1-rc1*%
%TF.CreationDate,2024-04-23T13:15:56-05:00*%
%TF.ProjectId,ergomax_left,6572676f-6d61-4785-9f6c-6566742e6b69,rev?*%
%TF.SameCoordinates,Original*%
%TF.FileFunction,Copper,L2,Bot*%
%TF.FilePolarity,Positive*%
%FSLAX46Y46*%
G04 Gerber Fmt 4.6, Leading zero omitted, Abs format (unit mm)*
G04 Created by KiCad (PCBNEW 8.0.1-rc1) date 2024-04-23 13:15:56*
%MOMM*%
%LPD*%
G01*
G04 APERTURE LIST*
G04 Aperture macros list*
%AMRoundRect*
0 Rectangle with rounded corners*
0 $1 Rounding radius*
0 $2 $3 $4 $5 $6 $7 $8 $9 X,Y pos of 4 corners*
0 Add a 4 corners polygon primitive as box body*
4,1,4,$2,$3,$4,$5,$6,$7,$8,$9,$2,$3,0*
0 Add four circle primitives for the rounded corners*
1,1,$1+$1,$2,$3*
1,1,$1+$1,$4,$5*
1,1,$1+$1,$6,$7*
1,1,$1+$1,$8,$9*
0 Add four rect primitives between the rounded corners*
20,1,$1+$1,$2,$3,$4,$5,0*
20,1,$1+$1,$4,$5,$6,$7,0*
20,1,$1+$1,$6,$7,$8,$9,0*
20,1,$1+$1,$8,$9,$2,$3,0*%
%AMRotRect*
0 Rectangle, with rotation*
0 The origin of the aperture is its center*
0 $1 length*
0 $2 width*
0 $3 Rotation angle, in degrees counterclockwise*
0 Add horizontal line*
21,1,$1,$2,0,0,$3*%
G04 Aperture macros list end*
%TA.AperFunction,ComponentPad*%
%ADD10C,1.400000*%
%TD*%
%TA.AperFunction,ComponentPad*%
%ADD11C,2.000000*%
%TD*%
%TA.AperFunction,ComponentPad*%
%ADD12R,2.000000X2.000000*%
%TD*%
%TA.AperFunction,ComponentPad*%
%ADD13R,3.200000X2.000000*%
%TD*%
%TA.AperFunction,ComponentPad*%
%ADD14R,1.350000X1.350000*%
%TD*%
%TA.AperFunction,ComponentPad*%
%ADD15O,1.350000X1.350000*%
%TD*%
%TA.AperFunction,ComponentPad*%
%ADD16R,1.800000X1.800000*%
%TD*%
%TA.AperFunction,ComponentPad*%
%ADD17C,1.800000*%
%TD*%
%TA.AperFunction,SMDPad,CuDef*%
%ADD18RoundRect,0.260000X1.065000X1.040000X-1.065000X1.040000X-1.065000X-1.040000X1.065000X-1.040000X0*%
%TD*%
%TA.AperFunction,SMDPad,CuDef*%
%ADD19R,1.200000X2.600000*%
%TD*%
%TA.AperFunction,ComponentPad*%
%ADD20C,3.300000*%
%TD*%
%TA.AperFunction,SMDPad,CuDef*%
%ADD21RoundRect,0.135000X-0.185000X0.135000X-0.185000X-0.135000X0.185000X-0.135000X0.185000X0.135000X0*%
%TD*%
%TA.AperFunction,SMDPad,CuDef*%
%ADD22RoundRect,0.225000X0.375000X-0.225000X0.375000X0.225000X-0.375000X0.225000X-0.375000X-0.225000X0*%
%TD*%
%TA.AperFunction,SMDPad,CuDef*%
%ADD23R,0.600000X1.450000*%
%TD*%
%TA.AperFunction,SMDPad,CuDef*%
%ADD24R,0.300000X1.450000*%
%TD*%
%TA.AperFunction,ComponentPad*%
%ADD25O,1.000000X2.100000*%
%TD*%
%TA.AperFunction,ComponentPad*%
%ADD26O,1.000000X1.600000*%
%TD*%
%TA.AperFunction,SMDPad,CuDef*%
%ADD27RoundRect,0.135000X0.135000X0.185000X-0.135000X0.185000X-0.135000X-0.185000X0.135000X-0.185000X0*%
%TD*%
%TA.AperFunction,SMDPad,CuDef*%
%ADD28RoundRect,0.050000X0.387500X0.050000X-0.387500X0.050000X-0.387500X-0.050000X0.387500X-0.050000X0*%
%TD*%
%TA.AperFunction,SMDPad,CuDef*%
%ADD29RoundRect,0.050000X0.050000X0.387500X-0.050000X0.387500X-0.050000X-0.387500X0.050000X-0.387500X0*%
%TD*%
%TA.AperFunction,HeatsinkPad*%
%ADD30R,3.200000X3.200000*%
%TD*%
%TA.AperFunction,SMDPad,CuDef*%
%ADD31RoundRect,0.260000X-1.297883X-0.728921X0.759539X-1.280205X1.297883X0.728921X-0.759539X1.280205X0*%
%TD*%
%TA.AperFunction,SMDPad,CuDef*%
%ADD32RotRect,1.200000X2.600000X165.000000*%
%TD*%
%TA.AperFunction,SMDPad,CuDef*%
%ADD33RotRect,1.200000X2.600000X345.000000*%
%TD*%
%TA.AperFunction,SMDPad,CuDef*%
%ADD34RoundRect,0.140000X-0.170000X0.140000X-0.170000X-0.140000X0.170000X-0.140000X0.170000X0.140000X0*%
%TD*%
%TA.AperFunction,SMDPad,CuDef*%
%ADD35R,1.000000X1.700000*%
%TD*%
%TA.AperFunction,SMDPad,CuDef*%
%ADD36RotRect,1.200000X2.600000X355.000000*%
%TD*%
%TA.AperFunction,SMDPad,CuDef*%
%ADD37RoundRect,0.260000X-1.151589X-0.943222X0.970305X-1.128863X1.151589X0.943222X-0.970305X1.128863X0*%
%TD*%
%TA.AperFunction,SMDPad,CuDef*%
%ADD38RotRect,1.200000X2.600000X175.000000*%
%TD*%
%TA.AperFunction,SMDPad,CuDef*%
%ADD39RoundRect,0.135000X-0.135000X-0.185000X0.135000X-0.185000X0.135000X0.185000X-0.135000X0.185000X0*%
%TD*%
%TA.AperFunction,SMDPad,CuDef*%
%ADD40RoundRect,0.140000X0.170000X-0.140000X0.170000X0.140000X-0.170000X0.140000X-0.170000X-0.140000X0*%
%TD*%
%TA.AperFunction,SMDPad,CuDef*%
%ADD41RoundRect,0.140000X0.140000X0.170000X-0.140000X0.170000X-0.140000X-0.170000X0.140000X-0.170000X0*%
%TD*%
%TA.AperFunction,SMDPad,CuDef*%
%ADD42RoundRect,0.140000X0.021213X-0.219203X0.219203X-0.021213X-0.021213X0.219203X-0.219203X0.021213X0*%
%TD*%
%TA.AperFunction,SMDPad,CuDef*%
%ADD43RoundRect,0.250000X-0.625000X0.375000X-0.625000X-0.375000X0.625000X-0.375000X0.625000X0.375000X0*%
%TD*%
%TA.AperFunction,SMDPad,CuDef*%
%ADD44RoundRect,0.135000X0.185000X-0.135000X0.185000X0.135000X-0.185000X0.135000X-0.185000X-0.135000X0*%
%TD*%
%TA.AperFunction,SMDPad,CuDef*%
%ADD45RoundRect,0.140000X0.219203X0.021213X0.021213X0.219203X-0.219203X-0.021213X-0.021213X-0.219203X0*%
%TD*%
%TA.AperFunction,SMDPad,CuDef*%
%ADD46RoundRect,0.225000X-0.225000X-0.375000X0.225000X-0.375000X0.225000X0.375000X-0.225000X0.375000X0*%
%TD*%
%TA.AperFunction,SMDPad,CuDef*%
%ADD47RoundRect,0.135000X0.035355X-0.226274X0.226274X-0.035355X-0.035355X0.226274X-0.226274X0.035355X0*%
%TD*%
%TA.AperFunction,SMDPad,CuDef*%
%ADD48RoundRect,0.140000X-0.021213X0.219203X-0.219203X0.021213X0.021213X-0.219203X0.219203X-0.021213X0*%
%TD*%
%TA.AperFunction,SMDPad,CuDef*%
%ADD49RoundRect,0.150000X0.475000X0.150000X-0.475000X0.150000X-0.475000X-0.150000X0.475000X-0.150000X0*%
%TD*%
%TA.AperFunction,SMDPad,CuDef*%
%ADD50RoundRect,0.225000X-0.303988X0.314390X-0.420456X-0.120276X0.303988X-0.314390X0.420456X0.120276X0*%
%TD*%
%TA.AperFunction,SMDPad,CuDef*%
%ADD51RoundRect,0.150000X0.512500X0.150000X-0.512500X0.150000X-0.512500X-0.150000X0.512500X-0.150000X0*%
%TD*%
%TA.AperFunction,SMDPad,CuDef*%
%ADD52RoundRect,0.225000X0.250000X-0.225000X0.250000X0.225000X-0.250000X0.225000X-0.250000X-0.225000X0*%
%TD*%
%TA.AperFunction,SMDPad,CuDef*%
%ADD53RotRect,1.400000X1.200000X45.000000*%
%TD*%
%TA.AperFunction,SMDPad,CuDef*%
%ADD54RoundRect,0.140000X-0.140000X-0.170000X0.140000X-0.170000X0.140000X0.170000X-0.140000X0.170000X0*%
%TD*%
%TA.AperFunction,SMDPad,CuDef*%
%ADD55RoundRect,0.150000X0.650000X0.150000X-0.650000X0.150000X-0.650000X-0.150000X0.650000X-0.150000X0*%
%TD*%
%TA.AperFunction,SMDPad,CuDef*%
%ADD56RoundRect,0.225000X0.275430X-0.339688X0.429339X0.083173X-0.275430X0.339688X-0.429339X-0.083173X0*%
%TD*%
%TA.AperFunction,ViaPad*%
%ADD57C,0.800000*%
%TD*%
%TA.AperFunction,Conductor*%
%ADD58C,0.200000*%
%TD*%
%TA.AperFunction,Conductor*%
%ADD59C,0.250000*%
%TD*%
%TA.AperFunction,Conductor*%
%ADD60C,0.300000*%
%TD*%
G04 APERTURE END LIST*
D10*
%TO.P,XC4,1,Pin_1*%
%TO.N,C4*%
X99500000Y-35500000D03*
%TD*%
%TO.P,XC8,1,Pin_1*%
%TO.N,C8*%
X177000000Y-40000000D03*
%TD*%
%TO.P,XR8,1,Pin_1*%
%TO.N,R1*%
X190500000Y-40000000D03*
%TD*%
%TO.P,XC9,1,Pin_1*%
%TO.N,C8*%
X188500000Y-135250000D03*
%TD*%
%TO.P,XR2,1,Pin_1*%
%TO.N,R1*%
X62500000Y-42500000D03*
%TD*%
%TO.P,XC3,1,Pin_1*%
%TO.N,C3*%
X89500000Y-38000000D03*
%TD*%
%TO.P,XC5,1,Pin_1*%
%TO.N,C5*%
X119000000Y-38000000D03*
%TD*%
%TO.P,XR4,1,Pin_1*%
%TO.N,R1*%
X112500000Y-35500000D03*
%TD*%
%TO.P,XR3,1,Pin_1*%
%TO.N,R1*%
X94500000Y-38000000D03*
%TD*%
%TO.P,XR7,1,Pin_1*%
%TO.N,R1*%
X170500000Y-40000000D03*
%TD*%
%TO.P,XC1,1,Pin_1*%
%TO.N,C1*%
X43000000Y-42446388D03*
%TD*%
%TO.P,XC2,1,Pin_1*%
%TO.N,C2*%
X57000000Y-42500000D03*
%TD*%
%TO.P,XC7,1,Pin_1*%
%TO.N,C7*%
X157500000Y-40000000D03*
%TD*%
D11*
%TO.P,RE1,A,A*%
%TO.N,en_A*%
X191649997Y-87000011D03*
D12*
%TO.P,RE1,B,B*%
%TO.N,en_B*%
X191649997Y-92000014D03*
D11*
%TO.P,RE1,C,C*%
%TO.N,GND*%
X191649997Y-89500018D03*
D13*
%TO.P,RE1,MP*%
%TO.N,N/C*%
X184149997Y-95100014D03*
X184149995Y-83900009D03*
D11*
%TO.P,RE1,S1,S1*%
%TO.N,C8*%
X177149994Y-87000018D03*
%TO.P,RE1,S2,S2*%
%TO.N,Net-(D37-A)*%
X177149997Y-92000018D03*
%TD*%
D14*
%TO.P,J2,1,Pin_1*%
%TO.N,+5V*%
X67043765Y-39318552D03*
D15*
%TO.P,J2,2,Pin_2*%
%TO.N,D-*%
X69043765Y-39318552D03*
%TO.P,J2,3,Pin_3*%
%TO.N,D+*%
X71043765Y-39318552D03*
%TO.P,J2,4,Pin_4*%
%TO.N,GND*%
X73043765Y-39318552D03*
%TD*%
D10*
%TO.P,XC6,1,Pin_1*%
%TO.N,C6*%
X138000000Y-40000000D03*
%TD*%
%TO.P,XR5,1,Pin_1*%
%TO.N,R1*%
X131000000Y-37500000D03*
%TD*%
%TO.P,XR1,1,Pin_1*%
%TO.N,R1*%
X49500000Y-42500000D03*
%TD*%
%TO.P,XR6,1,Pin_1*%
%TO.N,R1*%
X151000000Y-40000000D03*
%TD*%
D16*
%TO.P,LED2,1,K*%
%TO.N,GND*%
X189000003Y-100724996D03*
D17*
%TO.P,LED2,2,A*%
%TO.N,LED2*%
X189000003Y-103264997D03*
%TD*%
D10*
%TO.P,XR9,1,Pin_1*%
%TO.N,R6*%
X186000000Y-131000000D03*
%TD*%
D16*
%TO.P,LED1,1,K*%
%TO.N,GND*%
X181750002Y-100724999D03*
D17*
%TO.P,LED1,2,A*%
%TO.N,LED1*%
X181750001Y-103264997D03*
%TD*%
D18*
%TO.P,SW14,1,1*%
%TO.N,C8*%
X186840000Y-76073500D03*
D19*
X185145000Y-76073500D03*
D20*
X183595000Y-76073500D03*
%TO.P,SW14,2,2*%
%TO.N,Net-(D14-A)*%
X178595000Y-73873500D03*
D19*
X177045000Y-73873500D03*
D18*
X175350000Y-73873500D03*
%TD*%
D21*
%TO.P,R4,1*%
%TO.N,Net-(R4-Pad1)*%
X157000000Y-109990000D03*
%TO.P,R4,2*%
%TO.N,+3V3*%
X157000000Y-111010000D03*
%TD*%
D20*
%TO.P,SW15,1,1*%
%TO.N,C1*%
X45245000Y-76350000D03*
D19*
X43695000Y-76350000D03*
D18*
X42000000Y-76350000D03*
%TO.P,SW15,2,2*%
%TO.N,Net-(D15-A)*%
X53490000Y-78550000D03*
D19*
X51795000Y-78550000D03*
D20*
X50245000Y-78550000D03*
%TD*%
D22*
%TO.P,D20,1,K*%
%TO.N,R4*%
X137100003Y-99162500D03*
%TO.P,D20,2,A*%
%TO.N,Net-(D20-A)*%
X137100003Y-95862500D03*
%TD*%
D18*
%TO.P,SW29,1,1*%
%TO.N,C2*%
X72540000Y-116650000D03*
D19*
X70845000Y-116650000D03*
D20*
X69295000Y-116650000D03*
%TO.P,SW29,2,2*%
%TO.N,Net-(D29-A)*%
X64295000Y-114450000D03*
D19*
X62745000Y-114450000D03*
D18*
X61050000Y-114450000D03*
%TD*%
%TO.P,SW33,1,1*%
%TO.N,Net-(D33-A)*%
X53490000Y-135700000D03*
D19*
X51795000Y-135700000D03*
D20*
X50245000Y-135700000D03*
%TO.P,SW33,2,2*%
%TO.N,C1*%
X45245000Y-133500000D03*
D19*
X43695000Y-133500000D03*
D18*
X42000000Y-133500000D03*
%TD*%
D23*
%TO.P,J1,A1,GND*%
%TO.N,GND*%
X66429999Y-31095000D03*
%TO.P,J1,A4,VBUS*%
%TO.N,VBUS*%
X67230000Y-31094998D03*
D24*
%TO.P,J1,A5,CC1*%
%TO.N,Net-(J1-CC1)*%
X68430002Y-31094996D03*
%TO.P,J1,A6,D+*%
%TO.N,D+*%
X69430002Y-31094997D03*
%TO.P,J1,A7,D-*%
%TO.N,D-*%
X69930001Y-31094999D03*
%TO.P,J1,A8,SBU1*%
%TO.N,unconnected-(J1-SBU1-PadA8)*%
X70930001Y-31094995D03*
D23*
%TO.P,J1,A9,VBUS*%
%TO.N,VBUS*%
X72130000Y-31094998D03*
%TO.P,J1,A12,GND*%
%TO.N,GND*%
X72930002Y-31094998D03*
%TO.P,J1,B1,GND*%
X72930002Y-31094998D03*
%TO.P,J1,B4,VBUS*%
%TO.N,VBUS*%
X72130000Y-31094998D03*
D24*
%TO.P,J1,B5,CC2*%
%TO.N,Net-(J1-CC2)*%
X71429998Y-31094998D03*
%TO.P,J1,B6,D+*%
%TO.N,D+*%
X70430003Y-31094996D03*
%TO.P,J1,B7,D-*%
%TO.N,D-*%
X68930000Y-31094998D03*
%TO.P,J1,B8,SBU2*%
%TO.N,unconnected-(J1-SBU2-PadB8)*%
X67929999Y-31094999D03*
D23*
%TO.P,J1,B9,VBUS*%
%TO.N,VBUS*%
X67230000Y-31094998D03*
%TO.P,J1,B12,GND*%
%TO.N,GND*%
X66429999Y-31095000D03*
D25*
%TO.P,J1,S1,SHIELD*%
X65359999Y-30179999D03*
D26*
X65360000Y-25999998D03*
D25*
X74000000Y-30179998D03*
D26*
X74000002Y-25999998D03*
%TD*%
D18*
%TO.P,SW10,1,1*%
%TO.N,C3*%
X91590000Y-73787499D03*
D19*
X89895000Y-73787499D03*
D20*
X88345000Y-73787499D03*
%TO.P,SW10,2,2*%
%TO.N,Net-(D10-A)*%
X83345000Y-71587499D03*
D19*
X81795000Y-71587499D03*
D18*
X80100000Y-71587499D03*
%TD*%
%TO.P,SW27,1,1*%
%TO.N,C6*%
X148740000Y-114173500D03*
D19*
X147045000Y-114173500D03*
D20*
X145495000Y-114173500D03*
%TO.P,SW27,2,2*%
%TO.N,Net-(D27-A)*%
X140495000Y-111973500D03*
D19*
X138945000Y-111973500D03*
D18*
X137250000Y-111973500D03*
%TD*%
D22*
%TO.P,D12,1,K*%
%TO.N,R3*%
X137100003Y-80112500D03*
%TO.P,D12,2,A*%
%TO.N,Net-(D12-A)*%
X137100003Y-76812500D03*
%TD*%
%TO.P,D15,1,K*%
%TO.N,R3*%
X54000000Y-84150000D03*
%TO.P,D15,2,A*%
%TO.N,Net-(D15-A)*%
X54000000Y-80850000D03*
%TD*%
D27*
%TO.P,R1,1*%
%TO.N,Net-(J1-CC1)*%
X68435685Y-33114561D03*
%TO.P,R1,2*%
%TO.N,GND*%
X67415685Y-33114561D03*
%TD*%
D18*
%TO.P,SW8,1,1*%
%TO.N,C2*%
X72540000Y-59499999D03*
D19*
X70845000Y-59499999D03*
D20*
X69295000Y-59499999D03*
%TO.P,SW8,2,2*%
%TO.N,Net-(D8-A)*%
X64295000Y-57299999D03*
D19*
X62745000Y-57299999D03*
D18*
X61050000Y-57299999D03*
%TD*%
%TO.P,SW2,1,1*%
%TO.N,C3*%
X91590000Y-54737499D03*
D19*
X89895000Y-54737499D03*
D20*
X88345000Y-54737499D03*
%TO.P,SW2,2,2*%
%TO.N,Net-(D2-A)*%
X83345000Y-52537499D03*
D19*
X81795000Y-52537499D03*
D18*
X80100000Y-52537499D03*
%TD*%
%TO.P,SW35,1,1*%
%TO.N,Net-(D35-A)*%
X91590000Y-135700000D03*
D19*
X89895000Y-135700000D03*
D20*
X88345000Y-135700000D03*
%TO.P,SW35,2,2*%
%TO.N,C3*%
X83345000Y-133500000D03*
D19*
X81795000Y-133500000D03*
D18*
X80100000Y-133500000D03*
%TD*%
D28*
%TO.P,U3,1,IOVDD*%
%TO.N,+3V3*%
X159937500Y-124900000D03*
%TO.P,U3,2,GPIO0*%
%TO.N,unconnected-(U3-GPIO0-Pad2)*%
X159937500Y-125300000D03*
%TO.P,U3,3,GPIO1*%
%TO.N,unconnected-(U3-GPIO1-Pad3)*%
X159937500Y-125700000D03*
%TO.P,U3,4,GPIO2*%
%TO.N,unconnected-(U3-GPIO2-Pad4)*%
X159937500Y-126100000D03*
%TO.P,U3,5,GPIO3*%
%TO.N,unconnected-(U3-GPIO3-Pad5)*%
X159937500Y-126500000D03*
%TO.P,U3,6,GPIO4*%
%TO.N,unconnected-(U3-GPIO4-Pad6)*%
X159937500Y-126900000D03*
%TO.P,U3,7,GPIO5*%
%TO.N,unconnected-(U3-GPIO5-Pad7)*%
X159937500Y-127300000D03*
%TO.P,U3,8,GPIO6*%
%TO.N,unconnected-(U3-GPIO6-Pad8)*%
X159937500Y-127700000D03*
%TO.P,U3,9,GPIO7*%
%TO.N,unconnected-(U3-GPIO7-Pad9)*%
X159937500Y-128100000D03*
%TO.P,U3,10,IOVDD*%
%TO.N,+3V3*%
X159937500Y-128500000D03*
%TO.P,U3,11,GPIO8*%
%TO.N,LED1*%
X159937500Y-128900000D03*
%TO.P,U3,12,GPIO9*%
%TO.N,LED2*%
X159937500Y-129300000D03*
%TO.P,U3,13,GPIO10*%
%TO.N,en_B*%
X159937500Y-129700000D03*
%TO.P,U3,14,GPIO11*%
%TO.N,en_A*%
X159937500Y-130100000D03*
D29*
%TO.P,U3,15,GPIO12*%
%TO.N,C8*%
X159100000Y-130937500D03*
%TO.P,U3,16,GPIO13*%
%TO.N,C7*%
X158700000Y-130937500D03*
%TO.P,U3,17,GPIO14*%
%TO.N,C6*%
X158300000Y-130937500D03*
%TO.P,U3,18,GPIO15*%
%TO.N,R6*%
X157900000Y-130937500D03*
%TO.P,U3,19,TESTEN*%
%TO.N,GND*%
X157500000Y-130937500D03*
%TO.P,U3,20,XIN*%
%TO.N,XIN*%
X157100000Y-130937500D03*
%TO.P,U3,21,XOUT*%
%TO.N,XOUT*%
X156700000Y-130937500D03*
%TO.P,U3,22,IOVDD*%
%TO.N,+3V3*%
X156300000Y-130937500D03*
%TO.P,U3,23,DVDD*%
%TO.N,+1V1*%
X155900000Y-130937500D03*
%TO.P,U3,24,SWCLK*%
%TO.N,SWC*%
X155500000Y-130937500D03*
%TO.P,U3,25,SWD*%
%TO.N,SWD*%
X155100000Y-130937500D03*
%TO.P,U3,26,RUN*%
%TO.N,RESET*%
X154700000Y-130937500D03*
%TO.P,U3,27,GPIO16*%
%TO.N,C1*%
X154300000Y-130937500D03*
%TO.P,U3,28,GPIO17*%
%TO.N,C2*%
X153900000Y-130937500D03*
D28*
%TO.P,U3,29,GPIO18*%
%TO.N,C3*%
X153062500Y-130100000D03*
%TO.P,U3,30,GPIO19*%
%TO.N,C4*%
X153062500Y-129700000D03*
%TO.P,U3,31,GPIO20*%
%TO.N,C5*%
X153062500Y-129300000D03*
%TO.P,U3,32,GPIO21*%
%TO.N,R1*%
X153062500Y-128900000D03*
%TO.P,U3,33,IOVDD*%
%TO.N,+3V3*%
X153062500Y-128500000D03*
%TO.P,U3,34,GPIO22*%
%TO.N,R2*%
X153062500Y-128100000D03*
%TO.P,U3,35,GPIO23*%
%TO.N,R3*%
X153062500Y-127700000D03*
%TO.P,U3,36,GPIO24*%
%TO.N,R4*%
X153062500Y-127300000D03*
%TO.P,U3,37,GPIO25*%
%TO.N,R5*%
X153062500Y-126900000D03*
%TO.P,U3,38,GPIO26_ADC0*%
%TO.N,unconnected-(U3-GPIO26_ADC0-Pad38)*%
X153062500Y-126500000D03*
%TO.P,U3,39,GPIO27_ADC1*%
%TO.N,unconnected-(U3-GPIO27_ADC1-Pad39)*%
X153062500Y-126100000D03*
%TO.P,U3,40,GPIO28_ADC2*%
%TO.N,RX0*%
X153062500Y-125700000D03*
%TO.P,U3,41,GPIO29_ADC3*%
%TO.N,TX0*%
X153062500Y-125300000D03*
%TO.P,U3,42,IOVDD*%
%TO.N,+3V3*%
X153062500Y-124900000D03*
D29*
%TO.P,U3,43,ADC_AVDD*%
X153900000Y-124062500D03*
%TO.P,U3,44,VREG_IN*%
X154300000Y-124062500D03*
%TO.P,U3,45,VREG_VOUT*%
%TO.N,+1V1*%
X154700000Y-124062500D03*
%TO.P,U3,46,USB_DM*%
%TO.N,Net-(U3-USB_DM)*%
X155100000Y-124062500D03*
%TO.P,U3,47,USB_DP*%
%TO.N,Net-(U3-USB_DP)*%
X155500000Y-124062500D03*
%TO.P,U3,48,USB_VDD*%
%TO.N,+3V3*%
X155900000Y-124062500D03*
%TO.P,U3,49,IOVDD*%
X156300000Y-124062500D03*
%TO.P,U3,50,DVDD*%
%TO.N,+1V1*%
X156700000Y-124062500D03*
%TO.P,U3,51,QSPI_SD3*%
%TO.N,Q_IO3*%
X157100000Y-124062500D03*
%TO.P,U3,52,QSPI_SCLK*%
%TO.N,Q_CLK*%
X157500000Y-124062500D03*
%TO.P,U3,53,QSPI_SD0*%
%TO.N,Q_IO0*%
X157900000Y-124062500D03*
%TO.P,U3,54,QSPI_SD2*%
%TO.N,Q_IO2*%
X158300000Y-124062500D03*
%TO.P,U3,55,QSPI_SD1*%
%TO.N,Q_IO1*%
X158700000Y-124062500D03*
%TO.P,U3,56,QSPI_SS*%
%TO.N,Q_SEL*%
X159100000Y-124062500D03*
D30*
%TO.P,U3,57,GND*%
%TO.N,GND*%
X156500000Y-127500000D03*
%TD*%
D22*
%TO.P,D21,1,K*%
%TO.N,R4*%
X156150003Y-99162500D03*
%TO.P,D21,2,A*%
%TO.N,Net-(D21-A)*%
X156150003Y-95862500D03*
%TD*%
%TO.P,D29,1,K*%
%TO.N,R5*%
X60900003Y-120689000D03*
%TO.P,D29,2,A*%
%TO.N,Net-(D29-A)*%
X60900003Y-117389000D03*
%TD*%
%TO.P,D24,1,K*%
%TO.N,R5*%
X99000003Y-113450000D03*
%TO.P,D24,2,A*%
%TO.N,Net-(D24-A)*%
X99000003Y-110150000D03*
%TD*%
D31*
%TO.P,SW31,1,1*%
%TO.N,Net-(D31-A)*%
X184842510Y-110370599D03*
D32*
X186479754Y-110809297D03*
D20*
X187976939Y-111210466D03*
%TO.P,SW31,2,2*%
%TO.N,C7*%
X192237167Y-114629598D03*
D33*
X193734352Y-115030768D03*
D31*
X195371596Y-115469466D03*
%TD*%
D18*
%TO.P,SW11,1,1*%
%TO.N,C5*%
X129690000Y-73787499D03*
D19*
X127995000Y-73787499D03*
D20*
X126445000Y-73787499D03*
%TO.P,SW11,2,2*%
%TO.N,Net-(D11-A)*%
X121445000Y-71587499D03*
D19*
X119895000Y-71587499D03*
D18*
X118200000Y-71587499D03*
%TD*%
%TO.P,SW5,1,1*%
%TO.N,C7*%
X167790000Y-57023500D03*
D19*
X166095000Y-57023500D03*
D20*
X164545000Y-57023500D03*
%TO.P,SW5,2,2*%
%TO.N,Net-(D5-A)*%
X159545000Y-54823500D03*
D19*
X157995000Y-54823500D03*
D18*
X156300000Y-54823500D03*
%TD*%
D22*
%TO.P,D34,1,K*%
%TO.N,R6*%
X75999999Y-138150000D03*
%TO.P,D34,2,A*%
%TO.N,Net-(D34-A)*%
X76000001Y-134850000D03*
%TD*%
D18*
%TO.P,SW6,1,1*%
%TO.N,C8*%
X186840000Y-57023500D03*
D19*
X185145000Y-57023500D03*
D20*
X183595000Y-57023500D03*
%TO.P,SW6,2,2*%
%TO.N,Net-(D6-A)*%
X178595000Y-54823500D03*
D19*
X177045000Y-54823500D03*
D18*
X175350000Y-54823500D03*
%TD*%
D22*
%TO.P,D16,1,K*%
%TO.N,R3*%
X60900003Y-82589000D03*
%TO.P,D16,2,A*%
%TO.N,Net-(D16-A)*%
X60900003Y-79289000D03*
%TD*%
D18*
%TO.P,SW16,1,1*%
%TO.N,C2*%
X72540000Y-78550000D03*
D19*
X70845000Y-78550000D03*
D20*
X69295000Y-78550000D03*
%TO.P,SW16,2,2*%
%TO.N,Net-(D16-A)*%
X64295000Y-76350000D03*
D19*
X62745000Y-76350000D03*
D18*
X61050000Y-76350000D03*
%TD*%
D34*
%TO.P,C15,1*%
%TO.N,GND*%
X157204713Y-119045815D03*
%TO.P,C15,2*%
%TO.N,+1V1*%
X157204711Y-120005813D03*
%TD*%
D35*
%TO.P,BOOT1,1,1*%
%TO.N,GND*%
X157099993Y-101849995D03*
X157100004Y-108149995D03*
%TO.P,BOOT1,2,2*%
%TO.N,Net-(BOOT1-Pad2)*%
X160899996Y-101850005D03*
X160900007Y-108150005D03*
%TD*%
D22*
%TO.P,D27,1,K*%
%TO.N,R5*%
X136999999Y-118212505D03*
%TO.P,D27,2,A*%
%TO.N,Net-(D27-A)*%
X137000001Y-114912495D03*
%TD*%
D20*
%TO.P,SW36,1,1*%
%TO.N,Net-(D36-A)*%
X140445167Y-126858159D03*
D36*
X141989267Y-126993246D03*
D37*
X143677818Y-127140986D03*
%TO.P,SW36,2,2*%
%TO.N,C5*%
X132423284Y-123947932D03*
D38*
X134111824Y-124095656D03*
D20*
X135655927Y-124230751D03*
%TD*%
%TO.P,SW28,1,1*%
%TO.N,C1*%
X45245000Y-114450000D03*
D19*
X43695000Y-114450000D03*
D18*
X42000000Y-114450000D03*
%TO.P,SW28,2,2*%
%TO.N,Net-(D28-A)*%
X53490000Y-116650000D03*
D19*
X51795000Y-116650000D03*
D20*
X50245000Y-116650000D03*
%TD*%
D18*
%TO.P,SW21,1,1*%
%TO.N,C7*%
X167790000Y-95123500D03*
D19*
X166095000Y-95123500D03*
D20*
X164545000Y-95123500D03*
%TO.P,SW21,2,2*%
%TO.N,Net-(D21-A)*%
X159545000Y-92923500D03*
D19*
X157995000Y-92923500D03*
D18*
X156300000Y-92923500D03*
%TD*%
D22*
%TO.P,D17,1,K*%
%TO.N,R4*%
X99000003Y-94400000D03*
%TO.P,D17,2,A*%
%TO.N,Net-(D17-A)*%
X99000003Y-91100000D03*
%TD*%
D18*
%TO.P,SW34,1,1*%
%TO.N,Net-(D34-A)*%
X72540000Y-135700000D03*
D19*
X70845000Y-135700000D03*
D20*
X69295000Y-135700000D03*
%TO.P,SW34,2,2*%
%TO.N,C2*%
X64295000Y-133500000D03*
D19*
X62745000Y-133500000D03*
D18*
X61050000Y-133500000D03*
%TD*%
D31*
%TO.P,SW38,1,1*%
%TO.N,Net-(D38-A)*%
X170470912Y-126240999D03*
D32*
X172108156Y-126679697D03*
D20*
X173605341Y-127080866D03*
%TO.P,SW38,2,2*%
%TO.N,C6*%
X177865569Y-130499998D03*
D33*
X179362754Y-130901168D03*
D31*
X180999998Y-131339866D03*
%TD*%
D22*
%TO.P,D23,1,K*%
%TO.N,R4*%
X60900003Y-101639000D03*
%TO.P,D23,2,A*%
%TO.N,Net-(D23-A)*%
X60900003Y-98339000D03*
%TD*%
D20*
%TO.P,SW22,1,1*%
%TO.N,C1*%
X45245000Y-95400000D03*
D19*
X43695000Y-95400000D03*
D18*
X42000000Y-95400000D03*
%TO.P,SW22,2,2*%
%TO.N,Net-(D22-A)*%
X53490000Y-97600000D03*
D19*
X51795000Y-97600000D03*
D20*
X50245000Y-97600000D03*
%TD*%
D39*
%TO.P,R2,1*%
%TO.N,Net-(J1-CC2)*%
X71429659Y-33144076D03*
%TO.P,R2,2*%
%TO.N,GND*%
X72449659Y-33144076D03*
%TD*%
D18*
%TO.P,SW3,1,1*%
%TO.N,C5*%
X129690000Y-54737499D03*
D19*
X127995000Y-54737499D03*
D20*
X126445000Y-54737499D03*
%TO.P,SW3,2,2*%
%TO.N,Net-(D3-A)*%
X121445000Y-52537499D03*
D19*
X119895000Y-52537499D03*
D18*
X118200000Y-52537499D03*
%TD*%
D40*
%TO.P,C11,1*%
%TO.N,+3V3*%
X151999998Y-121856772D03*
%TO.P,C11,2*%
%TO.N,GND*%
X152000002Y-120896774D03*
%TD*%
D41*
%TO.P,C6,1*%
%TO.N,+3V3*%
X151800000Y-123700000D03*
%TO.P,C6,2*%
%TO.N,GND*%
X150840000Y-123700000D03*
%TD*%
D22*
%TO.P,D26,1,K*%
%TO.N,R5*%
X118050003Y-115926500D03*
%TO.P,D26,2,A*%
%TO.N,Net-(D26-A)*%
X118050003Y-112626500D03*
%TD*%
D18*
%TO.P,SW1,1,1*%
%TO.N,C4*%
X110640000Y-52261000D03*
D19*
X108945000Y-52261000D03*
D20*
X107395000Y-52261000D03*
%TO.P,SW1,2,2*%
%TO.N,Net-(D1-A)*%
X102395000Y-50061000D03*
D19*
X100845000Y-50061000D03*
D18*
X99150000Y-50061000D03*
%TD*%
D31*
%TO.P,SW30,1,1*%
%TO.N,C7*%
X166365571Y-105412874D03*
D32*
X168002815Y-105851572D03*
D20*
X169500000Y-106252741D03*
%TO.P,SW30,2,2*%
%TO.N,Net-(D30-A)*%
X173760228Y-109671873D03*
D33*
X175257413Y-110073043D03*
D31*
X176894657Y-110511741D03*
%TD*%
D18*
%TO.P,SW23,1,1*%
%TO.N,C2*%
X72540000Y-97600000D03*
D19*
X70845000Y-97600000D03*
D20*
X69295000Y-97600000D03*
%TO.P,SW23,2,2*%
%TO.N,Net-(D23-A)*%
X64295000Y-95400000D03*
D19*
X62745000Y-95400000D03*
D18*
X61050000Y-95400000D03*
%TD*%
D40*
%TO.P,C2,1*%
%TO.N,+3V3*%
X94507448Y-117754044D03*
%TO.P,C2,2*%
%TO.N,GND*%
X94507452Y-116794046D03*
%TD*%
D18*
%TO.P,SW26,1,1*%
%TO.N,C5*%
X129690000Y-111887500D03*
D19*
X127995000Y-111887500D03*
D20*
X126445000Y-111887500D03*
%TO.P,SW26,2,2*%
%TO.N,Net-(D26-A)*%
X121445000Y-109687500D03*
D19*
X119895000Y-109687500D03*
D18*
X118200000Y-109687500D03*
%TD*%
D22*
%TO.P,D2,1,K*%
%TO.N,R2*%
X79950003Y-58776499D03*
%TO.P,D2,2,A*%
%TO.N,Net-(D2-A)*%
X79950003Y-55476499D03*
%TD*%
D21*
%TO.P,R9,1*%
%TO.N,D-*%
X154750000Y-115249108D03*
%TO.P,R9,2*%
%TO.N,Net-(U3-USB_DM)*%
X154750000Y-116269108D03*
%TD*%
D42*
%TO.P,C3,1*%
%TO.N,GND*%
X159260460Y-139954563D03*
%TO.P,C3,2*%
%TO.N,XIN*%
X159939288Y-139275737D03*
%TD*%
D22*
%TO.P,D22,1,K*%
%TO.N,R4*%
X54000000Y-103150000D03*
%TO.P,D22,2,A*%
%TO.N,Net-(D22-A)*%
X54000000Y-99850000D03*
%TD*%
D21*
%TO.P,R8,1*%
%TO.N,D+*%
X155814639Y-115249108D03*
%TO.P,R8,2*%
%TO.N,Net-(U3-USB_DP)*%
X155814639Y-116269108D03*
%TD*%
D22*
%TO.P,D7,1,K*%
%TO.N,R2*%
X54000000Y-65150000D03*
%TO.P,D7,2,A*%
%TO.N,Net-(D7-A)*%
X54000000Y-61850000D03*
%TD*%
D21*
%TO.P,R6,1*%
%TO.N,Net-(BOOT1-Pad2)*%
X159500000Y-109990000D03*
%TO.P,R6,2*%
%TO.N,Q_SEL*%
X159500000Y-111010000D03*
%TD*%
D22*
%TO.P,D6,1,K*%
%TO.N,R2*%
X175200003Y-61062500D03*
%TO.P,D6,2,A*%
%TO.N,Net-(D6-A)*%
X175200003Y-57762500D03*
%TD*%
D43*
%TO.P,F1,1*%
%TO.N,VBUS*%
X64500000Y-34100000D03*
%TO.P,F1,2*%
%TO.N,+5V*%
X64500000Y-36900000D03*
%TD*%
D44*
%TO.P,R3,1*%
%TO.N,RESET*%
X123000000Y-123260000D03*
%TO.P,R3,2*%
%TO.N,+3V3*%
X123000000Y-122240000D03*
%TD*%
D22*
%TO.P,D1,1,K*%
%TO.N,R2*%
X99000006Y-56300000D03*
%TO.P,D1,2,A*%
%TO.N,Net-(D1-A)*%
X99000000Y-53000000D03*
%TD*%
D40*
%TO.P,C12,1*%
%TO.N,+3V3*%
X155904660Y-120026598D03*
%TO.P,C12,2*%
%TO.N,GND*%
X155904664Y-119066600D03*
%TD*%
D22*
%TO.P,D14,1,K*%
%TO.N,R3*%
X175200006Y-80112502D03*
%TO.P,D14,2,A*%
%TO.N,Net-(D14-A)*%
X175200000Y-76812498D03*
%TD*%
D45*
%TO.P,C4,1*%
%TO.N,GND*%
X156456357Y-140229537D03*
%TO.P,C4,2*%
%TO.N,Net-(C4-Pad2)*%
X155777527Y-139550699D03*
%TD*%
D22*
%TO.P,D38,1,K*%
%TO.N,R6*%
X168249998Y-136400003D03*
%TO.P,D38,2,A*%
%TO.N,Net-(D38-A)*%
X168250002Y-133099997D03*
%TD*%
D18*
%TO.P,SW32,1,1*%
%TO.N,Net-(D32-A)*%
X110640000Y-128461000D03*
D19*
X108945000Y-128461000D03*
D20*
X107395000Y-128461000D03*
%TO.P,SW32,2,2*%
%TO.N,C4*%
X102395000Y-126261000D03*
D19*
X100845000Y-126261000D03*
D18*
X99150000Y-126261000D03*
%TD*%
D46*
%TO.P,D37,1,K*%
%TO.N,R4*%
X175850000Y-97499998D03*
%TO.P,D37,2,A*%
%TO.N,Net-(D37-A)*%
X179150000Y-97500002D03*
%TD*%
D22*
%TO.P,D35,1,K*%
%TO.N,R6*%
X95499996Y-138150002D03*
%TO.P,D35,2,A*%
%TO.N,Net-(D35-A)*%
X95500004Y-134849998D03*
%TD*%
%TO.P,D9,1,K*%
%TO.N,R3*%
X99000003Y-75350000D03*
%TO.P,D9,2,A*%
%TO.N,Net-(D9-A)*%
X99000003Y-72050000D03*
%TD*%
D41*
%TO.P,C7,1*%
%TO.N,+3V3*%
X151230000Y-128498855D03*
%TO.P,C7,2*%
%TO.N,GND*%
X150270000Y-128498855D03*
%TD*%
D47*
%TO.P,R7,1*%
%TO.N,Net-(C4-Pad2)*%
X156051773Y-136784244D03*
%TO.P,R7,2*%
%TO.N,XOUT*%
X156773025Y-136062996D03*
%TD*%
D48*
%TO.P,C10,1*%
%TO.N,+3V3*%
X155960365Y-135160590D03*
%TO.P,C10,2*%
%TO.N,GND*%
X155281543Y-135839410D03*
%TD*%
D49*
%TO.P,U2,1,IO1*%
%TO.N,D+*%
X71174999Y-35050001D03*
%TO.P,U2,2,VN*%
%TO.N,GND*%
X71175000Y-36000000D03*
%TO.P,U2,3,IO2*%
%TO.N,unconnected-(U2-IO2-Pad3)*%
X71175001Y-36949999D03*
%TO.P,U2,4,IO3*%
%TO.N,unconnected-(U2-IO3-Pad4)*%
X68825001Y-36949999D03*
%TO.P,U2,5,VP*%
%TO.N,+5V*%
X68825000Y-36000000D03*
%TO.P,U2,6,IO4*%
%TO.N,D-*%
X68824999Y-35050001D03*
%TD*%
D50*
%TO.P,D30,1,K*%
%TO.N,R5*%
X175427049Y-102906222D03*
%TO.P,D30,2,A*%
%TO.N,Net-(D30-A)*%
X174572951Y-106093778D03*
%TD*%
D51*
%TO.P,U1,1,GND*%
%TO.N,GND*%
X93000000Y-117100000D03*
%TO.P,U1,2,VO*%
%TO.N,+3V3*%
X93000000Y-119000000D03*
%TO.P,U1,3,VI*%
%TO.N,+5V*%
X90725000Y-118050000D03*
%TD*%
D22*
%TO.P,D32,1,K*%
%TO.N,R6*%
X110838615Y-134642999D03*
%TO.P,D32,2,A*%
%TO.N,Net-(D32-A)*%
X110838623Y-131342995D03*
%TD*%
%TO.P,D5,1,K*%
%TO.N,R2*%
X156150003Y-61062500D03*
%TO.P,D5,2,A*%
%TO.N,Net-(D5-A)*%
X156150003Y-57762500D03*
%TD*%
D18*
%TO.P,SW18,1,1*%
%TO.N,C3*%
X91590000Y-92837500D03*
D19*
X89895000Y-92837500D03*
D20*
X88345000Y-92837500D03*
%TO.P,SW18,2,2*%
%TO.N,Net-(D18-A)*%
X83345000Y-90637500D03*
D19*
X81795000Y-90637500D03*
D18*
X80100000Y-90637500D03*
%TD*%
D22*
%TO.P,D25,1,K*%
%TO.N,R5*%
X79950003Y-115926500D03*
%TO.P,D25,2,A*%
%TO.N,Net-(D25-A)*%
X79950003Y-112626500D03*
%TD*%
%TO.P,D3,1,K*%
%TO.N,R2*%
X118050003Y-58776499D03*
%TO.P,D3,2,A*%
%TO.N,Net-(D3-A)*%
X118050003Y-55476499D03*
%TD*%
%TO.P,D8,1,K*%
%TO.N,R2*%
X60900005Y-64149999D03*
%TO.P,D8,2,A*%
%TO.N,Net-(D8-A)*%
X60900001Y-60850001D03*
%TD*%
D40*
%TO.P,C1,1*%
%TO.N,+5V*%
X89088994Y-117702682D03*
%TO.P,C1,2*%
%TO.N,GND*%
X89088996Y-116742684D03*
%TD*%
D18*
%TO.P,SW4,1,1*%
%TO.N,C6*%
X148740000Y-57023500D03*
D19*
X147045000Y-57023500D03*
D20*
X145495000Y-57023500D03*
%TO.P,SW4,2,2*%
%TO.N,Net-(D4-A)*%
X140495000Y-54823500D03*
D19*
X138945000Y-54823500D03*
D18*
X137250000Y-54823500D03*
%TD*%
D22*
%TO.P,D28,1,K*%
%TO.N,R5*%
X53500000Y-122500000D03*
%TO.P,D28,2,A*%
%TO.N,Net-(D28-A)*%
X53500000Y-119200000D03*
%TD*%
D18*
%TO.P,SW25,1,1*%
%TO.N,C3*%
X91590000Y-111887500D03*
D19*
X89895000Y-111887500D03*
D20*
X88345000Y-111887500D03*
%TO.P,SW25,2,2*%
%TO.N,Net-(D25-A)*%
X83345000Y-109687500D03*
D19*
X81795000Y-109687500D03*
D18*
X80100000Y-109687500D03*
%TD*%
D22*
%TO.P,D11,1,K*%
%TO.N,R3*%
X118050003Y-77826499D03*
%TO.P,D11,2,A*%
%TO.N,Net-(D11-A)*%
X118050003Y-74526499D03*
%TD*%
D40*
%TO.P,C14,1*%
%TO.N,+1V1*%
X152999996Y-121856772D03*
%TO.P,C14,2*%
%TO.N,GND*%
X153000000Y-120896774D03*
%TD*%
D41*
%TO.P,C13,1*%
%TO.N,+3V3*%
X160500000Y-115500000D03*
%TO.P,C13,2*%
%TO.N,GND*%
X159540002Y-115499998D03*
%TD*%
D18*
%TO.P,SW24,1,1*%
%TO.N,C4*%
X110640000Y-109411000D03*
D19*
X108945000Y-109411000D03*
D20*
X107395000Y-109411000D03*
%TO.P,SW24,2,2*%
%TO.N,Net-(D24-A)*%
X102395000Y-107211000D03*
D19*
X100845000Y-107211000D03*
D18*
X99150000Y-107211000D03*
%TD*%
D52*
%TO.P,C5,1*%
%TO.N,+3V3*%
X148702601Y-122151773D03*
%TO.P,C5,2*%
%TO.N,GND*%
X148702589Y-120601773D03*
%TD*%
D18*
%TO.P,SW13,1,1*%
%TO.N,C7*%
X167790000Y-76073500D03*
D19*
X166095000Y-76073500D03*
D20*
X164545000Y-76073500D03*
%TO.P,SW13,2,2*%
%TO.N,Net-(D13-A)*%
X159545000Y-73873500D03*
D19*
X157995000Y-73873500D03*
D18*
X156300000Y-73873500D03*
%TD*%
D53*
%TO.P,Y1,1,1*%
%TO.N,Net-(C4-Pad2)*%
X156621148Y-138176773D03*
%TO.P,Y1,2,2*%
%TO.N,GND*%
X158176778Y-136621138D03*
%TO.P,Y1,3,3*%
%TO.N,XIN*%
X159378852Y-137823227D03*
%TO.P,Y1,4,4*%
%TO.N,GND*%
X157823222Y-139378862D03*
%TD*%
D18*
%TO.P,SW17,1,1*%
%TO.N,C4*%
X110640000Y-90361000D03*
D19*
X108945000Y-90361000D03*
D20*
X107395000Y-90361000D03*
%TO.P,SW17,2,2*%
%TO.N,Net-(D17-A)*%
X102395000Y-88161000D03*
D19*
X100845000Y-88161000D03*
D18*
X99150000Y-88161000D03*
%TD*%
D44*
%TO.P,R5,1*%
%TO.N,Q_SEL*%
X158210551Y-111028770D03*
%TO.P,R5,2*%
%TO.N,Net-(R4-Pad1)*%
X158210551Y-110008770D03*
%TD*%
D22*
%TO.P,D19,1,K*%
%TO.N,R4*%
X118050003Y-96876500D03*
%TO.P,D19,2,A*%
%TO.N,Net-(D19-A)*%
X118050003Y-93576500D03*
%TD*%
D48*
%TO.P,C16,1*%
%TO.N,+1V1*%
X155228191Y-134450188D03*
%TO.P,C16,2*%
%TO.N,GND*%
X154549369Y-135129008D03*
%TD*%
D18*
%TO.P,SW12,1,1*%
%TO.N,C6*%
X148740000Y-76073500D03*
D19*
X147045000Y-76073500D03*
D20*
X145495000Y-76073500D03*
%TO.P,SW12,2,2*%
%TO.N,Net-(D12-A)*%
X140495000Y-73873500D03*
D19*
X138945000Y-73873500D03*
D18*
X137250000Y-73873500D03*
%TD*%
D35*
%TO.P,RST1,1,1*%
%TO.N,GND*%
X117099996Y-122849998D03*
X117100004Y-129149999D03*
%TO.P,RST1,2,2*%
%TO.N,RESET*%
X120899996Y-122850001D03*
X120900004Y-129150002D03*
%TD*%
D22*
%TO.P,D36,1,K*%
%TO.N,R6*%
X144253046Y-134150001D03*
%TO.P,D36,2,A*%
%TO.N,Net-(D36-A)*%
X144253052Y-130849999D03*
%TD*%
D18*
%TO.P,SW9,1,1*%
%TO.N,C4*%
X110640000Y-71311000D03*
D19*
X108945000Y-71311000D03*
D20*
X107395000Y-71311000D03*
%TO.P,SW9,2,2*%
%TO.N,Net-(D9-A)*%
X102395000Y-69111000D03*
D19*
X100845000Y-69111000D03*
D18*
X99150000Y-69111000D03*
%TD*%
D22*
%TO.P,D18,1,K*%
%TO.N,R4*%
X79950003Y-96876500D03*
%TO.P,D18,2,A*%
%TO.N,Net-(D18-A)*%
X79950003Y-93576500D03*
%TD*%
D15*
%TO.P,J4,R1*%
%TO.N,RX0*%
X81000000Y-35000001D03*
%TO.P,J4,R2*%
%TO.N,TX0*%
X82999995Y-34999999D03*
D14*
%TO.P,J4,S*%
%TO.N,+3V3*%
X84999999Y-35000000D03*
D15*
%TO.P,J4,T*%
%TO.N,GND*%
X78999998Y-35000003D03*
%TD*%
D18*
%TO.P,SW19,1,1*%
%TO.N,C5*%
X129690000Y-92837500D03*
D19*
X127995000Y-92837500D03*
D20*
X126445000Y-92837500D03*
%TO.P,SW19,2,2*%
%TO.N,Net-(D19-A)*%
X121445000Y-90637500D03*
D19*
X119895000Y-90637500D03*
D18*
X118200000Y-90637500D03*
%TD*%
D22*
%TO.P,D10,1,K*%
%TO.N,R3*%
X79950003Y-77826499D03*
%TO.P,D10,2,A*%
%TO.N,Net-(D10-A)*%
X79950003Y-74526499D03*
%TD*%
D54*
%TO.P,C8,1*%
%TO.N,+3V3*%
X162520001Y-128499999D03*
%TO.P,C8,2*%
%TO.N,GND*%
X163479999Y-128500001D03*
%TD*%
D55*
%TO.P,U4,1,~{CS}*%
%TO.N,Q_SEL*%
X169600000Y-115595000D03*
%TO.P,U4,2,DO(IO1)*%
%TO.N,Q_IO1*%
X169600000Y-116865000D03*
%TO.P,U4,3,IO2*%
%TO.N,Q_IO2*%
X169600000Y-118135000D03*
%TO.P,U4,4,GND*%
%TO.N,GND*%
X169600000Y-119405000D03*
%TO.P,U4,5,DI(IO0)*%
%TO.N,Q_IO0*%
X162400000Y-119405000D03*
%TO.P,U4,6,CLK*%
%TO.N,Q_CLK*%
X162400000Y-118135000D03*
%TO.P,U4,7,IO3*%
%TO.N,Q_IO3*%
X162400000Y-116865000D03*
%TO.P,U4,8,VCC*%
%TO.N,+3V3*%
X162400000Y-115595000D03*
%TD*%
D22*
%TO.P,D4,1,K*%
%TO.N,R2*%
X137100003Y-61062500D03*
%TO.P,D4,2,A*%
%TO.N,Net-(D4-A)*%
X137100003Y-57762500D03*
%TD*%
D56*
%TO.P,D31,1,K*%
%TO.N,R6*%
X181435367Y-121043608D03*
%TO.P,D31,2,A*%
%TO.N,Net-(D31-A)*%
X182564029Y-117942616D03*
%TD*%
D22*
%TO.P,D33,1,K*%
%TO.N,R6*%
X56999996Y-138150002D03*
%TO.P,D33,2,A*%
%TO.N,Net-(D33-A)*%
X57000004Y-134849998D03*
%TD*%
D20*
%TO.P,SW7,1,1*%
%TO.N,C1*%
X45245000Y-57299999D03*
D19*
X43695000Y-57299999D03*
D18*
X42000000Y-57299999D03*
%TO.P,SW7,2,2*%
%TO.N,Net-(D7-A)*%
X53490000Y-59499999D03*
D19*
X51795000Y-59499999D03*
D20*
X50245000Y-59499999D03*
%TD*%
D54*
%TO.P,C9,1*%
%TO.N,+3V3*%
X162520001Y-124499999D03*
%TO.P,C9,2*%
%TO.N,GND*%
X163479999Y-124500001D03*
%TD*%
D22*
%TO.P,D13,1,K*%
%TO.N,R3*%
X156150003Y-80112500D03*
%TO.P,D13,2,A*%
%TO.N,Net-(D13-A)*%
X156150003Y-76812500D03*
%TD*%
D18*
%TO.P,SW20,1,1*%
%TO.N,C6*%
X148740000Y-95123500D03*
D19*
X147045000Y-95123500D03*
D20*
X145495000Y-95123500D03*
%TO.P,SW20,2,2*%
%TO.N,Net-(D20-A)*%
X140495000Y-92923500D03*
D19*
X138945000Y-92923500D03*
D18*
X137250000Y-92923500D03*
%TD*%
D57*
%TO.N,GND*%
X73000000Y-34000000D03*
X157500000Y-135250000D03*
X90000000Y-116000000D03*
X154500000Y-136750000D03*
X167250000Y-119500000D03*
X155500000Y-128500000D03*
X158250000Y-134000000D03*
X164750000Y-128500000D03*
X149750000Y-123000000D03*
X157500000Y-141000000D03*
X164500000Y-124500000D03*
X156500000Y-118000000D03*
X158500000Y-115500000D03*
X157500000Y-126500000D03*
X157500000Y-128500000D03*
X76750000Y-38000000D03*
X67000000Y-34000000D03*
X152500000Y-120000000D03*
X92500000Y-116000000D03*
X186250000Y-97000000D03*
X149250000Y-128500000D03*
X94000000Y-116000000D03*
X156500000Y-127500000D03*
X155500000Y-126500000D03*
X73044664Y-42426621D03*
X116000000Y-126250000D03*
X155500000Y-105250000D03*
X158500000Y-140750000D03*
%TO.N,+3V3*%
X95250000Y-69500000D03*
X159250000Y-117250000D03*
X161500000Y-123250000D03*
X87750000Y-43000000D03*
%TO.N,+1V1*%
X155250000Y-133250000D03*
X158500000Y-119500000D03*
X154000000Y-121856772D03*
%TO.N,RESET*%
X152250000Y-135250000D03*
X126500000Y-131050000D03*
%TO.N,en_B*%
X172111467Y-129870183D03*
X164506706Y-130944651D03*
%TO.N,en_A*%
X174250000Y-130750000D03*
X165099510Y-131750000D03*
%TO.N,RX0*%
X154250000Y-89250000D03*
X147130025Y-124369975D03*
%TO.N,TX0*%
X149250000Y-124250000D03*
X155250000Y-88750000D03*
%TO.N,LED2*%
X163000000Y-130300000D03*
X170421100Y-128951834D03*
%TO.N,C2*%
X70500000Y-56250000D03*
X72503363Y-112962996D03*
X72527981Y-107798165D03*
%TO.N,C3*%
X86000000Y-120000000D03*
X86000000Y-116500000D03*
X91590000Y-57500000D03*
X91750000Y-63750000D03*
%TO.N,C4*%
X110640000Y-57000000D03*
X110250000Y-112750000D03*
X110750000Y-64500000D03*
X99750000Y-121500000D03*
%TO.N,C5*%
X129690000Y-58250000D03*
X129750000Y-123500000D03*
X129750000Y-68750000D03*
X129750000Y-119750000D03*
%TO.N,C6*%
X148750000Y-111250000D03*
X180250000Y-125750000D03*
X147000000Y-97500000D03*
X152000000Y-114250000D03*
X147750000Y-73000000D03*
X148750000Y-60750000D03*
%TO.N,C7*%
X185500000Y-120500000D03*
X170500000Y-109500000D03*
X192750000Y-119750000D03*
X191750000Y-109000000D03*
%TO.N,C8*%
X162250000Y-133250000D03*
%TO.N,R1*%
X71500000Y-41500000D03*
X131625000Y-131778012D03*
X75000000Y-41500000D03*
X147500000Y-130750000D03*
%TO.N,R2*%
X148000000Y-128750000D03*
X161750000Y-61250000D03*
X92500000Y-126500000D03*
X57000000Y-66000000D03*
X103250000Y-129500000D03*
X114250000Y-127750000D03*
X78750000Y-59750000D03*
X63750000Y-64500000D03*
X171000000Y-61250000D03*
X57750000Y-119000000D03*
X83500000Y-126500000D03*
%TO.N,R3*%
X147500000Y-82750000D03*
X171891284Y-80105963D03*
X113000000Y-79750000D03*
X84250000Y-80250000D03*
X121625000Y-79375000D03*
X63750000Y-85250000D03*
X106875000Y-78125000D03*
X97000000Y-77750000D03*
X132000000Y-80000000D03*
X160654740Y-80088532D03*
X147000000Y-128108159D03*
%TO.N,R4*%
X162500000Y-99250000D03*
X146500000Y-126750000D03*
X96750000Y-98500000D03*
X109000000Y-99000000D03*
X82000000Y-98500000D03*
X133500000Y-99000000D03*
X153500000Y-103000000D03*
X64000000Y-104500000D03*
X171000000Y-98250000D03*
X115750000Y-99000000D03*
%TO.N,R5*%
X151750000Y-105500000D03*
X172750000Y-103000000D03*
X64500000Y-121750000D03*
X79750000Y-118250000D03*
X139250000Y-119000000D03*
X101500000Y-117250000D03*
X144750000Y-125000000D03*
%TD*%
D58*
%TO.N,GND*%
X157500000Y-135243720D02*
X157471601Y-135215321D01*
X157506280Y-135250000D02*
X157500000Y-135250000D01*
D59*
X67000000Y-34000000D02*
X67000000Y-33530246D01*
D58*
X94507452Y-116507452D02*
X94000000Y-116000000D01*
X117099996Y-125250000D02*
X117099996Y-125400004D01*
X157204713Y-119045815D02*
X157204713Y-118704713D01*
X157100004Y-108149995D02*
X157100004Y-104750000D01*
X89088996Y-116742684D02*
X89088996Y-116411004D01*
X155904664Y-118595336D02*
X155904664Y-119066600D01*
X117099996Y-122849998D02*
X117099996Y-125250000D01*
X116750000Y-125750000D02*
X116250000Y-126250000D01*
X156500000Y-118000000D02*
X155904664Y-118595336D01*
X93000000Y-117100000D02*
X94201498Y-117100000D01*
X158176778Y-136621138D02*
X158176778Y-135920498D01*
X159540002Y-115499998D02*
X158500002Y-115499998D01*
X191649997Y-89500018D02*
X188500000Y-92650015D01*
X157100004Y-104750000D02*
X156600004Y-105250000D01*
X152500722Y-120000000D02*
X152500000Y-120000000D01*
D59*
X73085000Y-31094998D02*
X74000000Y-30179998D01*
D58*
X94507452Y-116794046D02*
X94507452Y-116507452D01*
X116250000Y-126250000D02*
X116000000Y-126250000D01*
D59*
X66275000Y-31095000D02*
X65359999Y-30179999D01*
D58*
X148702589Y-120601773D02*
X148702589Y-120547411D01*
X89600000Y-117100000D02*
X93000000Y-117100000D01*
X152500000Y-120000722D02*
X152000002Y-120500720D01*
X149251145Y-128498855D02*
X149250000Y-128500000D01*
X152000002Y-120500720D02*
X152000002Y-120896774D01*
D59*
X74000003Y-35000003D02*
X78999998Y-35000003D01*
D58*
X154549369Y-135129008D02*
X154549369Y-136700631D01*
X188500000Y-94750000D02*
X186250000Y-97000000D01*
X157226820Y-141000000D02*
X156456357Y-140229537D01*
X163479999Y-124500001D02*
X164500000Y-124500000D01*
X157307032Y-139378862D02*
X156456357Y-140229537D01*
X150840000Y-123700000D02*
X150450000Y-123700000D01*
X157823222Y-139378862D02*
X157307032Y-139378862D01*
X169600000Y-119405000D02*
X167250000Y-119500000D01*
D59*
X72930002Y-31094998D02*
X73085000Y-31094998D01*
D58*
X156600004Y-105250000D02*
X155500000Y-105250000D01*
X157798571Y-135542291D02*
X157506280Y-135250000D01*
D59*
X73000000Y-34000000D02*
X74000003Y-35000003D01*
X73044664Y-42426621D02*
X73043765Y-42220741D01*
D58*
X89242684Y-116742684D02*
X89600000Y-117100000D01*
X158500000Y-140750000D02*
X158500000Y-140715023D01*
X157500000Y-141000000D02*
X157226820Y-141000000D01*
X93000000Y-116500000D02*
X92500000Y-116000000D01*
X157100004Y-101850006D02*
X157099993Y-101849995D01*
X153000000Y-120414694D02*
X152543014Y-119957708D01*
D59*
X73043765Y-39318552D02*
X73044664Y-42426621D01*
X66429999Y-31095000D02*
X66275000Y-31095000D01*
X72500000Y-36000000D02*
X71175000Y-36000000D01*
X73000000Y-35500000D02*
X72500000Y-36000000D01*
D58*
X149250000Y-120000000D02*
X152500000Y-120000000D01*
X154549369Y-136700631D02*
X154500000Y-136750000D01*
X159260460Y-139954563D02*
X158398923Y-139954563D01*
X158500000Y-140715023D02*
X159260460Y-139954563D01*
X182500002Y-100724999D02*
X189000000Y-100724999D01*
X117099996Y-125400004D02*
X116750000Y-125750000D01*
X157204713Y-118704713D02*
X156500000Y-118000000D01*
D59*
X73000000Y-33694417D02*
X72449659Y-33144076D01*
X65359999Y-30179999D02*
X65360000Y-25999998D01*
D58*
X157500000Y-135250000D02*
X157500000Y-135243720D01*
X94201498Y-117100000D02*
X94507452Y-116794046D01*
X74000002Y-25999998D02*
X74000002Y-30179996D01*
X117100004Y-126850004D02*
X117100004Y-129149999D01*
X89500000Y-116000000D02*
X90000000Y-116000000D01*
X188500000Y-92650015D02*
X188500000Y-94750000D01*
X117099996Y-125400004D02*
X117099996Y-126849996D01*
X163479999Y-128500001D02*
X164750000Y-128500000D01*
D59*
X67000000Y-33530246D02*
X67415685Y-33114561D01*
X73043765Y-35543765D02*
X73043765Y-39318552D01*
D58*
X93000000Y-117100000D02*
X93000000Y-116500000D01*
X155281543Y-135968457D02*
X154500000Y-136750000D01*
X189000000Y-100724999D02*
X189000003Y-100724996D01*
X148702589Y-120547411D02*
X149250000Y-120000000D01*
X167250000Y-119500000D02*
X167250000Y-119405000D01*
X155281543Y-135839410D02*
X155281543Y-135968457D01*
X152543014Y-119957708D02*
X152500722Y-120000000D01*
X158176778Y-135920498D02*
X157798571Y-135542291D01*
D59*
X78999998Y-35000003D02*
X76750000Y-37250001D01*
D58*
X158500002Y-115499998D02*
X158500000Y-115500000D01*
D59*
X73000000Y-34000000D02*
X73000000Y-33694417D01*
X76750000Y-37250001D02*
X76750000Y-38000000D01*
D58*
X89088996Y-116742684D02*
X89242684Y-116742684D01*
X186250000Y-97000000D02*
X186375000Y-96875000D01*
X157100004Y-104750000D02*
X157100004Y-101850006D01*
X74000002Y-30179996D02*
X74000000Y-30179998D01*
X150270000Y-128498855D02*
X149251145Y-128498855D01*
X153000000Y-120896774D02*
X153000000Y-120414694D01*
X158398923Y-139954563D02*
X157823222Y-139378862D01*
D59*
X73000000Y-35500000D02*
X73043765Y-35543765D01*
D58*
X117099996Y-126849996D02*
X117100004Y-126850004D01*
X157500000Y-133500000D02*
X158250000Y-134000000D01*
X89088996Y-116411004D02*
X89500000Y-116000000D01*
X158250000Y-134000000D02*
X158000000Y-134000000D01*
D59*
X73000000Y-34000000D02*
X73000000Y-35500000D01*
D58*
X157500000Y-130937500D02*
X157500000Y-133500000D01*
X152500000Y-120000000D02*
X152500000Y-120000722D01*
X150450000Y-123700000D02*
X149750000Y-123000000D01*
X157471601Y-135215321D02*
X157407802Y-135215321D01*
%TO.N,Net-(BOOT1-Pad2)*%
X159500000Y-109550012D02*
X160900007Y-108150005D01*
X160900007Y-101850016D02*
X160899996Y-101850005D01*
X160900007Y-108150005D02*
X160900007Y-101850016D01*
X159500000Y-109990000D02*
X159500000Y-109550012D01*
%TO.N,+5V*%
X76500000Y-120250000D02*
X79750000Y-120250000D01*
X75750000Y-113352056D02*
X75750000Y-119500000D01*
X79750000Y-120250000D02*
X82297318Y-117702682D01*
X64750000Y-41612317D02*
X64750000Y-52807943D01*
X67043765Y-39318552D02*
X64625213Y-36900000D01*
X75750000Y-119500000D02*
X76500000Y-120250000D01*
X89088994Y-117702682D02*
X90377682Y-117702682D01*
X66245000Y-54302943D02*
X66245000Y-103847056D01*
X65400000Y-36000000D02*
X64500000Y-36900000D01*
X67043765Y-39318552D02*
X64750000Y-41612317D01*
X82297318Y-117702682D02*
X89088994Y-117702682D01*
X64625213Y-36900000D02*
X64500000Y-36900000D01*
X64750000Y-52807943D02*
X66245000Y-54302943D01*
X66245000Y-103847056D02*
X75750000Y-113352056D01*
X68825000Y-36000000D02*
X65400000Y-36000000D01*
X90377682Y-117702682D02*
X90725000Y-118050000D01*
%TO.N,+3V3*%
X94507448Y-117754044D02*
X95117452Y-117144040D01*
X153900000Y-124500000D02*
X153900000Y-124062500D01*
X157000000Y-111010000D02*
X160500000Y-114510000D01*
X156300000Y-134820955D02*
X156300000Y-130937500D01*
X94507448Y-117754044D02*
X94245956Y-117754044D01*
X155900000Y-122600000D02*
X155904660Y-122595340D01*
X161500000Y-124900000D02*
X161500000Y-124500000D01*
X153437552Y-123294326D02*
X151999998Y-121856772D01*
X159000000Y-128500000D02*
X159000000Y-129500000D01*
D60*
X125000000Y-119000000D02*
X127500000Y-121500000D01*
D58*
X156250000Y-130000000D02*
X154500000Y-130000000D01*
X155900000Y-124062500D02*
X155900000Y-124800000D01*
X95117452Y-117144040D02*
X95117452Y-69632548D01*
X87750000Y-41500000D02*
X84999999Y-38749999D01*
D60*
X94507448Y-117754044D02*
X94554300Y-117754044D01*
D58*
X159250000Y-117250000D02*
X160500000Y-116000000D01*
X159000000Y-124900000D02*
X159937500Y-124900000D01*
D60*
X126760000Y-122240000D02*
X123000000Y-122240000D01*
D58*
X159937500Y-124900000D02*
X161500000Y-124900000D01*
X154000000Y-129500000D02*
X154000000Y-128500000D01*
X158500000Y-130000000D02*
X156250000Y-130000000D01*
X95117452Y-69632548D02*
X95250000Y-69500000D01*
X156300000Y-124700000D02*
X156500000Y-124900000D01*
X153900000Y-123294326D02*
X154300000Y-123694326D01*
X156300000Y-123300000D02*
X156000000Y-123000000D01*
D60*
X137500000Y-121500000D02*
X138500000Y-122500000D01*
D58*
X84999999Y-38749999D02*
X84999999Y-35000000D01*
X160500001Y-115520000D02*
X162325000Y-115520000D01*
X155904660Y-122595340D02*
X155904660Y-120026598D01*
D60*
X95800256Y-119000000D02*
X125000000Y-119000000D01*
D58*
X153900000Y-123294326D02*
X153437552Y-123294326D01*
X155900000Y-124062500D02*
X155900000Y-122600000D01*
X154300000Y-124600000D02*
X154300000Y-124062500D01*
X156300000Y-124062500D02*
X156300000Y-124700000D01*
D60*
X151800000Y-123700000D02*
X152950000Y-124850000D01*
X151800000Y-122750000D02*
X151800000Y-122056770D01*
D58*
X153062500Y-128500000D02*
X154000000Y-128500000D01*
D60*
X139500000Y-123000000D02*
X147854374Y-123000000D01*
D58*
X154300000Y-123694326D02*
X154300000Y-124062500D01*
X159937500Y-128500000D02*
X159000000Y-128500000D01*
X156300000Y-130937500D02*
X156300000Y-130050000D01*
X153500000Y-124900000D02*
X153900000Y-124500000D01*
X156500000Y-124900000D02*
X159000000Y-124900000D01*
D60*
X151800000Y-123700000D02*
X151800000Y-122750000D01*
D58*
X161500000Y-124500000D02*
X161500000Y-123250000D01*
X151231145Y-128500000D02*
X151230000Y-128498855D01*
X160500000Y-116000000D02*
X160500000Y-115500000D01*
X153062500Y-124900000D02*
X153500000Y-124900000D01*
X155960365Y-135160590D02*
X156300000Y-134820955D01*
X156300000Y-124062500D02*
X156300000Y-123300000D01*
X155900000Y-124800000D02*
X156000000Y-124900000D01*
X159937500Y-128500000D02*
X162520001Y-128499999D01*
D60*
X148702601Y-122151773D02*
X151201773Y-122151773D01*
D58*
X156000000Y-124900000D02*
X156500000Y-124900000D01*
X162325000Y-115520000D02*
X162400000Y-115595000D01*
X156300000Y-130050000D02*
X156250000Y-130000000D01*
D60*
X127750000Y-121500000D02*
X127500000Y-121500000D01*
D58*
X162120000Y-124900000D02*
X162520001Y-124499999D01*
D60*
X127750000Y-121500000D02*
X137500000Y-121500000D01*
D58*
X161500000Y-124900000D02*
X162120000Y-124900000D01*
D60*
X139000000Y-122500000D02*
X139500000Y-123000000D01*
D58*
X159000000Y-129500000D02*
X158500000Y-130000000D01*
X153500000Y-124900000D02*
X154000000Y-124900000D01*
D60*
X151201773Y-122151773D02*
X151800000Y-122750000D01*
D58*
X160500000Y-114510000D02*
X160500000Y-115500000D01*
X95250000Y-69500000D02*
X95117452Y-69367452D01*
D60*
X94554300Y-117754044D02*
X95800256Y-119000000D01*
D58*
X154500000Y-130000000D02*
X154000000Y-129500000D01*
X94245956Y-117754044D02*
X93000000Y-119000000D01*
X154000000Y-128500000D02*
X154000000Y-124900000D01*
D60*
X127500000Y-121500000D02*
X126760000Y-122240000D01*
X147854374Y-123000000D02*
X148702601Y-122151773D01*
D58*
X87750000Y-43000000D02*
X87750000Y-41500000D01*
X153062500Y-128500000D02*
X151231145Y-128500000D01*
D60*
X138500000Y-122500000D02*
X139000000Y-122500000D01*
D58*
X154000000Y-124900000D02*
X154300000Y-124600000D01*
D60*
X151800000Y-122056770D02*
X151999998Y-121856772D01*
D58*
X153900000Y-124062500D02*
X153900000Y-123294326D01*
X159000000Y-124900000D02*
X159000000Y-128500000D01*
X154000000Y-124900000D02*
X156000000Y-124900000D01*
%TO.N,XIN*%
X159750000Y-136500000D02*
X159750000Y-137452079D01*
X159939288Y-138383663D02*
X159378852Y-137823227D01*
X157100000Y-130937500D02*
X157100000Y-133850000D01*
X159939288Y-139275737D02*
X159939288Y-138383663D01*
X159750000Y-137452079D02*
X159378852Y-137823227D01*
X157100000Y-133850000D02*
X159750000Y-136500000D01*
%TO.N,Net-(C4-Pad2)*%
X156051773Y-136784244D02*
X156051773Y-137607398D01*
X155777527Y-139550699D02*
X155777527Y-139020394D01*
X155777527Y-139020394D02*
X156621148Y-138176773D01*
X156051773Y-137607398D02*
X156621148Y-138176773D01*
%TO.N,+1V1*%
X157994187Y-120005813D02*
X157204711Y-120005813D01*
X158500000Y-119500000D02*
X157994187Y-120005813D01*
X155900000Y-132600000D02*
X155900000Y-130937500D01*
X155250000Y-134428379D02*
X155228191Y-134450188D01*
X154700000Y-124062500D02*
X154700000Y-123528640D01*
X153028132Y-121856772D02*
X152999996Y-121856772D01*
X156700000Y-120510524D02*
X156700000Y-124062500D01*
X154700000Y-123528640D02*
X153028132Y-121856772D01*
X155250000Y-133250000D02*
X155250000Y-134428379D01*
X154000000Y-121856772D02*
X152999996Y-121856772D01*
X155250000Y-133250000D02*
X155900000Y-132600000D01*
X157204711Y-120005813D02*
X156700000Y-120510524D01*
%TO.N,Net-(D2-A)*%
X79950003Y-52687496D02*
X80100000Y-52537499D01*
X79950003Y-55476499D02*
X79950003Y-52687496D01*
%TO.N,Net-(D3-A)*%
X118050003Y-52687496D02*
X118200000Y-52537499D01*
X118050003Y-55476499D02*
X118050003Y-52687496D01*
%TO.N,Net-(D4-A)*%
X137100003Y-57762500D02*
X137100003Y-54973497D01*
X137100003Y-54973497D02*
X137250000Y-54823500D01*
%TO.N,Net-(D5-A)*%
X156150003Y-54973497D02*
X156300000Y-54823500D01*
X156150003Y-57762500D02*
X156150003Y-54973497D01*
%TO.N,Net-(D6-A)*%
X175200003Y-57762500D02*
X175200003Y-54973497D01*
X175200003Y-54973497D02*
X175350000Y-54823500D01*
%TO.N,Net-(D7-A)*%
X54000000Y-61850000D02*
X54000000Y-60009999D01*
X54000000Y-60009999D02*
X53490000Y-59499999D01*
%TO.N,Net-(D8-A)*%
X60900001Y-57449998D02*
X61050000Y-57299999D01*
X60900001Y-60850001D02*
X60900001Y-57449998D01*
%TO.N,Net-(D10-A)*%
X79950003Y-74526499D02*
X79950003Y-71737496D01*
X79950003Y-71737496D02*
X80100000Y-71587499D01*
%TO.N,Net-(D11-A)*%
X118050003Y-74526499D02*
X118050003Y-71737496D01*
X118050003Y-71737496D02*
X118200000Y-71587499D01*
%TO.N,Net-(D12-A)*%
X137100003Y-74023497D02*
X137250000Y-73873500D01*
X137100003Y-76812500D02*
X137100003Y-74023497D01*
%TO.N,Net-(D13-A)*%
X156150003Y-76812500D02*
X156150003Y-74023497D01*
X156150003Y-74023497D02*
X156300000Y-73873500D01*
%TO.N,Net-(D14-A)*%
X175200000Y-74023500D02*
X175350000Y-73873500D01*
X175200000Y-76812498D02*
X175200000Y-74023500D01*
%TO.N,Net-(D15-A)*%
X54000000Y-80850000D02*
X54000000Y-79060000D01*
X54000000Y-79060000D02*
X53490000Y-78550000D01*
%TO.N,Net-(D16-A)*%
X60900003Y-76499997D02*
X61050000Y-76350000D01*
X60900003Y-79289000D02*
X60900003Y-76499997D01*
%TO.N,Net-(D17-A)*%
X99000003Y-88310997D02*
X99150000Y-88161000D01*
X99000003Y-91100000D02*
X99000003Y-88310997D01*
%TO.N,Net-(D18-A)*%
X79950003Y-93576500D02*
X79950003Y-90787497D01*
X79950003Y-90787497D02*
X80100000Y-90637500D01*
%TO.N,Net-(D19-A)*%
X118050003Y-90787497D02*
X118200000Y-90637500D01*
X118050003Y-93576500D02*
X118050003Y-90787497D01*
%TO.N,Net-(D20-A)*%
X137100003Y-95862500D02*
X137100003Y-93073497D01*
X137100003Y-93073497D02*
X137250000Y-92923500D01*
%TO.N,Net-(D21-A)*%
X156150003Y-93073497D02*
X156300000Y-92923500D01*
X156150003Y-95862500D02*
X156150003Y-93073497D01*
%TO.N,Net-(D22-A)*%
X54000000Y-98110000D02*
X53490000Y-97600000D01*
X54000000Y-99850000D02*
X54000000Y-98110000D01*
%TO.N,Net-(D23-A)*%
X60900003Y-95549997D02*
X61050000Y-95400000D01*
X60900003Y-98339000D02*
X60900003Y-95549997D01*
%TO.N,Net-(D24-A)*%
X99000003Y-110150000D02*
X99000003Y-107360997D01*
X99000003Y-107360997D02*
X99150000Y-107211000D01*
%TO.N,Net-(D25-A)*%
X79950003Y-112626500D02*
X79950003Y-109837497D01*
X79950003Y-109837497D02*
X80100000Y-109687500D01*
%TO.N,Net-(D26-A)*%
X118050003Y-112626500D02*
X118050003Y-109837497D01*
X118050003Y-109837497D02*
X118200000Y-109687500D01*
%TO.N,Net-(D27-A)*%
X137000001Y-112223499D02*
X137250000Y-111973500D01*
X137000001Y-114912495D02*
X137000001Y-112223499D01*
%TO.N,Net-(D28-A)*%
X53500000Y-119200000D02*
X53500000Y-116660000D01*
X53500000Y-116660000D02*
X53490000Y-116650000D01*
%TO.N,Net-(D29-A)*%
X60900003Y-117389000D02*
X60900003Y-114599997D01*
X60900003Y-114599997D02*
X61050000Y-114450000D01*
%TO.N,Net-(D30-A)*%
X175593778Y-106093778D02*
X174572951Y-106093778D01*
X176894657Y-107394657D02*
X175593778Y-106093778D01*
X176894657Y-110511741D02*
X176894657Y-107394657D01*
%TO.N,Net-(D31-A)*%
X184842510Y-115664135D02*
X184842510Y-110370599D01*
X182564029Y-117942616D02*
X184842510Y-115664135D01*
%TO.N,Net-(D32-A)*%
X110838623Y-131342995D02*
X110838623Y-128659623D01*
X110838623Y-128659623D02*
X110640000Y-128461000D01*
%TO.N,Net-(D33-A)*%
X54340002Y-134849998D02*
X53490000Y-135700000D01*
X57000004Y-134849998D02*
X54340002Y-134849998D01*
%TO.N,Net-(D34-A)*%
X75150001Y-135700000D02*
X76000001Y-134850000D01*
X72540000Y-135700000D02*
X75150001Y-135700000D01*
%TO.N,Net-(D35-A)*%
X95500004Y-134849998D02*
X92440002Y-134849998D01*
X92440002Y-134849998D02*
X91590000Y-135700000D01*
%TO.N,Net-(D36-A)*%
X144253052Y-127716220D02*
X143677818Y-127140986D01*
X144253052Y-130849999D02*
X144253052Y-127716220D01*
D60*
%TO.N,VBUS*%
X70394700Y-28500000D02*
X72130000Y-30235300D01*
X67230000Y-31094998D02*
X67230000Y-32119998D01*
X68965305Y-28500000D02*
X70394700Y-28500000D01*
X67230000Y-32119998D02*
X65249998Y-34100000D01*
X65249998Y-34100000D02*
X64500000Y-34100000D01*
X72130000Y-30235300D02*
X72130000Y-31094998D01*
X67230000Y-30235305D02*
X68965305Y-28500000D01*
X67230000Y-31094998D02*
X67230000Y-30235305D01*
D58*
%TO.N,Net-(J1-CC1)*%
X68430002Y-33108878D02*
X68435685Y-33114561D01*
X68430002Y-31094996D02*
X68430002Y-33108878D01*
%TO.N,D-*%
X154225020Y-91457948D02*
X154225020Y-114244127D01*
X68930000Y-31930000D02*
X69500000Y-32500000D01*
X69500000Y-32500000D02*
X69802716Y-32802716D01*
X123406800Y-62975000D02*
X126219299Y-65787499D01*
X71750000Y-55500000D02*
X79225000Y-62975000D01*
X154225020Y-114244127D02*
X154750000Y-114769107D01*
X71750000Y-49318200D02*
X71750000Y-55500000D01*
X69802716Y-34072284D02*
X69802716Y-38559601D01*
X147545000Y-70295000D02*
X152750000Y-75500000D01*
X68930000Y-31094998D02*
X68930000Y-31930000D01*
X69802716Y-34072284D02*
X68824999Y-35050001D01*
X69930001Y-32069999D02*
X69930001Y-31094999D01*
X69802716Y-38559601D02*
X69043765Y-39318552D01*
X126219299Y-65787499D02*
X131592056Y-65787499D01*
X147545000Y-69274362D02*
X147545000Y-70295000D01*
X69818764Y-40093551D02*
X69818764Y-47386964D01*
X152750000Y-89982928D02*
X154225020Y-91457948D01*
X152750000Y-75500000D02*
X152750000Y-89982928D01*
X154750000Y-114769107D02*
X154750000Y-115249108D01*
X69252715Y-35050001D02*
X68824999Y-35050001D01*
X69043765Y-39318552D02*
X69818764Y-40093551D01*
X146245638Y-67975000D02*
X147545000Y-69274362D01*
X133779557Y-67975000D02*
X146245638Y-67975000D01*
X69802716Y-32802716D02*
X69802716Y-34072284D01*
X131592056Y-65787499D02*
X133779557Y-67975000D01*
X69818764Y-47386964D02*
X71750000Y-49318200D01*
X69500000Y-32500000D02*
X69930001Y-32069999D01*
X79225000Y-62975000D02*
X123406800Y-62975000D01*
%TO.N,D+*%
X147945000Y-70129315D02*
X153150000Y-75334315D01*
X70202716Y-38477503D02*
X71043765Y-39318552D01*
X70268766Y-47200566D02*
X72150000Y-49081800D01*
X155814639Y-114769107D02*
X155814639Y-115249108D01*
X126405719Y-65337519D02*
X131778444Y-65337519D01*
X70430003Y-32409744D02*
X70430003Y-31094996D01*
X154675000Y-91342242D02*
X154675000Y-113629468D01*
X70268766Y-40093551D02*
X70268766Y-47200566D01*
X70202716Y-32637031D02*
X70430003Y-32409744D01*
X72150000Y-55334314D02*
X79340686Y-62525000D01*
X71043765Y-39318552D02*
X70268766Y-40093551D01*
X153150000Y-75334315D02*
X153150000Y-89817242D01*
X133600000Y-67159075D02*
X133600000Y-67165686D01*
X70202716Y-35397285D02*
X70202716Y-38477503D01*
X79340686Y-62525000D02*
X123593200Y-62525000D01*
X154675000Y-113629468D02*
X155814639Y-114769107D01*
X71174999Y-35050001D02*
X70202716Y-34077718D01*
X145025000Y-67525000D02*
X145075000Y-67575000D01*
X69430002Y-30119998D02*
X69550000Y-30000000D01*
X71174999Y-35050001D02*
X70550000Y-35050001D01*
X133959315Y-67525000D02*
X145025000Y-67525000D01*
X70430003Y-30120001D02*
X70430003Y-31094996D01*
X72150000Y-49081800D02*
X72150000Y-55334314D01*
X70550000Y-35050001D02*
X70202716Y-35397285D01*
X69550000Y-30000000D02*
X70310002Y-30000000D01*
X123593200Y-62525000D02*
X126405719Y-65337519D01*
X70310002Y-30000000D02*
X70430003Y-30120001D01*
X153150000Y-89817242D02*
X154675000Y-91342242D01*
X133600000Y-67165686D02*
X133959315Y-67525000D01*
X145075000Y-67575000D02*
X146411323Y-67575000D01*
X131778444Y-65337519D02*
X133600000Y-67159075D01*
X147945000Y-69108677D02*
X147945000Y-70129315D01*
X69430002Y-31094997D02*
X69430002Y-30119998D01*
X146411323Y-67575000D02*
X147945000Y-69108677D01*
X70202716Y-34077718D02*
X70202716Y-32637031D01*
X70995209Y-34870211D02*
X71174999Y-35050001D01*
%TO.N,Net-(J1-CC2)*%
X71429998Y-31094998D02*
X71429998Y-33143737D01*
X71429998Y-33143737D02*
X71429659Y-33144076D01*
%TO.N,RESET*%
X154700000Y-132810050D02*
X154700000Y-130937500D01*
X123000000Y-126175000D02*
X123000000Y-123260000D01*
X152250000Y-135250000D02*
X152260050Y-135250000D01*
X152260050Y-135250000D02*
X154700000Y-132810050D01*
X121259997Y-122490000D02*
X120899996Y-122850001D01*
X123000000Y-123260000D02*
X121309995Y-123260000D01*
X120900004Y-122850009D02*
X120899996Y-122850001D01*
X121309995Y-123260000D02*
X120899996Y-122850001D01*
X126500000Y-131050000D02*
X126500000Y-129675000D01*
X120900004Y-129150002D02*
X120900004Y-122850009D01*
X126500000Y-129675000D02*
X123000000Y-126175000D01*
%TO.N,Net-(R4-Pad1)*%
X158191781Y-109990000D02*
X158210551Y-110008770D01*
X157000000Y-109990000D02*
X158191781Y-109990000D01*
%TO.N,Q_SEL*%
X172050000Y-120831372D02*
X172050000Y-117300000D01*
X172050000Y-117300000D02*
X170345000Y-115595000D01*
X162740000Y-114250000D02*
X168255000Y-114250000D01*
X160123873Y-121873872D02*
X171007500Y-121873872D01*
X159100000Y-124062500D02*
X159100000Y-122897745D01*
X158210551Y-111028770D02*
X159481230Y-111028770D01*
X159500000Y-111010000D02*
X162740000Y-114250000D01*
X170345000Y-115595000D02*
X169600000Y-115595000D01*
X159100000Y-122897745D02*
X160123873Y-121873872D01*
X159481230Y-111028770D02*
X159500000Y-111010000D01*
X171007500Y-121873872D02*
X172050000Y-120831372D01*
X168255000Y-114250000D02*
X169600000Y-115595000D01*
%TO.N,XOUT*%
X156700000Y-135989971D02*
X156700000Y-130937500D01*
X156773025Y-136062996D02*
X156700000Y-135989971D01*
%TO.N,Net-(U3-USB_DP)*%
X155504660Y-121000000D02*
X155500000Y-121004660D01*
X155814639Y-116269108D02*
X155294660Y-116789087D01*
X155294660Y-116789087D02*
X155294660Y-120790000D01*
X155500000Y-121004660D02*
X155500000Y-124062500D01*
X155294660Y-120790000D02*
X155504660Y-121000000D01*
%TO.N,Net-(U3-USB_DM)*%
X154750000Y-120948451D02*
X155100000Y-121298451D01*
X155100000Y-121298451D02*
X155100000Y-121500000D01*
X154750000Y-116269108D02*
X154750000Y-120948451D01*
X155100000Y-121500000D02*
X155100000Y-124000000D01*
%TO.N,LED1*%
X161500000Y-129250000D02*
X164989950Y-129250000D01*
X179750000Y-106014998D02*
X182500001Y-103264997D01*
X177000000Y-122273872D02*
X177000000Y-114250000D01*
X177000000Y-122273872D02*
X175023872Y-124250000D01*
X177000000Y-114250000D02*
X179750000Y-111500000D01*
X179750000Y-111500000D02*
X179750000Y-106014998D01*
X168610203Y-125266006D02*
X169626209Y-124250000D01*
X164989950Y-129250000D02*
X168610203Y-125629747D01*
X175023872Y-124250000D02*
X169626209Y-124250000D01*
X168610203Y-125629747D02*
X168610203Y-125266006D01*
X159937500Y-128900000D02*
X161150000Y-128900000D01*
X161150000Y-128900000D02*
X161500000Y-129250000D01*
%TO.N,Q_IO0*%
X160895687Y-119405000D02*
X157900000Y-122400687D01*
X162400000Y-119405000D02*
X160895687Y-119405000D01*
X157900000Y-122400687D02*
X157900000Y-124062500D01*
%TO.N,Q_IO3*%
X157500000Y-121250000D02*
X157100000Y-121650000D01*
X157844448Y-121250000D02*
X157500000Y-121250000D01*
X157100000Y-121650000D02*
X157100000Y-124062500D01*
X162400000Y-116865000D02*
X162229448Y-116865000D01*
X162229448Y-116865000D02*
X157844448Y-121250000D01*
%TO.N,en_B*%
X161771360Y-131000000D02*
X160471360Y-129700000D01*
X172111467Y-129870183D02*
X172170183Y-129850000D01*
X174400000Y-129850000D02*
X177800000Y-126450000D01*
X180650000Y-109665686D02*
X184407843Y-105907843D01*
X172170183Y-129850000D02*
X174400000Y-129850000D01*
X184407843Y-105907843D02*
X189342157Y-105907843D01*
X177800000Y-126450000D02*
X177800000Y-114750000D01*
X164451357Y-131000000D02*
X161771360Y-131000000D01*
X177800000Y-114750000D02*
X180650000Y-111900000D01*
X160471360Y-129700000D02*
X159937500Y-129700000D01*
X164506706Y-130944651D02*
X164451357Y-131000000D01*
X191649997Y-103600003D02*
X191649997Y-92000014D01*
X172150000Y-129850000D02*
X172129817Y-129850000D01*
X189342157Y-105907843D02*
X191649997Y-103600003D01*
X172129817Y-129850000D02*
X172111467Y-129870183D01*
X180650000Y-111900000D02*
X180650000Y-109665686D01*
%TO.N,en_A*%
X181050000Y-109831372D02*
X181050000Y-112065686D01*
X191649997Y-87000011D02*
X192949997Y-88300011D01*
X176892166Y-128149998D02*
X174292164Y-130750000D01*
X160000000Y-130162500D02*
X159937500Y-130100000D01*
X192049997Y-103765689D02*
X189507842Y-106307843D01*
X192049997Y-95000000D02*
X192049997Y-103765689D01*
X178200000Y-114915686D02*
X178200000Y-126984314D01*
X174292164Y-130750000D02*
X174250000Y-130750000D01*
X192949997Y-88300011D02*
X192949997Y-94100000D01*
X192949997Y-94100000D02*
X192049997Y-95000000D01*
X160750000Y-131750000D02*
X160000000Y-131000000D01*
X165099510Y-131750000D02*
X160750000Y-131750000D01*
X189507842Y-106307843D02*
X184573529Y-106307843D01*
X177034316Y-128149998D02*
X176892166Y-128149998D01*
X178200000Y-126984314D02*
X177034316Y-128149998D01*
X184573529Y-106307843D02*
X181050000Y-109831372D01*
X160000000Y-131000000D02*
X160000000Y-130162500D01*
X181050000Y-112065686D02*
X178200000Y-114915686D01*
%TO.N,RX0*%
X152050000Y-125700000D02*
X153062500Y-125700000D01*
X126571405Y-64937519D02*
X131944130Y-64937519D01*
X81000000Y-35000001D02*
X81000000Y-41300000D01*
X150065686Y-71684315D02*
X153550000Y-75168630D01*
X146527009Y-67125000D02*
X148345000Y-68942991D01*
X134000000Y-67000000D02*
X134125000Y-67125000D01*
X153550000Y-88700000D02*
X153550000Y-88750000D01*
X147910050Y-125150000D02*
X151500000Y-125150000D01*
X148345000Y-69000000D02*
X148345000Y-69963629D01*
X151500000Y-125150000D02*
X152050000Y-125700000D01*
X72550000Y-55168628D02*
X73315686Y-55934314D01*
X147130025Y-124369975D02*
X147910050Y-125150000D01*
X153550000Y-78000000D02*
X153550000Y-88700000D01*
X135500000Y-67125000D02*
X146527009Y-67125000D01*
X134125000Y-67125000D02*
X135500000Y-67125000D01*
X81000000Y-41300000D02*
X72550000Y-49750000D01*
X73315686Y-55934314D02*
X79506372Y-62125000D01*
X81250000Y-62125000D02*
X123758886Y-62125000D01*
X134000000Y-66993389D02*
X134000000Y-67000000D01*
X153550000Y-88750000D02*
X153750000Y-88750000D01*
X148345000Y-69963629D02*
X150065686Y-71684315D01*
X153750000Y-88750000D02*
X154250000Y-89250000D01*
X72550000Y-49750000D02*
X72550000Y-55168628D01*
X131944130Y-64937519D02*
X134000000Y-66993389D01*
X123758886Y-62125000D02*
X126571405Y-64937519D01*
X153550000Y-75168630D02*
X153550000Y-78000000D01*
X148345000Y-68942991D02*
X148345000Y-69000000D01*
X79506372Y-62125000D02*
X81250000Y-62125000D01*
%TO.N,Q_IO1*%
X160032059Y-121400000D02*
X158700000Y-122732059D01*
X171650000Y-117900000D02*
X171650000Y-120665686D01*
X169600000Y-116865000D02*
X170615000Y-116865000D01*
X158700000Y-122732059D02*
X158700000Y-124000000D01*
X171650000Y-120665686D02*
X170915685Y-121400000D01*
X171500000Y-117750000D02*
X171650000Y-117900000D01*
X170615000Y-116865000D02*
X171500000Y-117750000D01*
X170915685Y-121400000D02*
X165250000Y-121400000D01*
X165250000Y-121400000D02*
X160032059Y-121400000D01*
%TO.N,Q_IO2*%
X170750000Y-121000000D02*
X171250000Y-120500000D01*
X171250000Y-119000000D02*
X170385000Y-118135000D01*
X158300000Y-122566373D02*
X159866373Y-121000000D01*
X170385000Y-118135000D02*
X169600000Y-118135000D01*
X159866373Y-121000000D02*
X170750000Y-121000000D01*
X171250000Y-120500000D02*
X171250000Y-119000000D01*
X158300000Y-124062500D02*
X158300000Y-122566373D01*
%TO.N,Q_CLK*%
X157500000Y-122235001D02*
X157500000Y-124062500D01*
X162400000Y-118135000D02*
X161600001Y-118135000D01*
X161600001Y-118135000D02*
X157500000Y-122235001D01*
%TO.N,TX0*%
X80057843Y-42807843D02*
X72950000Y-49915686D01*
X154000000Y-87500000D02*
X155250000Y-88750000D01*
X132312519Y-64537519D02*
X134500000Y-66725000D01*
X153950000Y-75002945D02*
X153950000Y-87500000D01*
X124187481Y-61725000D02*
X127000000Y-64537519D01*
X79750000Y-61725000D02*
X124187481Y-61725000D01*
X127000000Y-64537519D02*
X132312519Y-64537519D01*
X134500000Y-66725000D02*
X146692695Y-66725000D01*
X150500000Y-124750000D02*
X152000000Y-124750000D01*
X82999995Y-34999999D02*
X82999995Y-39865691D01*
X79675000Y-61725000D02*
X79750000Y-61725000D01*
X72950000Y-55000000D02*
X79675000Y-61725000D01*
X150848528Y-71901472D02*
X153950000Y-75002945D01*
X146692695Y-66725000D02*
X148973529Y-69005834D01*
X150000000Y-124250000D02*
X150500000Y-124750000D01*
X148973529Y-70026472D02*
X150848528Y-71901472D01*
X72950000Y-49915686D02*
X72950000Y-55000000D01*
X152000000Y-124750000D02*
X152000000Y-124771360D01*
X148973529Y-69005834D02*
X148973529Y-70026472D01*
X152000000Y-124771360D02*
X152528640Y-125300000D01*
X152528640Y-125300000D02*
X153062500Y-125300000D01*
X82999995Y-39865691D02*
X80057843Y-42807843D01*
X153950000Y-87500000D02*
X154000000Y-87500000D01*
X149250000Y-124250000D02*
X150000000Y-124250000D01*
%TO.N,Net-(D1-A)*%
X99000000Y-53000000D02*
X99000000Y-50211000D01*
X99000000Y-50211000D02*
X99150000Y-50061000D01*
%TO.N,Net-(D9-A)*%
X99000003Y-72050000D02*
X99000003Y-69260997D01*
X99000003Y-69260997D02*
X99150000Y-69111000D01*
%TO.N,LED2*%
X174653448Y-129030866D02*
X170530866Y-129030866D01*
X170451834Y-128951834D02*
X170421100Y-128951834D01*
X186485003Y-103264997D02*
X189000003Y-103264997D01*
X177400000Y-126100000D02*
X177400000Y-114415686D01*
X170421100Y-128951834D02*
X170421100Y-128921100D01*
X160637045Y-129300000D02*
X159937500Y-129300000D01*
X176467157Y-127217157D02*
X174653448Y-129030866D01*
X177250000Y-126434314D02*
X176467157Y-127217157D01*
X177250000Y-126250000D02*
X177400000Y-126100000D01*
X161637046Y-130300000D02*
X160637045Y-129300000D01*
X180250000Y-111565686D02*
X180250000Y-109500000D01*
X163000000Y-130300000D02*
X161637046Y-130300000D01*
X170421100Y-128921100D02*
X170500000Y-129000000D01*
X180250000Y-109500000D02*
X186485003Y-103264997D01*
X170530866Y-129030866D02*
X170451834Y-128951834D01*
X177250000Y-126250000D02*
X177250000Y-126434314D01*
X177400000Y-114415686D02*
X180250000Y-111565686D01*
%TO.N,Net-(D37-A)*%
X179150000Y-94000021D02*
X177149997Y-92000018D01*
X179150000Y-97500002D02*
X179150000Y-94000021D01*
%TO.N,Net-(D38-A)*%
X168250002Y-128461909D02*
X170470912Y-126240999D01*
X168250002Y-133099997D02*
X168250002Y-128461909D01*
%TO.N,C1*%
X70352717Y-134000000D02*
X76498697Y-134000000D01*
X143599999Y-133400001D02*
X153544363Y-133400001D01*
X54600000Y-137650000D02*
X56650002Y-135599998D01*
X70102717Y-133750000D02*
X70352717Y-134000000D01*
X110239919Y-133892999D02*
X143107001Y-133892999D01*
X153544363Y-133400001D02*
X154300000Y-132644364D01*
X83500000Y-137000000D02*
X88250000Y-132250000D01*
X79498697Y-137000000D02*
X83500000Y-137000000D01*
X43000000Y-56299999D02*
X42000000Y-57299999D01*
X143107001Y-133892999D02*
X143599999Y-133400001D01*
X76498697Y-134000000D02*
X79498697Y-137000000D01*
X56650002Y-135599998D02*
X65400002Y-135599998D01*
X49395000Y-137650000D02*
X54600000Y-137650000D01*
X65400002Y-135599998D02*
X67250000Y-133750000D01*
X42000000Y-76350000D02*
X42000000Y-57299999D01*
X67250000Y-133750000D02*
X70102717Y-133750000D01*
X42000000Y-95400000D02*
X42000000Y-114450000D01*
X88250000Y-132250000D02*
X108596920Y-132250000D01*
X108596920Y-132250000D02*
X110239919Y-133892999D01*
X42000000Y-114450000D02*
X42000000Y-133500000D01*
X154300000Y-132644364D02*
X154300000Y-130937500D01*
X43000000Y-42446388D02*
X43000000Y-56299999D01*
X45245000Y-133500000D02*
X49395000Y-137650000D01*
X42000000Y-76350000D02*
X42000000Y-95400000D01*
%TO.N,C2*%
X153900000Y-130937500D02*
X153900000Y-132478678D01*
X74864383Y-131800000D02*
X62750000Y-131800000D01*
X153900000Y-132478678D02*
X153378677Y-133000001D01*
X61050000Y-127950000D02*
X61050000Y-133500000D01*
X72540000Y-78550000D02*
X72540000Y-97600000D01*
X72540000Y-58290000D02*
X72540000Y-59499999D01*
X142941315Y-133492999D02*
X110405605Y-133492999D01*
X72350000Y-116650000D02*
X61050000Y-127950000D01*
X79664383Y-136600000D02*
X74864383Y-131800000D01*
X72540000Y-97600000D02*
X72527981Y-107798165D01*
X143434313Y-133000001D02*
X142941315Y-133492999D01*
X72527981Y-107798165D02*
X72540000Y-107793364D01*
X72540000Y-59499999D02*
X72540000Y-78550000D01*
X72503363Y-112962996D02*
X72540000Y-112999633D01*
X153378677Y-133000001D02*
X143434313Y-133000001D01*
X110405605Y-133492999D02*
X108762606Y-131850000D01*
X62750000Y-131800000D02*
X61050000Y-133500000D01*
X72540000Y-112999633D02*
X72540000Y-116650000D01*
X108762606Y-131850000D02*
X88084314Y-131850000D01*
X88084314Y-131850000D02*
X83334314Y-136600000D01*
X83334314Y-136600000D02*
X79664383Y-136600000D01*
X70500000Y-56250000D02*
X72540000Y-58290000D01*
X72540000Y-116650000D02*
X72350000Y-116650000D01*
%TO.N,C3*%
X81500000Y-131250000D02*
X80100000Y-132650000D01*
X80500000Y-124250000D02*
X80500000Y-130500000D01*
X91590000Y-113660000D02*
X90750000Y-114500000D01*
X80500000Y-130500000D02*
X80100000Y-130900000D01*
X84000000Y-120750000D02*
X80500000Y-124250000D01*
X152000000Y-132600001D02*
X143268627Y-132600001D01*
X80100000Y-130900000D02*
X80100000Y-133500000D01*
X90250000Y-114500000D02*
X90000000Y-114750000D01*
X91750000Y-63750000D02*
X91590000Y-63910000D01*
X90000000Y-114750000D02*
X87000000Y-114750000D01*
X142809314Y-133059314D02*
X110537605Y-133059314D01*
X86000000Y-120000000D02*
X85250000Y-120750000D01*
X85750000Y-116500000D02*
X85750000Y-116500000D01*
X110537605Y-133059314D02*
X108928291Y-131450000D01*
X80100000Y-132650000D02*
X80100000Y-133500000D01*
X85250000Y-120750000D02*
X84000000Y-120750000D01*
X87000000Y-114750000D02*
X86750000Y-115000000D01*
X86000000Y-116250000D02*
X86000000Y-116500000D01*
X86800000Y-127700000D02*
X83250000Y-131250000D01*
X94750000Y-127700000D02*
X86800000Y-127700000D01*
X91590000Y-57500000D02*
X91590000Y-54737499D01*
X153062500Y-130100000D02*
X153062500Y-131537501D01*
X83250000Y-131250000D02*
X81500000Y-131250000D01*
X153062500Y-131537501D02*
X152000000Y-132600001D01*
X91590000Y-40090000D02*
X89500000Y-38000000D01*
X91590000Y-54737499D02*
X91590000Y-40090000D01*
X91590000Y-73787499D02*
X91590000Y-92837500D01*
X86750000Y-115000000D02*
X86750000Y-115500000D01*
X143268627Y-132600001D02*
X142809314Y-133059314D01*
X91590000Y-92837500D02*
X91590000Y-111887500D01*
X108928291Y-131450000D02*
X98500000Y-131450000D01*
X98500000Y-131450000D02*
X94750000Y-127700000D01*
X86750000Y-115500000D02*
X86000000Y-116250000D01*
X91590000Y-63910000D02*
X91590000Y-73787499D01*
X90750000Y-114500000D02*
X90250000Y-114500000D01*
X86000000Y-116500000D02*
X85750000Y-116500000D01*
X91590000Y-111887500D02*
X91590000Y-113660000D01*
%TO.N,C4*%
X110750000Y-64500000D02*
X110640000Y-64610000D01*
X110640000Y-109411000D02*
X110640000Y-112360000D01*
X107684862Y-49500000D02*
X99500000Y-41315138D01*
X151750000Y-131000000D02*
X150549999Y-132200001D01*
X110640000Y-90361000D02*
X110640000Y-109411000D01*
X142824930Y-132478012D02*
X110521989Y-132478012D01*
X110521989Y-132478012D02*
X109093976Y-131050000D01*
X110640000Y-64610000D02*
X110640000Y-71311000D01*
X109093976Y-131050000D02*
X102300000Y-131050000D01*
X110640000Y-57000000D02*
X110640000Y-52261000D01*
X110640000Y-112360000D02*
X110250000Y-112750000D01*
X110000000Y-49500000D02*
X107684862Y-49500000D01*
X150549999Y-132200001D02*
X143102941Y-132200001D01*
X152000000Y-130228640D02*
X152000000Y-130250000D01*
X102300000Y-131050000D02*
X99150000Y-127900000D01*
X110640000Y-50140000D02*
X110000000Y-49500000D01*
X143102941Y-132200001D02*
X142824930Y-132478012D01*
X99150000Y-122100000D02*
X99150000Y-126261000D01*
X99500000Y-41315138D02*
X99500000Y-35500000D01*
X110640000Y-71311000D02*
X110640000Y-90361000D01*
X99750000Y-121500000D02*
X99150000Y-122100000D01*
X110640000Y-52261000D02*
X110640000Y-50140000D01*
X99150000Y-127900000D02*
X99150000Y-126261000D01*
X152000000Y-130250000D02*
X151750000Y-130500000D01*
X152528640Y-129700000D02*
X152000000Y-130228640D01*
X151750000Y-130500000D02*
X151750000Y-131000000D01*
X153062500Y-129700000D02*
X152528640Y-129700000D01*
%TO.N,C5*%
X129750000Y-119750000D02*
X129690000Y-119690000D01*
X129690000Y-58250000D02*
X129690000Y-54737499D01*
X134378376Y-126500000D02*
X133000000Y-126500000D01*
X121000000Y-46241636D02*
X121000000Y-40000000D01*
X141113477Y-131837469D02*
X139715845Y-131837469D01*
X129690000Y-68810000D02*
X129750000Y-68750000D01*
X129690000Y-52940000D02*
X128250000Y-51500000D01*
X139715845Y-131837469D02*
X134378376Y-126500000D01*
X126258363Y-51500000D02*
X123754182Y-48995818D01*
X129690000Y-92837500D02*
X129690000Y-73787499D01*
X149862953Y-131800001D02*
X141150945Y-131800001D01*
X129690000Y-119690000D02*
X129690000Y-111887500D01*
X129690000Y-111887500D02*
X129690000Y-92837500D01*
X121000000Y-40000000D02*
X119000000Y-38000000D01*
X141150945Y-131800001D02*
X141113477Y-131837469D01*
X132423284Y-123947932D02*
X130197932Y-123947932D01*
X128250000Y-51500000D02*
X126258363Y-51500000D01*
X153062500Y-129300000D02*
X152362954Y-129300000D01*
X132423284Y-125923284D02*
X132423284Y-123947932D01*
X129690000Y-54737499D02*
X129690000Y-52940000D01*
X133000000Y-126500000D02*
X132423284Y-125923284D01*
X129690000Y-73787499D02*
X129690000Y-68810000D01*
X152362954Y-129300000D02*
X149862953Y-131800001D01*
X123754182Y-48995818D02*
X121000000Y-46241636D01*
X130197932Y-123947932D02*
X129750000Y-123500000D01*
%TO.N,C6*%
X152000000Y-114250000D02*
X152076500Y-114173500D01*
X147750000Y-73000000D02*
X148740000Y-73990000D01*
X147250000Y-97250000D02*
X147250000Y-96613500D01*
X148740000Y-73990000D02*
X148740000Y-76073500D01*
X147250000Y-96613500D02*
X148740000Y-95123500D01*
X148740000Y-57023500D02*
X148740000Y-60740000D01*
X138000000Y-47250000D02*
X143750000Y-53000000D01*
X158300000Y-132234314D02*
X161517316Y-135451630D01*
X143750000Y-53000000D02*
X144716500Y-53000000D01*
X148740000Y-76073500D02*
X148740000Y-95123500D01*
X138000000Y-40000000D02*
X138000000Y-47250000D01*
X148740000Y-111260000D02*
X148750000Y-111250000D01*
X158300000Y-130937500D02*
X158300000Y-132234314D01*
X178298370Y-135451630D02*
X180999998Y-132750002D01*
X148740000Y-60740000D02*
X148750000Y-60750000D01*
X180999998Y-126499998D02*
X180250000Y-125750000D01*
X148740000Y-114173500D02*
X148740000Y-111260000D01*
X180999998Y-132750002D02*
X180999998Y-131339866D01*
X180999998Y-131339866D02*
X180999998Y-126499998D01*
X147000000Y-97500000D02*
X147250000Y-97250000D01*
X148740000Y-114173500D02*
X152000000Y-114250000D01*
X144716500Y-53000000D02*
X148740000Y-57023500D01*
X161517316Y-135451630D02*
X178298370Y-135451630D01*
%TO.N,C7*%
X177200002Y-128549998D02*
X178750000Y-127000000D01*
X178750000Y-127000000D02*
X178750000Y-122250000D01*
X167790000Y-103988445D02*
X166365571Y-105412874D01*
X184500000Y-119500000D02*
X185500000Y-120500000D01*
X195371596Y-112621596D02*
X194500000Y-111750000D01*
X192750000Y-119750000D02*
X195371596Y-117128404D01*
X167790000Y-76073500D02*
X167790000Y-95123500D01*
X167790000Y-57023500D02*
X167790000Y-76073500D01*
X158700000Y-130937500D02*
X158700000Y-132068628D01*
X175750000Y-133500000D02*
X175750000Y-129857850D01*
X174500000Y-134750000D02*
X175750000Y-133500000D01*
X168250000Y-109250000D02*
X166365571Y-107365571D01*
X177057852Y-128549998D02*
X177200002Y-128549998D01*
X166365571Y-107365571D02*
X166365571Y-105412874D01*
X167790000Y-95123500D02*
X167790000Y-103988445D01*
X170250000Y-109250000D02*
X168250000Y-109250000D01*
X195371596Y-117128404D02*
X195371596Y-115469466D01*
X175750000Y-129857850D02*
X177057852Y-128549998D01*
X170500000Y-109500000D02*
X170250000Y-109250000D01*
X158700000Y-132068628D02*
X161683002Y-135051630D01*
X181500000Y-119500000D02*
X184500000Y-119500000D01*
X194500000Y-111750000D02*
X191750000Y-109000000D01*
X174500000Y-135051630D02*
X174500000Y-134750000D01*
X195371596Y-115469466D02*
X195371596Y-112621596D01*
X161683002Y-135051630D02*
X174500000Y-135051630D01*
X178750000Y-122250000D02*
X181500000Y-119500000D01*
X157500000Y-40000000D02*
X167790000Y-50290000D01*
X167790000Y-50290000D02*
X167790000Y-57023500D01*
%TO.N,C8*%
X192350011Y-85700011D02*
X193349997Y-86699997D01*
X186840000Y-76073500D02*
X186840000Y-57023500D01*
X186840000Y-48840000D02*
X178000000Y-40000000D01*
X188750000Y-135000000D02*
X188500000Y-135250000D01*
X178450001Y-85700011D02*
X192350011Y-85700011D01*
X190000000Y-109750000D02*
X190000000Y-132250000D01*
X188750000Y-133500000D02*
X188750000Y-135000000D01*
X193349997Y-106400003D02*
X190000000Y-109750000D01*
X190000000Y-132250000D02*
X188750000Y-133500000D01*
X159100000Y-130937500D02*
X159100000Y-131902942D01*
X177149994Y-87000018D02*
X186840000Y-77310012D01*
X160447058Y-133250000D02*
X162250000Y-133250000D01*
X178000000Y-40000000D02*
X177000000Y-40000000D01*
X193349997Y-86699997D02*
X193349997Y-106400003D01*
X160348529Y-133151471D02*
X160447058Y-133250000D01*
X159100000Y-131902942D02*
X160348529Y-133151471D01*
X186840000Y-77310012D02*
X186840000Y-76073500D01*
X186840000Y-57023500D02*
X186840000Y-48840000D01*
X177149994Y-87000018D02*
X178450001Y-85700011D01*
%TO.N,R1*%
X131596988Y-131750000D02*
X121550002Y-131750000D01*
X147500000Y-130750000D02*
X147750000Y-130750000D01*
X121550002Y-131750000D02*
X120100004Y-130300002D01*
X84500000Y-118750000D02*
X82600000Y-120650000D01*
X150250000Y-130750000D02*
X149750000Y-130750000D01*
X53100000Y-83701304D02*
X58500000Y-78301304D01*
X53100000Y-91887693D02*
X53100000Y-83701304D01*
X91446948Y-118750000D02*
X84500000Y-118750000D01*
X75350000Y-119665686D02*
X75350000Y-113517742D01*
X153062500Y-128900000D02*
X152100000Y-128900000D01*
X75350000Y-113517742D02*
X65845000Y-104012742D01*
X75000000Y-42250000D02*
X75000000Y-41500000D01*
X71500000Y-41500000D02*
X71500000Y-42750000D01*
X58500000Y-78301304D02*
X58500000Y-57500000D01*
X58500000Y-57500000D02*
X57900000Y-57500000D01*
X116449998Y-120250000D02*
X92946948Y-120250000D01*
X49500000Y-49100000D02*
X49500000Y-42500000D01*
X82600000Y-120650000D02*
X76334315Y-120650000D01*
X71500000Y-42750000D02*
X72250000Y-43500000D01*
X73750000Y-43500000D02*
X75000000Y-42250000D01*
X152100000Y-128900000D02*
X150250000Y-130750000D01*
X120100004Y-123900006D02*
X116449998Y-120250000D01*
X57900000Y-57500000D02*
X49500000Y-49100000D01*
X65845000Y-104012742D02*
X65225049Y-104012742D01*
X149750000Y-130750000D02*
X147500000Y-130750000D01*
X65225049Y-104012742D02*
X53100000Y-91887693D01*
X131625000Y-131778012D02*
X131596988Y-131750000D01*
X72250000Y-43500000D02*
X73750000Y-43500000D01*
X76334315Y-120650000D02*
X75350000Y-119665686D01*
X92946948Y-120250000D02*
X91446948Y-118750000D01*
X120100004Y-130300002D02*
X120100004Y-123900006D01*
%TO.N,R2*%
X127026499Y-58776499D02*
X129312500Y-61062500D01*
X47195000Y-104750862D02*
X47195000Y-75542283D01*
X113011000Y-126511000D02*
X106239000Y-126511000D01*
X156150003Y-61062500D02*
X154712503Y-62500000D01*
X102026499Y-58776499D02*
X118050003Y-58776499D01*
X99000006Y-56300000D02*
X99550000Y-56300000D01*
X118050003Y-58776499D02*
X127026499Y-58776499D01*
X151417279Y-127750000D02*
X151767279Y-128100000D01*
X129312500Y-61062500D02*
X137100003Y-61062500D01*
X137312500Y-61062500D02*
X137100003Y-61062500D01*
X149000000Y-127750000D02*
X151417279Y-127750000D01*
X114250000Y-127750000D02*
X113011000Y-126511000D01*
X96523507Y-58776499D02*
X79950003Y-58776499D01*
X156150003Y-61062500D02*
X157500000Y-61062500D01*
X161562500Y-61062500D02*
X161750000Y-61250000D01*
X92500000Y-126500000D02*
X83500000Y-126500000D01*
X106239000Y-126511000D02*
X103250000Y-129500000D01*
X47250000Y-75487283D02*
X47250000Y-70000000D01*
X63750000Y-64500000D02*
X63399999Y-64149999D01*
X63399999Y-64149999D02*
X60900005Y-64149999D01*
X151767279Y-128100000D02*
X153062500Y-128100000D01*
X79950003Y-58776499D02*
X79723501Y-58776499D01*
X57750000Y-115305862D02*
X47195000Y-104750862D01*
X47250000Y-70000000D02*
X52100000Y-65150000D01*
X79723501Y-58776499D02*
X78750000Y-59750000D01*
X171000000Y-61250000D02*
X171118520Y-61096731D01*
X154712503Y-62500000D02*
X138537503Y-62500000D01*
X138537503Y-62500000D02*
X137100003Y-61062500D01*
X47195000Y-75542283D02*
X47250000Y-75487283D01*
X56150000Y-65150000D02*
X54000000Y-65150000D01*
X99000006Y-56300000D02*
X96523507Y-58776499D01*
X157500000Y-61062500D02*
X161562500Y-61062500D01*
X52100000Y-65150000D02*
X54000000Y-65150000D01*
X171152751Y-61062500D02*
X171000000Y-61250000D01*
X175200003Y-61062500D02*
X171152751Y-61062500D01*
X99550000Y-56300000D02*
X102026499Y-58776499D01*
X57750000Y-119000000D02*
X57750000Y-115305862D01*
X148000000Y-128750000D02*
X149000000Y-127750000D01*
X57000000Y-66000000D02*
X56150000Y-65150000D01*
%TO.N,R3*%
X63311003Y-85000000D02*
X60900003Y-82589000D01*
X147000000Y-128108159D02*
X147758159Y-127350000D01*
X60900003Y-82589000D02*
X59339003Y-84150000D01*
X104100000Y-75350000D02*
X99000003Y-75350000D01*
X140500000Y-82750000D02*
X137862500Y-80112500D01*
X160630772Y-80112500D02*
X156150003Y-80112500D01*
X147758159Y-127350000D02*
X151582965Y-127350000D01*
X106875000Y-78125000D02*
X106125000Y-77375000D01*
X134637500Y-80112500D02*
X137100003Y-80112500D01*
X59339003Y-84150000D02*
X54000000Y-84150000D01*
X114923501Y-77826499D02*
X113000000Y-79750000D01*
X151932965Y-127700000D02*
X153062500Y-127700000D01*
X120076499Y-77826499D02*
X118050003Y-77826499D01*
X84250000Y-80250000D02*
X81826499Y-77826499D01*
X63500000Y-85000000D02*
X63311003Y-85000000D01*
X99000003Y-75749997D02*
X97000000Y-77750000D01*
X134525000Y-80000000D02*
X134637500Y-80112500D01*
X121625000Y-79375000D02*
X120076499Y-77826499D01*
X118050003Y-77826499D02*
X114923501Y-77826499D01*
X132000000Y-80000000D02*
X134525000Y-80000000D01*
X81826499Y-77826499D02*
X79950003Y-77826499D01*
X99000003Y-75350000D02*
X99000003Y-75749997D01*
X63750000Y-85250000D02*
X63500000Y-85000000D01*
X137862500Y-80112500D02*
X137100003Y-80112500D01*
X147500000Y-82750000D02*
X140500000Y-82750000D01*
X171891284Y-80105963D02*
X171887498Y-80112502D01*
X106125000Y-77375000D02*
X104100000Y-75350000D01*
X160654740Y-80088532D02*
X160630772Y-80112500D01*
X151582965Y-127350000D02*
X151932965Y-127700000D01*
X175200006Y-80112502D02*
X171891284Y-80105963D01*
%TO.N,R4*%
X81750000Y-98250000D02*
X81323503Y-98250000D01*
X100750000Y-94400000D02*
X99000003Y-94400000D01*
X133500000Y-99000000D02*
X133750000Y-99000000D01*
X153500000Y-103000000D02*
X141000000Y-103000000D01*
X63761003Y-104500000D02*
X60900003Y-101639000D01*
X137875000Y-99875000D02*
X137162500Y-99162500D01*
X81323503Y-98250000D02*
X79950003Y-96876500D01*
X162412500Y-99162500D02*
X156150003Y-99162500D01*
X146700000Y-126950000D02*
X146500000Y-126750000D01*
X175850000Y-97499998D02*
X171750002Y-97499998D01*
X96750000Y-98400000D02*
X96750000Y-98500000D01*
X133912500Y-99162500D02*
X137100003Y-99162500D01*
X141000000Y-103000000D02*
X137875000Y-99875000D01*
X148500000Y-126950000D02*
X146700000Y-126950000D01*
X99000003Y-96249997D02*
X96750000Y-98500000D01*
X104400000Y-94400000D02*
X100750000Y-94400000D01*
X56161000Y-101639000D02*
X60900003Y-101639000D01*
X137162500Y-99162500D02*
X137100003Y-99162500D01*
X82000000Y-98500000D02*
X81750000Y-98250000D01*
X109000000Y-99000000D02*
X104400000Y-94400000D01*
X153062500Y-127300000D02*
X152098651Y-127300000D01*
X133750000Y-99000000D02*
X133912500Y-99162500D01*
X54650000Y-103150000D02*
X56161000Y-101639000D01*
X162500000Y-99250000D02*
X162412500Y-99162500D01*
X151748650Y-126950000D02*
X148500000Y-126950000D01*
X152098651Y-127300000D02*
X151748650Y-126950000D01*
X117873500Y-96876500D02*
X115750000Y-99000000D01*
X99000003Y-94400000D02*
X99000003Y-96249997D01*
X118050003Y-96876500D02*
X117873500Y-96876500D01*
X171750002Y-97499998D02*
X171000000Y-98250000D01*
X54650000Y-103150000D02*
X54000000Y-103150000D01*
X64000000Y-104500000D02*
X63761003Y-104500000D01*
%TO.N,R5*%
X147250000Y-126510050D02*
X146739950Y-126000000D01*
X136999999Y-118212505D02*
X138462505Y-118212505D01*
X101500000Y-117250000D02*
X99000003Y-114750003D01*
X60900003Y-120689000D02*
X60311000Y-120689000D01*
X63439000Y-120689000D02*
X60900003Y-120689000D01*
X124750000Y-117500000D02*
X125250000Y-117500000D01*
X118050003Y-115926500D02*
X102823500Y-115926500D01*
X99000003Y-114750003D02*
X99000003Y-113450000D01*
X146739950Y-126000000D02*
X145750000Y-126000000D01*
X123176500Y-115926500D02*
X124750000Y-117500000D01*
X64500000Y-121750000D02*
X63439000Y-120689000D01*
X145750000Y-126000000D02*
X145500000Y-125750000D01*
X152250000Y-126750000D02*
X152050000Y-126550000D01*
X125250000Y-117500000D02*
X128250000Y-120500000D01*
X147250000Y-126550000D02*
X147250000Y-126510050D01*
X175427049Y-102906222D02*
X172750000Y-103000000D01*
X152050000Y-126550000D02*
X151500000Y-126550000D01*
X151410783Y-105500000D02*
X140750000Y-116160783D01*
X145500000Y-125750000D02*
X144750000Y-125000000D01*
X152400000Y-126900000D02*
X152250000Y-126750000D01*
X102823500Y-115926500D02*
X101500000Y-117250000D01*
X172750000Y-103000000D02*
X172750000Y-102906222D01*
X138462505Y-118212505D02*
X139250000Y-119000000D01*
X79950003Y-118049997D02*
X79950003Y-115926500D01*
X151750000Y-105500000D02*
X151410783Y-105500000D01*
X58500000Y-122500000D02*
X53500000Y-122500000D01*
X79750000Y-118250000D02*
X79950003Y-118049997D01*
X153062500Y-126900000D02*
X152400000Y-126900000D01*
X128250000Y-120500000D02*
X134712504Y-120500000D01*
X118050003Y-115926500D02*
X123176500Y-115926500D01*
X134712504Y-120500000D02*
X136999999Y-118212505D01*
X140750000Y-116160783D02*
X140750000Y-117500000D01*
X60311000Y-120689000D02*
X58500000Y-122500000D01*
X140750000Y-117500000D02*
X139250000Y-119000000D01*
X151500000Y-126550000D02*
X147250000Y-126550000D01*
%TO.N,R6*%
X181435367Y-121043608D02*
X186000000Y-125608241D01*
X166125000Y-137375000D02*
X167099997Y-136400003D01*
X102500000Y-138000000D02*
X102349998Y-138150002D01*
X78750000Y-138250000D02*
X92000000Y-138250000D01*
X161500000Y-142000000D02*
X166125000Y-137375000D01*
X156250000Y-142000000D02*
X161500000Y-142000000D01*
X72500002Y-138150000D02*
X75999999Y-138150000D01*
X110838615Y-134642999D02*
X107481614Y-138000000D01*
X107481614Y-138000000D02*
X102500000Y-138000000D01*
X92000000Y-138250000D02*
X92500000Y-138250000D01*
X157900000Y-132400000D02*
X162875000Y-137375000D01*
X180599997Y-136400003D02*
X186000000Y-131000000D01*
X168249998Y-136400003D02*
X180599997Y-136400003D01*
X167099997Y-136400003D02*
X168249998Y-136400003D01*
X150365807Y-136115807D02*
X150250000Y-136115807D01*
X150250000Y-136115807D02*
X148284194Y-134150001D01*
X78650000Y-138150000D02*
X75999999Y-138150000D01*
X150365807Y-136115807D02*
X156250000Y-142000000D01*
X148284194Y-134150001D02*
X144253046Y-134150001D01*
X186000000Y-125608241D02*
X186000000Y-131000000D01*
X56999996Y-138150002D02*
X72500000Y-138150002D01*
X157900000Y-130937500D02*
X157900000Y-132400000D01*
X102349998Y-138150002D02*
X95499996Y-138150002D01*
X92500000Y-138250000D02*
X92599998Y-138150002D01*
X162875000Y-137375000D02*
X166125000Y-137375000D01*
X78750000Y-138250000D02*
X78650000Y-138150000D01*
X72500000Y-138150002D02*
X72500002Y-138150000D01*
X144253046Y-134150001D02*
X143760048Y-134642999D01*
X92599998Y-138150002D02*
X95499996Y-138150002D01*
X92000000Y-138250000D02*
X93000000Y-138250000D01*
X143760048Y-134642999D02*
X110838615Y-134642999D01*
%TD*%
M02*
