%TF.GenerationSoftware,KiCad,Pcbnew,8.0.1-rc1*%
%TF.CreationDate,2024-04-23T13:15:56-05:00*%
%TF.ProjectId,ergomax_left,6572676f-6d61-4785-9f6c-6566742e6b69,rev?*%
%TF.SameCoordinates,Original*%
%TF.FileFunction,Legend,Top*%
%TF.FilePolarity,Positive*%
%FSLAX46Y46*%
G04 Gerber Fmt 4.6, Leading zero omitted, Abs format (unit mm)*
G04 Created by KiCad (PCBNEW 8.0.1-rc1) date 2024-04-23 13:15:56*
%MOMM*%
%LPD*%
G01*
G04 APERTURE LIST*
%ADD10C,0.150000*%
%ADD11C,0.120000*%
%ADD12C,1.400000*%
%ADD13C,2.200000*%
%ADD14C,2.000000*%
%ADD15R,2.000000X2.000000*%
%ADD16R,3.200000X2.000000*%
%ADD17R,1.350000X1.350000*%
%ADD18O,1.350000X1.350000*%
%ADD19R,1.800000X1.800000*%
%ADD20C,1.800000*%
%ADD21C,1.700000*%
%ADD22C,3.400000*%
%ADD23C,0.650000*%
%ADD24O,1.000000X2.100000*%
%ADD25O,1.000000X1.600000*%
G04 APERTURE END LIST*
D10*
X98190476Y-36754819D02*
X98857142Y-37754819D01*
X98857142Y-36754819D02*
X98190476Y-37754819D01*
X99809523Y-37659580D02*
X99761904Y-37707200D01*
X99761904Y-37707200D02*
X99619047Y-37754819D01*
X99619047Y-37754819D02*
X99523809Y-37754819D01*
X99523809Y-37754819D02*
X99380952Y-37707200D01*
X99380952Y-37707200D02*
X99285714Y-37611961D01*
X99285714Y-37611961D02*
X99238095Y-37516723D01*
X99238095Y-37516723D02*
X99190476Y-37326247D01*
X99190476Y-37326247D02*
X99190476Y-37183390D01*
X99190476Y-37183390D02*
X99238095Y-36992914D01*
X99238095Y-36992914D02*
X99285714Y-36897676D01*
X99285714Y-36897676D02*
X99380952Y-36802438D01*
X99380952Y-36802438D02*
X99523809Y-36754819D01*
X99523809Y-36754819D02*
X99619047Y-36754819D01*
X99619047Y-36754819D02*
X99761904Y-36802438D01*
X99761904Y-36802438D02*
X99809523Y-36850057D01*
X100666666Y-37088152D02*
X100666666Y-37754819D01*
X100428571Y-36707200D02*
X100190476Y-37421485D01*
X100190476Y-37421485D02*
X100809523Y-37421485D01*
X175690476Y-41254819D02*
X176357142Y-42254819D01*
X176357142Y-41254819D02*
X175690476Y-42254819D01*
X177309523Y-42159580D02*
X177261904Y-42207200D01*
X177261904Y-42207200D02*
X177119047Y-42254819D01*
X177119047Y-42254819D02*
X177023809Y-42254819D01*
X177023809Y-42254819D02*
X176880952Y-42207200D01*
X176880952Y-42207200D02*
X176785714Y-42111961D01*
X176785714Y-42111961D02*
X176738095Y-42016723D01*
X176738095Y-42016723D02*
X176690476Y-41826247D01*
X176690476Y-41826247D02*
X176690476Y-41683390D01*
X176690476Y-41683390D02*
X176738095Y-41492914D01*
X176738095Y-41492914D02*
X176785714Y-41397676D01*
X176785714Y-41397676D02*
X176880952Y-41302438D01*
X176880952Y-41302438D02*
X177023809Y-41254819D01*
X177023809Y-41254819D02*
X177119047Y-41254819D01*
X177119047Y-41254819D02*
X177261904Y-41302438D01*
X177261904Y-41302438D02*
X177309523Y-41350057D01*
X177880952Y-41683390D02*
X177785714Y-41635771D01*
X177785714Y-41635771D02*
X177738095Y-41588152D01*
X177738095Y-41588152D02*
X177690476Y-41492914D01*
X177690476Y-41492914D02*
X177690476Y-41445295D01*
X177690476Y-41445295D02*
X177738095Y-41350057D01*
X177738095Y-41350057D02*
X177785714Y-41302438D01*
X177785714Y-41302438D02*
X177880952Y-41254819D01*
X177880952Y-41254819D02*
X178071428Y-41254819D01*
X178071428Y-41254819D02*
X178166666Y-41302438D01*
X178166666Y-41302438D02*
X178214285Y-41350057D01*
X178214285Y-41350057D02*
X178261904Y-41445295D01*
X178261904Y-41445295D02*
X178261904Y-41492914D01*
X178261904Y-41492914D02*
X178214285Y-41588152D01*
X178214285Y-41588152D02*
X178166666Y-41635771D01*
X178166666Y-41635771D02*
X178071428Y-41683390D01*
X178071428Y-41683390D02*
X177880952Y-41683390D01*
X177880952Y-41683390D02*
X177785714Y-41731009D01*
X177785714Y-41731009D02*
X177738095Y-41778628D01*
X177738095Y-41778628D02*
X177690476Y-41873866D01*
X177690476Y-41873866D02*
X177690476Y-42064342D01*
X177690476Y-42064342D02*
X177738095Y-42159580D01*
X177738095Y-42159580D02*
X177785714Y-42207200D01*
X177785714Y-42207200D02*
X177880952Y-42254819D01*
X177880952Y-42254819D02*
X178071428Y-42254819D01*
X178071428Y-42254819D02*
X178166666Y-42207200D01*
X178166666Y-42207200D02*
X178214285Y-42159580D01*
X178214285Y-42159580D02*
X178261904Y-42064342D01*
X178261904Y-42064342D02*
X178261904Y-41873866D01*
X178261904Y-41873866D02*
X178214285Y-41778628D01*
X178214285Y-41778628D02*
X178166666Y-41731009D01*
X178166666Y-41731009D02*
X178071428Y-41683390D01*
X104166666Y-132254819D02*
X103833333Y-131778628D01*
X103595238Y-132254819D02*
X103595238Y-131254819D01*
X103595238Y-131254819D02*
X103976190Y-131254819D01*
X103976190Y-131254819D02*
X104071428Y-131302438D01*
X104071428Y-131302438D02*
X104119047Y-131350057D01*
X104119047Y-131350057D02*
X104166666Y-131445295D01*
X104166666Y-131445295D02*
X104166666Y-131588152D01*
X104166666Y-131588152D02*
X104119047Y-131683390D01*
X104119047Y-131683390D02*
X104071428Y-131731009D01*
X104071428Y-131731009D02*
X103976190Y-131778628D01*
X103976190Y-131778628D02*
X103595238Y-131778628D01*
X104595238Y-131731009D02*
X104928571Y-131731009D01*
X105071428Y-132254819D02*
X104595238Y-132254819D01*
X104595238Y-132254819D02*
X104595238Y-131254819D01*
X104595238Y-131254819D02*
X105071428Y-131254819D01*
X105833333Y-131731009D02*
X105500000Y-131731009D01*
X105500000Y-132254819D02*
X105500000Y-131254819D01*
X105500000Y-131254819D02*
X105976190Y-131254819D01*
X106500000Y-131254819D02*
X106500000Y-131492914D01*
X106261905Y-131397676D02*
X106500000Y-131492914D01*
X106500000Y-131492914D02*
X106738095Y-131397676D01*
X106357143Y-131683390D02*
X106500000Y-131492914D01*
X106500000Y-131492914D02*
X106642857Y-131683390D01*
X107261905Y-131254819D02*
X107261905Y-131492914D01*
X107023810Y-131397676D02*
X107261905Y-131492914D01*
X107261905Y-131492914D02*
X107500000Y-131397676D01*
X107119048Y-131683390D02*
X107261905Y-131492914D01*
X107261905Y-131492914D02*
X107404762Y-131683390D01*
X189190476Y-41254819D02*
X189857142Y-42254819D01*
X189857142Y-41254819D02*
X189190476Y-42254819D01*
X190809523Y-42254819D02*
X190476190Y-41778628D01*
X190238095Y-42254819D02*
X190238095Y-41254819D01*
X190238095Y-41254819D02*
X190619047Y-41254819D01*
X190619047Y-41254819D02*
X190714285Y-41302438D01*
X190714285Y-41302438D02*
X190761904Y-41350057D01*
X190761904Y-41350057D02*
X190809523Y-41445295D01*
X190809523Y-41445295D02*
X190809523Y-41588152D01*
X190809523Y-41588152D02*
X190761904Y-41683390D01*
X190761904Y-41683390D02*
X190714285Y-41731009D01*
X190714285Y-41731009D02*
X190619047Y-41778628D01*
X190619047Y-41778628D02*
X190238095Y-41778628D01*
X191380952Y-41683390D02*
X191285714Y-41635771D01*
X191285714Y-41635771D02*
X191238095Y-41588152D01*
X191238095Y-41588152D02*
X191190476Y-41492914D01*
X191190476Y-41492914D02*
X191190476Y-41445295D01*
X191190476Y-41445295D02*
X191238095Y-41350057D01*
X191238095Y-41350057D02*
X191285714Y-41302438D01*
X191285714Y-41302438D02*
X191380952Y-41254819D01*
X191380952Y-41254819D02*
X191571428Y-41254819D01*
X191571428Y-41254819D02*
X191666666Y-41302438D01*
X191666666Y-41302438D02*
X191714285Y-41350057D01*
X191714285Y-41350057D02*
X191761904Y-41445295D01*
X191761904Y-41445295D02*
X191761904Y-41492914D01*
X191761904Y-41492914D02*
X191714285Y-41588152D01*
X191714285Y-41588152D02*
X191666666Y-41635771D01*
X191666666Y-41635771D02*
X191571428Y-41683390D01*
X191571428Y-41683390D02*
X191380952Y-41683390D01*
X191380952Y-41683390D02*
X191285714Y-41731009D01*
X191285714Y-41731009D02*
X191238095Y-41778628D01*
X191238095Y-41778628D02*
X191190476Y-41873866D01*
X191190476Y-41873866D02*
X191190476Y-42064342D01*
X191190476Y-42064342D02*
X191238095Y-42159580D01*
X191238095Y-42159580D02*
X191285714Y-42207200D01*
X191285714Y-42207200D02*
X191380952Y-42254819D01*
X191380952Y-42254819D02*
X191571428Y-42254819D01*
X191571428Y-42254819D02*
X191666666Y-42207200D01*
X191666666Y-42207200D02*
X191714285Y-42159580D01*
X191714285Y-42159580D02*
X191761904Y-42064342D01*
X191761904Y-42064342D02*
X191761904Y-41873866D01*
X191761904Y-41873866D02*
X191714285Y-41778628D01*
X191714285Y-41778628D02*
X191666666Y-41731009D01*
X191666666Y-41731009D02*
X191571428Y-41683390D01*
X187190476Y-136504819D02*
X187857142Y-137504819D01*
X187857142Y-136504819D02*
X187190476Y-137504819D01*
X188809523Y-137409580D02*
X188761904Y-137457200D01*
X188761904Y-137457200D02*
X188619047Y-137504819D01*
X188619047Y-137504819D02*
X188523809Y-137504819D01*
X188523809Y-137504819D02*
X188380952Y-137457200D01*
X188380952Y-137457200D02*
X188285714Y-137361961D01*
X188285714Y-137361961D02*
X188238095Y-137266723D01*
X188238095Y-137266723D02*
X188190476Y-137076247D01*
X188190476Y-137076247D02*
X188190476Y-136933390D01*
X188190476Y-136933390D02*
X188238095Y-136742914D01*
X188238095Y-136742914D02*
X188285714Y-136647676D01*
X188285714Y-136647676D02*
X188380952Y-136552438D01*
X188380952Y-136552438D02*
X188523809Y-136504819D01*
X188523809Y-136504819D02*
X188619047Y-136504819D01*
X188619047Y-136504819D02*
X188761904Y-136552438D01*
X188761904Y-136552438D02*
X188809523Y-136600057D01*
X189285714Y-137504819D02*
X189476190Y-137504819D01*
X189476190Y-137504819D02*
X189571428Y-137457200D01*
X189571428Y-137457200D02*
X189619047Y-137409580D01*
X189619047Y-137409580D02*
X189714285Y-137266723D01*
X189714285Y-137266723D02*
X189761904Y-137076247D01*
X189761904Y-137076247D02*
X189761904Y-136695295D01*
X189761904Y-136695295D02*
X189714285Y-136600057D01*
X189714285Y-136600057D02*
X189666666Y-136552438D01*
X189666666Y-136552438D02*
X189571428Y-136504819D01*
X189571428Y-136504819D02*
X189380952Y-136504819D01*
X189380952Y-136504819D02*
X189285714Y-136552438D01*
X189285714Y-136552438D02*
X189238095Y-136600057D01*
X189238095Y-136600057D02*
X189190476Y-136695295D01*
X189190476Y-136695295D02*
X189190476Y-136933390D01*
X189190476Y-136933390D02*
X189238095Y-137028628D01*
X189238095Y-137028628D02*
X189285714Y-137076247D01*
X189285714Y-137076247D02*
X189380952Y-137123866D01*
X189380952Y-137123866D02*
X189571428Y-137123866D01*
X189571428Y-137123866D02*
X189666666Y-137076247D01*
X189666666Y-137076247D02*
X189714285Y-137028628D01*
X189714285Y-137028628D02*
X189761904Y-136933390D01*
X61190476Y-43754819D02*
X61857142Y-44754819D01*
X61857142Y-43754819D02*
X61190476Y-44754819D01*
X62809523Y-44754819D02*
X62476190Y-44278628D01*
X62238095Y-44754819D02*
X62238095Y-43754819D01*
X62238095Y-43754819D02*
X62619047Y-43754819D01*
X62619047Y-43754819D02*
X62714285Y-43802438D01*
X62714285Y-43802438D02*
X62761904Y-43850057D01*
X62761904Y-43850057D02*
X62809523Y-43945295D01*
X62809523Y-43945295D02*
X62809523Y-44088152D01*
X62809523Y-44088152D02*
X62761904Y-44183390D01*
X62761904Y-44183390D02*
X62714285Y-44231009D01*
X62714285Y-44231009D02*
X62619047Y-44278628D01*
X62619047Y-44278628D02*
X62238095Y-44278628D01*
X63190476Y-43850057D02*
X63238095Y-43802438D01*
X63238095Y-43802438D02*
X63333333Y-43754819D01*
X63333333Y-43754819D02*
X63571428Y-43754819D01*
X63571428Y-43754819D02*
X63666666Y-43802438D01*
X63666666Y-43802438D02*
X63714285Y-43850057D01*
X63714285Y-43850057D02*
X63761904Y-43945295D01*
X63761904Y-43945295D02*
X63761904Y-44040533D01*
X63761904Y-44040533D02*
X63714285Y-44183390D01*
X63714285Y-44183390D02*
X63142857Y-44754819D01*
X63142857Y-44754819D02*
X63761904Y-44754819D01*
X88190476Y-39254819D02*
X88857142Y-40254819D01*
X88857142Y-39254819D02*
X88190476Y-40254819D01*
X89809523Y-40159580D02*
X89761904Y-40207200D01*
X89761904Y-40207200D02*
X89619047Y-40254819D01*
X89619047Y-40254819D02*
X89523809Y-40254819D01*
X89523809Y-40254819D02*
X89380952Y-40207200D01*
X89380952Y-40207200D02*
X89285714Y-40111961D01*
X89285714Y-40111961D02*
X89238095Y-40016723D01*
X89238095Y-40016723D02*
X89190476Y-39826247D01*
X89190476Y-39826247D02*
X89190476Y-39683390D01*
X89190476Y-39683390D02*
X89238095Y-39492914D01*
X89238095Y-39492914D02*
X89285714Y-39397676D01*
X89285714Y-39397676D02*
X89380952Y-39302438D01*
X89380952Y-39302438D02*
X89523809Y-39254819D01*
X89523809Y-39254819D02*
X89619047Y-39254819D01*
X89619047Y-39254819D02*
X89761904Y-39302438D01*
X89761904Y-39302438D02*
X89809523Y-39350057D01*
X90142857Y-39254819D02*
X90761904Y-39254819D01*
X90761904Y-39254819D02*
X90428571Y-39635771D01*
X90428571Y-39635771D02*
X90571428Y-39635771D01*
X90571428Y-39635771D02*
X90666666Y-39683390D01*
X90666666Y-39683390D02*
X90714285Y-39731009D01*
X90714285Y-39731009D02*
X90761904Y-39826247D01*
X90761904Y-39826247D02*
X90761904Y-40064342D01*
X90761904Y-40064342D02*
X90714285Y-40159580D01*
X90714285Y-40159580D02*
X90666666Y-40207200D01*
X90666666Y-40207200D02*
X90571428Y-40254819D01*
X90571428Y-40254819D02*
X90285714Y-40254819D01*
X90285714Y-40254819D02*
X90190476Y-40207200D01*
X90190476Y-40207200D02*
X90142857Y-40159580D01*
X117690476Y-39254819D02*
X118357142Y-40254819D01*
X118357142Y-39254819D02*
X117690476Y-40254819D01*
X119309523Y-40159580D02*
X119261904Y-40207200D01*
X119261904Y-40207200D02*
X119119047Y-40254819D01*
X119119047Y-40254819D02*
X119023809Y-40254819D01*
X119023809Y-40254819D02*
X118880952Y-40207200D01*
X118880952Y-40207200D02*
X118785714Y-40111961D01*
X118785714Y-40111961D02*
X118738095Y-40016723D01*
X118738095Y-40016723D02*
X118690476Y-39826247D01*
X118690476Y-39826247D02*
X118690476Y-39683390D01*
X118690476Y-39683390D02*
X118738095Y-39492914D01*
X118738095Y-39492914D02*
X118785714Y-39397676D01*
X118785714Y-39397676D02*
X118880952Y-39302438D01*
X118880952Y-39302438D02*
X119023809Y-39254819D01*
X119023809Y-39254819D02*
X119119047Y-39254819D01*
X119119047Y-39254819D02*
X119261904Y-39302438D01*
X119261904Y-39302438D02*
X119309523Y-39350057D01*
X120214285Y-39254819D02*
X119738095Y-39254819D01*
X119738095Y-39254819D02*
X119690476Y-39731009D01*
X119690476Y-39731009D02*
X119738095Y-39683390D01*
X119738095Y-39683390D02*
X119833333Y-39635771D01*
X119833333Y-39635771D02*
X120071428Y-39635771D01*
X120071428Y-39635771D02*
X120166666Y-39683390D01*
X120166666Y-39683390D02*
X120214285Y-39731009D01*
X120214285Y-39731009D02*
X120261904Y-39826247D01*
X120261904Y-39826247D02*
X120261904Y-40064342D01*
X120261904Y-40064342D02*
X120214285Y-40159580D01*
X120214285Y-40159580D02*
X120166666Y-40207200D01*
X120166666Y-40207200D02*
X120071428Y-40254819D01*
X120071428Y-40254819D02*
X119833333Y-40254819D01*
X119833333Y-40254819D02*
X119738095Y-40207200D01*
X119738095Y-40207200D02*
X119690476Y-40159580D01*
X111190476Y-36754819D02*
X111857142Y-37754819D01*
X111857142Y-36754819D02*
X111190476Y-37754819D01*
X112809523Y-37754819D02*
X112476190Y-37278628D01*
X112238095Y-37754819D02*
X112238095Y-36754819D01*
X112238095Y-36754819D02*
X112619047Y-36754819D01*
X112619047Y-36754819D02*
X112714285Y-36802438D01*
X112714285Y-36802438D02*
X112761904Y-36850057D01*
X112761904Y-36850057D02*
X112809523Y-36945295D01*
X112809523Y-36945295D02*
X112809523Y-37088152D01*
X112809523Y-37088152D02*
X112761904Y-37183390D01*
X112761904Y-37183390D02*
X112714285Y-37231009D01*
X112714285Y-37231009D02*
X112619047Y-37278628D01*
X112619047Y-37278628D02*
X112238095Y-37278628D01*
X113666666Y-37088152D02*
X113666666Y-37754819D01*
X113428571Y-36707200D02*
X113190476Y-37421485D01*
X113190476Y-37421485D02*
X113809523Y-37421485D01*
X93190476Y-39254819D02*
X93857142Y-40254819D01*
X93857142Y-39254819D02*
X93190476Y-40254819D01*
X94809523Y-40254819D02*
X94476190Y-39778628D01*
X94238095Y-40254819D02*
X94238095Y-39254819D01*
X94238095Y-39254819D02*
X94619047Y-39254819D01*
X94619047Y-39254819D02*
X94714285Y-39302438D01*
X94714285Y-39302438D02*
X94761904Y-39350057D01*
X94761904Y-39350057D02*
X94809523Y-39445295D01*
X94809523Y-39445295D02*
X94809523Y-39588152D01*
X94809523Y-39588152D02*
X94761904Y-39683390D01*
X94761904Y-39683390D02*
X94714285Y-39731009D01*
X94714285Y-39731009D02*
X94619047Y-39778628D01*
X94619047Y-39778628D02*
X94238095Y-39778628D01*
X95142857Y-39254819D02*
X95761904Y-39254819D01*
X95761904Y-39254819D02*
X95428571Y-39635771D01*
X95428571Y-39635771D02*
X95571428Y-39635771D01*
X95571428Y-39635771D02*
X95666666Y-39683390D01*
X95666666Y-39683390D02*
X95714285Y-39731009D01*
X95714285Y-39731009D02*
X95761904Y-39826247D01*
X95761904Y-39826247D02*
X95761904Y-40064342D01*
X95761904Y-40064342D02*
X95714285Y-40159580D01*
X95714285Y-40159580D02*
X95666666Y-40207200D01*
X95666666Y-40207200D02*
X95571428Y-40254819D01*
X95571428Y-40254819D02*
X95285714Y-40254819D01*
X95285714Y-40254819D02*
X95190476Y-40207200D01*
X95190476Y-40207200D02*
X95142857Y-40159580D01*
X169190476Y-41254819D02*
X169857142Y-42254819D01*
X169857142Y-41254819D02*
X169190476Y-42254819D01*
X170809523Y-42254819D02*
X170476190Y-41778628D01*
X170238095Y-42254819D02*
X170238095Y-41254819D01*
X170238095Y-41254819D02*
X170619047Y-41254819D01*
X170619047Y-41254819D02*
X170714285Y-41302438D01*
X170714285Y-41302438D02*
X170761904Y-41350057D01*
X170761904Y-41350057D02*
X170809523Y-41445295D01*
X170809523Y-41445295D02*
X170809523Y-41588152D01*
X170809523Y-41588152D02*
X170761904Y-41683390D01*
X170761904Y-41683390D02*
X170714285Y-41731009D01*
X170714285Y-41731009D02*
X170619047Y-41778628D01*
X170619047Y-41778628D02*
X170238095Y-41778628D01*
X171142857Y-41254819D02*
X171809523Y-41254819D01*
X171809523Y-41254819D02*
X171380952Y-42254819D01*
X180166666Y-31254819D02*
X179833333Y-30778628D01*
X179595238Y-31254819D02*
X179595238Y-30254819D01*
X179595238Y-30254819D02*
X179976190Y-30254819D01*
X179976190Y-30254819D02*
X180071428Y-30302438D01*
X180071428Y-30302438D02*
X180119047Y-30350057D01*
X180119047Y-30350057D02*
X180166666Y-30445295D01*
X180166666Y-30445295D02*
X180166666Y-30588152D01*
X180166666Y-30588152D02*
X180119047Y-30683390D01*
X180119047Y-30683390D02*
X180071428Y-30731009D01*
X180071428Y-30731009D02*
X179976190Y-30778628D01*
X179976190Y-30778628D02*
X179595238Y-30778628D01*
X180595238Y-30731009D02*
X180928571Y-30731009D01*
X181071428Y-31254819D02*
X180595238Y-31254819D01*
X180595238Y-31254819D02*
X180595238Y-30254819D01*
X180595238Y-30254819D02*
X181071428Y-30254819D01*
X181833333Y-30731009D02*
X181500000Y-30731009D01*
X181500000Y-31254819D02*
X181500000Y-30254819D01*
X181500000Y-30254819D02*
X181976190Y-30254819D01*
X182500000Y-30254819D02*
X182500000Y-30492914D01*
X182261905Y-30397676D02*
X182500000Y-30492914D01*
X182500000Y-30492914D02*
X182738095Y-30397676D01*
X182357143Y-30683390D02*
X182500000Y-30492914D01*
X182500000Y-30492914D02*
X182642857Y-30683390D01*
X183261905Y-30254819D02*
X183261905Y-30492914D01*
X183023810Y-30397676D02*
X183261905Y-30492914D01*
X183261905Y-30492914D02*
X183500000Y-30397676D01*
X183119048Y-30683390D02*
X183261905Y-30492914D01*
X183261905Y-30492914D02*
X183404762Y-30683390D01*
X184166666Y-137254819D02*
X183833333Y-136778628D01*
X183595238Y-137254819D02*
X183595238Y-136254819D01*
X183595238Y-136254819D02*
X183976190Y-136254819D01*
X183976190Y-136254819D02*
X184071428Y-136302438D01*
X184071428Y-136302438D02*
X184119047Y-136350057D01*
X184119047Y-136350057D02*
X184166666Y-136445295D01*
X184166666Y-136445295D02*
X184166666Y-136588152D01*
X184166666Y-136588152D02*
X184119047Y-136683390D01*
X184119047Y-136683390D02*
X184071428Y-136731009D01*
X184071428Y-136731009D02*
X183976190Y-136778628D01*
X183976190Y-136778628D02*
X183595238Y-136778628D01*
X184595238Y-136731009D02*
X184928571Y-136731009D01*
X185071428Y-137254819D02*
X184595238Y-137254819D01*
X184595238Y-137254819D02*
X184595238Y-136254819D01*
X184595238Y-136254819D02*
X185071428Y-136254819D01*
X185833333Y-136731009D02*
X185500000Y-136731009D01*
X185500000Y-137254819D02*
X185500000Y-136254819D01*
X185500000Y-136254819D02*
X185976190Y-136254819D01*
X186500000Y-136254819D02*
X186500000Y-136492914D01*
X186261905Y-136397676D02*
X186500000Y-136492914D01*
X186500000Y-136492914D02*
X186738095Y-136397676D01*
X186357143Y-136683390D02*
X186500000Y-136492914D01*
X186500000Y-136492914D02*
X186642857Y-136683390D01*
X187261905Y-136254819D02*
X187261905Y-136492914D01*
X187023810Y-136397676D02*
X187261905Y-136492914D01*
X187261905Y-136492914D02*
X187500000Y-136397676D01*
X187119048Y-136683390D02*
X187261905Y-136492914D01*
X187261905Y-136492914D02*
X187404762Y-136683390D01*
X41690476Y-43701207D02*
X42357142Y-44701207D01*
X42357142Y-43701207D02*
X41690476Y-44701207D01*
X43309523Y-44605968D02*
X43261904Y-44653588D01*
X43261904Y-44653588D02*
X43119047Y-44701207D01*
X43119047Y-44701207D02*
X43023809Y-44701207D01*
X43023809Y-44701207D02*
X42880952Y-44653588D01*
X42880952Y-44653588D02*
X42785714Y-44558349D01*
X42785714Y-44558349D02*
X42738095Y-44463111D01*
X42738095Y-44463111D02*
X42690476Y-44272635D01*
X42690476Y-44272635D02*
X42690476Y-44129778D01*
X42690476Y-44129778D02*
X42738095Y-43939302D01*
X42738095Y-43939302D02*
X42785714Y-43844064D01*
X42785714Y-43844064D02*
X42880952Y-43748826D01*
X42880952Y-43748826D02*
X43023809Y-43701207D01*
X43023809Y-43701207D02*
X43119047Y-43701207D01*
X43119047Y-43701207D02*
X43261904Y-43748826D01*
X43261904Y-43748826D02*
X43309523Y-43796445D01*
X44261904Y-44701207D02*
X43690476Y-44701207D01*
X43976190Y-44701207D02*
X43976190Y-43701207D01*
X43976190Y-43701207D02*
X43880952Y-43844064D01*
X43880952Y-43844064D02*
X43785714Y-43939302D01*
X43785714Y-43939302D02*
X43690476Y-43986921D01*
X55756448Y-43674732D02*
X56423114Y-44674732D01*
X56423114Y-43674732D02*
X55756448Y-44674732D01*
X57375495Y-44579493D02*
X57327876Y-44627113D01*
X57327876Y-44627113D02*
X57185019Y-44674732D01*
X57185019Y-44674732D02*
X57089781Y-44674732D01*
X57089781Y-44674732D02*
X56946924Y-44627113D01*
X56946924Y-44627113D02*
X56851686Y-44531874D01*
X56851686Y-44531874D02*
X56804067Y-44436636D01*
X56804067Y-44436636D02*
X56756448Y-44246160D01*
X56756448Y-44246160D02*
X56756448Y-44103303D01*
X56756448Y-44103303D02*
X56804067Y-43912827D01*
X56804067Y-43912827D02*
X56851686Y-43817589D01*
X56851686Y-43817589D02*
X56946924Y-43722351D01*
X56946924Y-43722351D02*
X57089781Y-43674732D01*
X57089781Y-43674732D02*
X57185019Y-43674732D01*
X57185019Y-43674732D02*
X57327876Y-43722351D01*
X57327876Y-43722351D02*
X57375495Y-43769970D01*
X57756448Y-43769970D02*
X57804067Y-43722351D01*
X57804067Y-43722351D02*
X57899305Y-43674732D01*
X57899305Y-43674732D02*
X58137400Y-43674732D01*
X58137400Y-43674732D02*
X58232638Y-43722351D01*
X58232638Y-43722351D02*
X58280257Y-43769970D01*
X58280257Y-43769970D02*
X58327876Y-43865208D01*
X58327876Y-43865208D02*
X58327876Y-43960446D01*
X58327876Y-43960446D02*
X58280257Y-44103303D01*
X58280257Y-44103303D02*
X57708829Y-44674732D01*
X57708829Y-44674732D02*
X58327876Y-44674732D01*
X156190476Y-41254819D02*
X156857142Y-42254819D01*
X156857142Y-41254819D02*
X156190476Y-42254819D01*
X157809523Y-42159580D02*
X157761904Y-42207200D01*
X157761904Y-42207200D02*
X157619047Y-42254819D01*
X157619047Y-42254819D02*
X157523809Y-42254819D01*
X157523809Y-42254819D02*
X157380952Y-42207200D01*
X157380952Y-42207200D02*
X157285714Y-42111961D01*
X157285714Y-42111961D02*
X157238095Y-42016723D01*
X157238095Y-42016723D02*
X157190476Y-41826247D01*
X157190476Y-41826247D02*
X157190476Y-41683390D01*
X157190476Y-41683390D02*
X157238095Y-41492914D01*
X157238095Y-41492914D02*
X157285714Y-41397676D01*
X157285714Y-41397676D02*
X157380952Y-41302438D01*
X157380952Y-41302438D02*
X157523809Y-41254819D01*
X157523809Y-41254819D02*
X157619047Y-41254819D01*
X157619047Y-41254819D02*
X157761904Y-41302438D01*
X157761904Y-41302438D02*
X157809523Y-41350057D01*
X158142857Y-41254819D02*
X158809523Y-41254819D01*
X158809523Y-41254819D02*
X158380952Y-42254819D01*
X188230952Y-97154838D02*
X187897619Y-96678647D01*
X187659524Y-97154838D02*
X187659524Y-96154838D01*
X187659524Y-96154838D02*
X188040476Y-96154838D01*
X188040476Y-96154838D02*
X188135714Y-96202457D01*
X188135714Y-96202457D02*
X188183333Y-96250076D01*
X188183333Y-96250076D02*
X188230952Y-96345314D01*
X188230952Y-96345314D02*
X188230952Y-96488171D01*
X188230952Y-96488171D02*
X188183333Y-96583409D01*
X188183333Y-96583409D02*
X188135714Y-96631028D01*
X188135714Y-96631028D02*
X188040476Y-96678647D01*
X188040476Y-96678647D02*
X187659524Y-96678647D01*
X188659524Y-96631028D02*
X188992857Y-96631028D01*
X189135714Y-97154838D02*
X188659524Y-97154838D01*
X188659524Y-97154838D02*
X188659524Y-96154838D01*
X188659524Y-96154838D02*
X189135714Y-96154838D01*
X190088095Y-97154838D02*
X189516667Y-97154838D01*
X189802381Y-97154838D02*
X189802381Y-96154838D01*
X189802381Y-96154838D02*
X189707143Y-96297695D01*
X189707143Y-96297695D02*
X189611905Y-96392933D01*
X189611905Y-96392933D02*
X189516667Y-96440552D01*
X64754403Y-39745403D02*
X65468688Y-39745403D01*
X65468688Y-39745403D02*
X65611545Y-39793022D01*
X65611545Y-39793022D02*
X65706784Y-39888260D01*
X65706784Y-39888260D02*
X65754403Y-40031117D01*
X65754403Y-40031117D02*
X65754403Y-40126355D01*
X64849641Y-39316831D02*
X64802022Y-39269212D01*
X64802022Y-39269212D02*
X64754403Y-39173974D01*
X64754403Y-39173974D02*
X64754403Y-38935879D01*
X64754403Y-38935879D02*
X64802022Y-38840641D01*
X64802022Y-38840641D02*
X64849641Y-38793022D01*
X64849641Y-38793022D02*
X64944879Y-38745403D01*
X64944879Y-38745403D02*
X65040117Y-38745403D01*
X65040117Y-38745403D02*
X65182974Y-38793022D01*
X65182974Y-38793022D02*
X65754403Y-39364450D01*
X65754403Y-39364450D02*
X65754403Y-38745403D01*
X52166666Y-32254819D02*
X51833333Y-31778628D01*
X51595238Y-32254819D02*
X51595238Y-31254819D01*
X51595238Y-31254819D02*
X51976190Y-31254819D01*
X51976190Y-31254819D02*
X52071428Y-31302438D01*
X52071428Y-31302438D02*
X52119047Y-31350057D01*
X52119047Y-31350057D02*
X52166666Y-31445295D01*
X52166666Y-31445295D02*
X52166666Y-31588152D01*
X52166666Y-31588152D02*
X52119047Y-31683390D01*
X52119047Y-31683390D02*
X52071428Y-31731009D01*
X52071428Y-31731009D02*
X51976190Y-31778628D01*
X51976190Y-31778628D02*
X51595238Y-31778628D01*
X52595238Y-31731009D02*
X52928571Y-31731009D01*
X53071428Y-32254819D02*
X52595238Y-32254819D01*
X52595238Y-32254819D02*
X52595238Y-31254819D01*
X52595238Y-31254819D02*
X53071428Y-31254819D01*
X53833333Y-31731009D02*
X53500000Y-31731009D01*
X53500000Y-32254819D02*
X53500000Y-31254819D01*
X53500000Y-31254819D02*
X53976190Y-31254819D01*
X54500000Y-31254819D02*
X54500000Y-31492914D01*
X54261905Y-31397676D02*
X54500000Y-31492914D01*
X54500000Y-31492914D02*
X54738095Y-31397676D01*
X54357143Y-31683390D02*
X54500000Y-31492914D01*
X54500000Y-31492914D02*
X54642857Y-31683390D01*
X55261905Y-31254819D02*
X55261905Y-31492914D01*
X55023810Y-31397676D02*
X55261905Y-31492914D01*
X55261905Y-31492914D02*
X55500000Y-31397676D01*
X55119048Y-31683390D02*
X55261905Y-31492914D01*
X55261905Y-31492914D02*
X55404762Y-31683390D01*
X136690476Y-41254819D02*
X137357142Y-42254819D01*
X137357142Y-41254819D02*
X136690476Y-42254819D01*
X138309523Y-42159580D02*
X138261904Y-42207200D01*
X138261904Y-42207200D02*
X138119047Y-42254819D01*
X138119047Y-42254819D02*
X138023809Y-42254819D01*
X138023809Y-42254819D02*
X137880952Y-42207200D01*
X137880952Y-42207200D02*
X137785714Y-42111961D01*
X137785714Y-42111961D02*
X137738095Y-42016723D01*
X137738095Y-42016723D02*
X137690476Y-41826247D01*
X137690476Y-41826247D02*
X137690476Y-41683390D01*
X137690476Y-41683390D02*
X137738095Y-41492914D01*
X137738095Y-41492914D02*
X137785714Y-41397676D01*
X137785714Y-41397676D02*
X137880952Y-41302438D01*
X137880952Y-41302438D02*
X138023809Y-41254819D01*
X138023809Y-41254819D02*
X138119047Y-41254819D01*
X138119047Y-41254819D02*
X138261904Y-41302438D01*
X138261904Y-41302438D02*
X138309523Y-41350057D01*
X139166666Y-41254819D02*
X138976190Y-41254819D01*
X138976190Y-41254819D02*
X138880952Y-41302438D01*
X138880952Y-41302438D02*
X138833333Y-41350057D01*
X138833333Y-41350057D02*
X138738095Y-41492914D01*
X138738095Y-41492914D02*
X138690476Y-41683390D01*
X138690476Y-41683390D02*
X138690476Y-42064342D01*
X138690476Y-42064342D02*
X138738095Y-42159580D01*
X138738095Y-42159580D02*
X138785714Y-42207200D01*
X138785714Y-42207200D02*
X138880952Y-42254819D01*
X138880952Y-42254819D02*
X139071428Y-42254819D01*
X139071428Y-42254819D02*
X139166666Y-42207200D01*
X139166666Y-42207200D02*
X139214285Y-42159580D01*
X139214285Y-42159580D02*
X139261904Y-42064342D01*
X139261904Y-42064342D02*
X139261904Y-41826247D01*
X139261904Y-41826247D02*
X139214285Y-41731009D01*
X139214285Y-41731009D02*
X139166666Y-41683390D01*
X139166666Y-41683390D02*
X139071428Y-41635771D01*
X139071428Y-41635771D02*
X138880952Y-41635771D01*
X138880952Y-41635771D02*
X138785714Y-41683390D01*
X138785714Y-41683390D02*
X138738095Y-41731009D01*
X138738095Y-41731009D02*
X138690476Y-41826247D01*
X132166666Y-115254819D02*
X131833333Y-114778628D01*
X131595238Y-115254819D02*
X131595238Y-114254819D01*
X131595238Y-114254819D02*
X131976190Y-114254819D01*
X131976190Y-114254819D02*
X132071428Y-114302438D01*
X132071428Y-114302438D02*
X132119047Y-114350057D01*
X132119047Y-114350057D02*
X132166666Y-114445295D01*
X132166666Y-114445295D02*
X132166666Y-114588152D01*
X132166666Y-114588152D02*
X132119047Y-114683390D01*
X132119047Y-114683390D02*
X132071428Y-114731009D01*
X132071428Y-114731009D02*
X131976190Y-114778628D01*
X131976190Y-114778628D02*
X131595238Y-114778628D01*
X132595238Y-114731009D02*
X132928571Y-114731009D01*
X133071428Y-115254819D02*
X132595238Y-115254819D01*
X132595238Y-115254819D02*
X132595238Y-114254819D01*
X132595238Y-114254819D02*
X133071428Y-114254819D01*
X133833333Y-114731009D02*
X133500000Y-114731009D01*
X133500000Y-115254819D02*
X133500000Y-114254819D01*
X133500000Y-114254819D02*
X133976190Y-114254819D01*
X134500000Y-114254819D02*
X134500000Y-114492914D01*
X134261905Y-114397676D02*
X134500000Y-114492914D01*
X134500000Y-114492914D02*
X134738095Y-114397676D01*
X134357143Y-114683390D02*
X134500000Y-114492914D01*
X134500000Y-114492914D02*
X134642857Y-114683390D01*
X135261905Y-114254819D02*
X135261905Y-114492914D01*
X135023810Y-114397676D02*
X135261905Y-114492914D01*
X135261905Y-114492914D02*
X135500000Y-114397676D01*
X135119048Y-114683390D02*
X135261905Y-114492914D01*
X135261905Y-114492914D02*
X135404762Y-114683390D01*
X129690476Y-38754819D02*
X130357142Y-39754819D01*
X130357142Y-38754819D02*
X129690476Y-39754819D01*
X131309523Y-39754819D02*
X130976190Y-39278628D01*
X130738095Y-39754819D02*
X130738095Y-38754819D01*
X130738095Y-38754819D02*
X131119047Y-38754819D01*
X131119047Y-38754819D02*
X131214285Y-38802438D01*
X131214285Y-38802438D02*
X131261904Y-38850057D01*
X131261904Y-38850057D02*
X131309523Y-38945295D01*
X131309523Y-38945295D02*
X131309523Y-39088152D01*
X131309523Y-39088152D02*
X131261904Y-39183390D01*
X131261904Y-39183390D02*
X131214285Y-39231009D01*
X131214285Y-39231009D02*
X131119047Y-39278628D01*
X131119047Y-39278628D02*
X130738095Y-39278628D01*
X132214285Y-38754819D02*
X131738095Y-38754819D01*
X131738095Y-38754819D02*
X131690476Y-39231009D01*
X131690476Y-39231009D02*
X131738095Y-39183390D01*
X131738095Y-39183390D02*
X131833333Y-39135771D01*
X131833333Y-39135771D02*
X132071428Y-39135771D01*
X132071428Y-39135771D02*
X132166666Y-39183390D01*
X132166666Y-39183390D02*
X132214285Y-39231009D01*
X132214285Y-39231009D02*
X132261904Y-39326247D01*
X132261904Y-39326247D02*
X132261904Y-39564342D01*
X132261904Y-39564342D02*
X132214285Y-39659580D01*
X132214285Y-39659580D02*
X132166666Y-39707200D01*
X132166666Y-39707200D02*
X132071428Y-39754819D01*
X132071428Y-39754819D02*
X131833333Y-39754819D01*
X131833333Y-39754819D02*
X131738095Y-39707200D01*
X131738095Y-39707200D02*
X131690476Y-39659580D01*
X48190476Y-43754819D02*
X48857142Y-44754819D01*
X48857142Y-43754819D02*
X48190476Y-44754819D01*
X49809523Y-44754819D02*
X49476190Y-44278628D01*
X49238095Y-44754819D02*
X49238095Y-43754819D01*
X49238095Y-43754819D02*
X49619047Y-43754819D01*
X49619047Y-43754819D02*
X49714285Y-43802438D01*
X49714285Y-43802438D02*
X49761904Y-43850057D01*
X49761904Y-43850057D02*
X49809523Y-43945295D01*
X49809523Y-43945295D02*
X49809523Y-44088152D01*
X49809523Y-44088152D02*
X49761904Y-44183390D01*
X49761904Y-44183390D02*
X49714285Y-44231009D01*
X49714285Y-44231009D02*
X49619047Y-44278628D01*
X49619047Y-44278628D02*
X49238095Y-44278628D01*
X50761904Y-44754819D02*
X50190476Y-44754819D01*
X50476190Y-44754819D02*
X50476190Y-43754819D01*
X50476190Y-43754819D02*
X50380952Y-43897676D01*
X50380952Y-43897676D02*
X50285714Y-43992914D01*
X50285714Y-43992914D02*
X50190476Y-44040533D01*
X149690476Y-41254819D02*
X150357142Y-42254819D01*
X150357142Y-41254819D02*
X149690476Y-42254819D01*
X151309523Y-42254819D02*
X150976190Y-41778628D01*
X150738095Y-42254819D02*
X150738095Y-41254819D01*
X150738095Y-41254819D02*
X151119047Y-41254819D01*
X151119047Y-41254819D02*
X151214285Y-41302438D01*
X151214285Y-41302438D02*
X151261904Y-41350057D01*
X151261904Y-41350057D02*
X151309523Y-41445295D01*
X151309523Y-41445295D02*
X151309523Y-41588152D01*
X151309523Y-41588152D02*
X151261904Y-41683390D01*
X151261904Y-41683390D02*
X151214285Y-41731009D01*
X151214285Y-41731009D02*
X151119047Y-41778628D01*
X151119047Y-41778628D02*
X150738095Y-41778628D01*
X152166666Y-41254819D02*
X151976190Y-41254819D01*
X151976190Y-41254819D02*
X151880952Y-41302438D01*
X151880952Y-41302438D02*
X151833333Y-41350057D01*
X151833333Y-41350057D02*
X151738095Y-41492914D01*
X151738095Y-41492914D02*
X151690476Y-41683390D01*
X151690476Y-41683390D02*
X151690476Y-42064342D01*
X151690476Y-42064342D02*
X151738095Y-42159580D01*
X151738095Y-42159580D02*
X151785714Y-42207200D01*
X151785714Y-42207200D02*
X151880952Y-42254819D01*
X151880952Y-42254819D02*
X152071428Y-42254819D01*
X152071428Y-42254819D02*
X152166666Y-42207200D01*
X152166666Y-42207200D02*
X152214285Y-42159580D01*
X152214285Y-42159580D02*
X152261904Y-42064342D01*
X152261904Y-42064342D02*
X152261904Y-41826247D01*
X152261904Y-41826247D02*
X152214285Y-41731009D01*
X152214285Y-41731009D02*
X152166666Y-41683390D01*
X152166666Y-41683390D02*
X152071428Y-41635771D01*
X152071428Y-41635771D02*
X151880952Y-41635771D01*
X151880952Y-41635771D02*
X151785714Y-41683390D01*
X151785714Y-41683390D02*
X151738095Y-41731009D01*
X151738095Y-41731009D02*
X151690476Y-41826247D01*
X193414824Y-103114040D02*
X193414824Y-103590230D01*
X193414824Y-103590230D02*
X192414824Y-103590230D01*
X192891014Y-102780706D02*
X192891014Y-102447373D01*
X193414824Y-102304516D02*
X193414824Y-102780706D01*
X193414824Y-102780706D02*
X192414824Y-102780706D01*
X192414824Y-102780706D02*
X192414824Y-102304516D01*
X193414824Y-101875944D02*
X192414824Y-101875944D01*
X192414824Y-101875944D02*
X192414824Y-101637849D01*
X192414824Y-101637849D02*
X192462443Y-101494992D01*
X192462443Y-101494992D02*
X192557681Y-101399754D01*
X192557681Y-101399754D02*
X192652919Y-101352135D01*
X192652919Y-101352135D02*
X192843395Y-101304516D01*
X192843395Y-101304516D02*
X192986252Y-101304516D01*
X192986252Y-101304516D02*
X193176728Y-101352135D01*
X193176728Y-101352135D02*
X193271966Y-101399754D01*
X193271966Y-101399754D02*
X193367205Y-101494992D01*
X193367205Y-101494992D02*
X193414824Y-101637849D01*
X193414824Y-101637849D02*
X193414824Y-101875944D01*
X192510062Y-100923563D02*
X192462443Y-100875944D01*
X192462443Y-100875944D02*
X192414824Y-100780706D01*
X192414824Y-100780706D02*
X192414824Y-100542611D01*
X192414824Y-100542611D02*
X192462443Y-100447373D01*
X192462443Y-100447373D02*
X192510062Y-100399754D01*
X192510062Y-100399754D02*
X192605300Y-100352135D01*
X192605300Y-100352135D02*
X192700538Y-100352135D01*
X192700538Y-100352135D02*
X192843395Y-100399754D01*
X192843395Y-100399754D02*
X193414824Y-100971182D01*
X193414824Y-100971182D02*
X193414824Y-100352135D01*
X184690476Y-132254819D02*
X185357142Y-133254819D01*
X185357142Y-132254819D02*
X184690476Y-133254819D01*
X186309523Y-133254819D02*
X185976190Y-132778628D01*
X185738095Y-133254819D02*
X185738095Y-132254819D01*
X185738095Y-132254819D02*
X186119047Y-132254819D01*
X186119047Y-132254819D02*
X186214285Y-132302438D01*
X186214285Y-132302438D02*
X186261904Y-132350057D01*
X186261904Y-132350057D02*
X186309523Y-132445295D01*
X186309523Y-132445295D02*
X186309523Y-132588152D01*
X186309523Y-132588152D02*
X186261904Y-132683390D01*
X186261904Y-132683390D02*
X186214285Y-132731009D01*
X186214285Y-132731009D02*
X186119047Y-132778628D01*
X186119047Y-132778628D02*
X185738095Y-132778628D01*
X186785714Y-133254819D02*
X186976190Y-133254819D01*
X186976190Y-133254819D02*
X187071428Y-133207200D01*
X187071428Y-133207200D02*
X187119047Y-133159580D01*
X187119047Y-133159580D02*
X187214285Y-133016723D01*
X187214285Y-133016723D02*
X187261904Y-132826247D01*
X187261904Y-132826247D02*
X187261904Y-132445295D01*
X187261904Y-132445295D02*
X187214285Y-132350057D01*
X187214285Y-132350057D02*
X187166666Y-132302438D01*
X187166666Y-132302438D02*
X187071428Y-132254819D01*
X187071428Y-132254819D02*
X186880952Y-132254819D01*
X186880952Y-132254819D02*
X186785714Y-132302438D01*
X186785714Y-132302438D02*
X186738095Y-132350057D01*
X186738095Y-132350057D02*
X186690476Y-132445295D01*
X186690476Y-132445295D02*
X186690476Y-132683390D01*
X186690476Y-132683390D02*
X186738095Y-132778628D01*
X186738095Y-132778628D02*
X186785714Y-132826247D01*
X186785714Y-132826247D02*
X186880952Y-132873866D01*
X186880952Y-132873866D02*
X187071428Y-132873866D01*
X187071428Y-132873866D02*
X187166666Y-132826247D01*
X187166666Y-132826247D02*
X187214285Y-132778628D01*
X187214285Y-132778628D02*
X187261904Y-132683390D01*
X186164822Y-103114047D02*
X186164822Y-103590237D01*
X186164822Y-103590237D02*
X185164822Y-103590237D01*
X185641012Y-102780713D02*
X185641012Y-102447380D01*
X186164822Y-102304523D02*
X186164822Y-102780713D01*
X186164822Y-102780713D02*
X185164822Y-102780713D01*
X185164822Y-102780713D02*
X185164822Y-102304523D01*
X186164822Y-101875951D02*
X185164822Y-101875951D01*
X185164822Y-101875951D02*
X185164822Y-101637856D01*
X185164822Y-101637856D02*
X185212441Y-101494999D01*
X185212441Y-101494999D02*
X185307679Y-101399761D01*
X185307679Y-101399761D02*
X185402917Y-101352142D01*
X185402917Y-101352142D02*
X185593393Y-101304523D01*
X185593393Y-101304523D02*
X185736250Y-101304523D01*
X185736250Y-101304523D02*
X185926726Y-101352142D01*
X185926726Y-101352142D02*
X186021964Y-101399761D01*
X186021964Y-101399761D02*
X186117203Y-101494999D01*
X186117203Y-101494999D02*
X186164822Y-101637856D01*
X186164822Y-101637856D02*
X186164822Y-101875951D01*
X186164822Y-100352142D02*
X186164822Y-100923570D01*
X186164822Y-100637856D02*
X185164822Y-100637856D01*
X185164822Y-100637856D02*
X185307679Y-100733094D01*
X185307679Y-100733094D02*
X185402917Y-100828332D01*
X185402917Y-100828332D02*
X185450536Y-100923570D01*
D11*
%TO.C,XC4*%
X98550000Y-34550000D02*
X98550000Y-36450000D01*
X98550000Y-36450000D02*
X100400000Y-36450000D01*
X100400000Y-34550000D02*
X98550000Y-34550000D01*
X100400000Y-34600000D02*
X100400000Y-34550000D01*
X100400000Y-36450000D02*
X100400000Y-34600000D01*
%TO.C,XC8*%
X176050000Y-39050000D02*
X176050000Y-40950000D01*
X176050000Y-40950000D02*
X177900000Y-40950000D01*
X177900000Y-39050000D02*
X176050000Y-39050000D01*
X177900000Y-39100000D02*
X177900000Y-39050000D01*
X177900000Y-40950000D02*
X177900000Y-39100000D01*
%TO.C,XR8*%
X189550000Y-39050000D02*
X189550000Y-40950000D01*
X189550000Y-40950000D02*
X191400000Y-40950000D01*
X191400000Y-39050000D02*
X189550000Y-39050000D01*
X191400000Y-39100000D02*
X191400000Y-39050000D01*
X191400000Y-40950000D02*
X191400000Y-39100000D01*
%TO.C,XC9*%
X187550000Y-134300000D02*
X187550000Y-136200000D01*
X187550000Y-136200000D02*
X189400000Y-136200000D01*
X189400000Y-134300000D02*
X187550000Y-134300000D01*
X189400000Y-134350000D02*
X189400000Y-134300000D01*
X189400000Y-136200000D02*
X189400000Y-134350000D01*
%TO.C,XR2*%
X61550000Y-41550000D02*
X61550000Y-43450000D01*
X61550000Y-43450000D02*
X63400000Y-43450000D01*
X63400000Y-41550000D02*
X61550000Y-41550000D01*
X63400000Y-41600000D02*
X63400000Y-41550000D01*
X63400000Y-43450000D02*
X63400000Y-41600000D01*
%TO.C,XC3*%
X88550000Y-37050000D02*
X88550000Y-38950000D01*
X88550000Y-38950000D02*
X90400000Y-38950000D01*
X90400000Y-37050000D02*
X88550000Y-37050000D01*
X90400000Y-37100000D02*
X90400000Y-37050000D01*
X90400000Y-38950000D02*
X90400000Y-37100000D01*
%TO.C,XC5*%
X118050000Y-37050000D02*
X118050000Y-38950000D01*
X118050000Y-38950000D02*
X119900000Y-38950000D01*
X119900000Y-37050000D02*
X118050000Y-37050000D01*
X119900000Y-37100000D02*
X119900000Y-37050000D01*
X119900000Y-38950000D02*
X119900000Y-37100000D01*
%TO.C,XR4*%
X111550000Y-34550000D02*
X111550000Y-36450000D01*
X111550000Y-36450000D02*
X113400000Y-36450000D01*
X113400000Y-34550000D02*
X111550000Y-34550000D01*
X113400000Y-34600000D02*
X113400000Y-34550000D01*
X113400000Y-36450000D02*
X113400000Y-34600000D01*
%TO.C,XR3*%
X93550000Y-37050000D02*
X93550000Y-38950000D01*
X93550000Y-38950000D02*
X95400000Y-38950000D01*
X95400000Y-37050000D02*
X93550000Y-37050000D01*
X95400000Y-37100000D02*
X95400000Y-37050000D01*
X95400000Y-38950000D02*
X95400000Y-37100000D01*
%TO.C,XR7*%
X169550000Y-39050000D02*
X169550000Y-40950000D01*
X169550000Y-40950000D02*
X171400000Y-40950000D01*
X171400000Y-39050000D02*
X169550000Y-39050000D01*
X171400000Y-39100000D02*
X171400000Y-39050000D01*
X171400000Y-40950000D02*
X171400000Y-39100000D01*
%TO.C,XC1*%
X42050000Y-41496388D02*
X42050000Y-43396388D01*
X42050000Y-43396388D02*
X43900000Y-43396388D01*
X43900000Y-41496388D02*
X42050000Y-41496388D01*
X43900000Y-41546388D02*
X43900000Y-41496388D01*
X43900000Y-43396388D02*
X43900000Y-41546388D01*
%TO.C,XC2*%
X56050000Y-41550000D02*
X56050000Y-43450000D01*
X56050000Y-43450000D02*
X57900000Y-43450000D01*
X57900000Y-41550000D02*
X56050000Y-41550000D01*
X57900000Y-41600000D02*
X57900000Y-41550000D01*
X57900000Y-43450000D02*
X57900000Y-41600000D01*
%TO.C,XC7*%
X156550000Y-39050000D02*
X156550000Y-40950000D01*
X156550000Y-40950000D02*
X158400000Y-40950000D01*
X158400000Y-39050000D02*
X156550000Y-39050000D01*
X158400000Y-39100000D02*
X158400000Y-39050000D01*
X158400000Y-40950000D02*
X158400000Y-39100000D01*
%TO.C,RE1*%
X178049985Y-86000011D02*
X178049994Y-83600015D01*
X178049987Y-90800008D02*
X178049996Y-88200005D01*
X178049994Y-83600015D02*
X182149995Y-83600007D01*
X178049998Y-95400016D02*
X178049997Y-93000012D01*
X182149999Y-95400012D02*
X178049998Y-95400016D01*
X184149997Y-90000007D02*
X184149999Y-89000017D01*
X184649998Y-89500014D02*
X183649997Y-89500013D01*
X186149996Y-83600008D02*
X190249991Y-83600017D01*
X186150000Y-95400010D02*
X190250002Y-95400022D01*
X190250002Y-95400022D02*
X190249991Y-83600017D01*
X191349998Y-93600019D02*
X191649992Y-93300017D01*
X191649992Y-93300017D02*
X191949993Y-93600019D01*
X191949993Y-93600019D02*
X191349998Y-93600019D01*
X187149990Y-89500015D02*
G75*
G02*
X181150000Y-89500015I-2999995J0D01*
G01*
X181150000Y-89500015D02*
G75*
G02*
X187149990Y-89500015I2999995J0D01*
G01*
%TO.C,J2*%
X65983765Y-38258552D02*
X67043765Y-38258552D01*
X65983765Y-39318552D02*
X65983765Y-38258552D01*
X68043765Y-38258552D02*
X74103765Y-38258552D01*
X68043765Y-40378552D02*
X68043765Y-38258552D01*
X68043765Y-40378552D02*
X74103765Y-40378552D01*
X74103765Y-40378552D02*
X74103765Y-38258552D01*
%TO.C,XC6*%
X137050000Y-39050000D02*
X137050000Y-40950000D01*
X137050000Y-40950000D02*
X138900000Y-40950000D01*
X138900000Y-39050000D02*
X137050000Y-39050000D01*
X138900000Y-39100000D02*
X138900000Y-39050000D01*
X138900000Y-40950000D02*
X138900000Y-39100000D01*
%TO.C,XR5*%
X130050000Y-36550000D02*
X130050000Y-38450000D01*
X130050000Y-38450000D02*
X131900000Y-38450000D01*
X131900000Y-36550000D02*
X130050000Y-36550000D01*
X131900000Y-36600000D02*
X131900000Y-36550000D01*
X131900000Y-38450000D02*
X131900000Y-36600000D01*
%TO.C,XR1*%
X48550000Y-41550000D02*
X48550000Y-43450000D01*
X48550000Y-43450000D02*
X50400000Y-43450000D01*
X50400000Y-41550000D02*
X48550000Y-41550000D01*
X50400000Y-41600000D02*
X50400000Y-41550000D01*
X50400000Y-43450000D02*
X50400000Y-41600000D01*
%TO.C,XR6*%
X150050000Y-39050000D02*
X150050000Y-40950000D01*
X150050000Y-40950000D02*
X151900000Y-40950000D01*
X151900000Y-39050000D02*
X150050000Y-39050000D01*
X151900000Y-39100000D02*
X151900000Y-39050000D01*
X151900000Y-40950000D02*
X151900000Y-39100000D01*
%TO.C,LED2*%
X190545007Y-99434989D02*
X187455004Y-99434997D01*
X189000465Y-104984996D02*
G75*
G02*
X187455171Y-99435003I-464J2989997D01*
G01*
X190544837Y-99434993D02*
G75*
G02*
X188999548Y-104984988I-1544824J-2559999D01*
G01*
X191500003Y-101994996D02*
G75*
G02*
X186500003Y-101994996I-2500000J0D01*
G01*
X186500003Y-101994996D02*
G75*
G02*
X191500003Y-101994996I2500000J0D01*
G01*
%TO.C,XR9*%
X185050000Y-130050000D02*
X185050000Y-131950000D01*
X185050000Y-131950000D02*
X186900000Y-131950000D01*
X186900000Y-130050000D02*
X185050000Y-130050000D01*
X186900000Y-130100000D02*
X186900000Y-130050000D01*
X186900000Y-131950000D02*
X186900000Y-130100000D01*
%TO.C,LED1*%
X183294998Y-99434993D02*
X180205002Y-99435004D01*
X181750463Y-104985000D02*
G75*
G02*
X180205176Y-99435001I-458J2989999D01*
G01*
X183294831Y-99435001D02*
G75*
G02*
X181749543Y-104984998I-1544817J-2560002D01*
G01*
X184250005Y-101994994D02*
G75*
G02*
X179250003Y-101994994I-2500001J0D01*
G01*
X179250003Y-101994994D02*
G75*
G02*
X184250005Y-101994994I2500001J0D01*
G01*
%TD*%
%LPC*%
D12*
%TO.C,XC4*%
X99500000Y-35500000D03*
%TD*%
%TO.C,XC8*%
X177000000Y-40000000D03*
%TD*%
D13*
%TO.C,REF\u002A\u002A*%
X105500000Y-135000000D03*
%TD*%
D12*
%TO.C,XR8*%
X190500000Y-40000000D03*
%TD*%
%TO.C,XC9*%
X188500000Y-135250000D03*
%TD*%
%TO.C,XR2*%
X62500000Y-42500000D03*
%TD*%
%TO.C,XC3*%
X89500000Y-38000000D03*
%TD*%
%TO.C,XC5*%
X119000000Y-38000000D03*
%TD*%
%TO.C,XR4*%
X112500000Y-35500000D03*
%TD*%
%TO.C,XR3*%
X94500000Y-38000000D03*
%TD*%
%TO.C,XR7*%
X170500000Y-40000000D03*
%TD*%
D13*
%TO.C,REF\u002A\u002A*%
X181500000Y-34000000D03*
%TD*%
%TO.C,REF\u002A\u002A*%
X185500000Y-140000000D03*
%TD*%
D12*
%TO.C,XC1*%
X43000000Y-42446388D03*
%TD*%
%TO.C,XC2*%
X57000000Y-42500000D03*
%TD*%
%TO.C,XC7*%
X157500000Y-40000000D03*
%TD*%
D14*
%TO.C,RE1*%
X191649997Y-87000011D03*
D15*
X191649997Y-92000014D03*
D14*
X191649997Y-89500018D03*
D16*
X184149997Y-95100014D03*
X184149995Y-83900009D03*
D14*
X177149994Y-87000018D03*
X177149997Y-92000018D03*
%TD*%
D17*
%TO.C,J2*%
X67043765Y-39318552D03*
D18*
X69043765Y-39318552D03*
X71043765Y-39318552D03*
X73043765Y-39318552D03*
%TD*%
D13*
%TO.C,REF\u002A\u002A*%
X53500000Y-35000000D03*
%TD*%
D12*
%TO.C,XC6*%
X138000000Y-40000000D03*
%TD*%
D13*
%TO.C,REF\u002A\u002A*%
X133500000Y-118000000D03*
%TD*%
D12*
%TO.C,XR5*%
X131000000Y-37500000D03*
%TD*%
%TO.C,XR1*%
X49500000Y-42500000D03*
%TD*%
%TO.C,XR6*%
X151000000Y-40000000D03*
%TD*%
D19*
%TO.C,LED2*%
X189000003Y-100724996D03*
D20*
X189000003Y-103264997D03*
%TD*%
D12*
%TO.C,XR9*%
X186000000Y-131000000D03*
%TD*%
D19*
%TO.C,LED1*%
X181750002Y-100724999D03*
D20*
X181750001Y-103264997D03*
%TD*%
D21*
%TO.C,SW14*%
X189095000Y-70123500D03*
D22*
X183595000Y-70123500D03*
D21*
X178095000Y-70123500D03*
%TD*%
%TO.C,SW15*%
X55745000Y-72600000D03*
D22*
X50245000Y-72600000D03*
D21*
X44745000Y-72600000D03*
%TD*%
%TO.C,SW29*%
X74795000Y-110700000D03*
D22*
X69295000Y-110700000D03*
D21*
X63795000Y-110700000D03*
%TD*%
%TO.C,SW33*%
X55745000Y-129750000D03*
D22*
X50245000Y-129750000D03*
D21*
X44745000Y-129750000D03*
%TD*%
D23*
%TO.C,J1*%
X66790002Y-29649998D03*
X72570000Y-29649995D03*
D24*
X65359999Y-30179999D03*
D25*
X65360000Y-25999998D03*
D24*
X74000000Y-30179998D03*
D25*
X74000002Y-25999998D03*
%TD*%
D21*
%TO.C,SW10*%
X93845000Y-67837499D03*
D22*
X88345000Y-67837499D03*
D21*
X82845000Y-67837499D03*
%TD*%
%TO.C,SW27*%
X150995000Y-108223500D03*
D22*
X145495000Y-108223500D03*
D21*
X139995000Y-108223500D03*
%TD*%
%TO.C,SW8*%
X74795000Y-53549999D03*
D22*
X69295000Y-53549999D03*
D21*
X63795000Y-53549999D03*
%TD*%
%TO.C,SW2*%
X93845000Y-48787499D03*
D22*
X88345000Y-48787499D03*
D21*
X82845000Y-48787499D03*
%TD*%
%TO.C,SW35*%
X93845000Y-129750000D03*
D22*
X88345000Y-129750000D03*
D21*
X82845000Y-129750000D03*
%TD*%
%TO.C,SW31*%
X181124374Y-115534220D03*
D22*
X186436966Y-116957725D03*
D21*
X191749558Y-118381230D03*
%TD*%
%TO.C,SW11*%
X131945000Y-67837499D03*
D22*
X126445000Y-67837499D03*
D21*
X120945000Y-67837499D03*
%TD*%
%TO.C,SW5*%
X170045000Y-51073500D03*
D22*
X164545000Y-51073500D03*
D21*
X159045000Y-51073500D03*
%TD*%
%TO.C,SW6*%
X189095000Y-51073500D03*
D22*
X183595000Y-51073500D03*
D21*
X178095000Y-51073500D03*
%TD*%
%TO.C,SW16*%
X74795000Y-72600000D03*
D22*
X69295000Y-72600000D03*
D21*
X63795000Y-72600000D03*
%TD*%
%TO.C,SW36*%
X129658279Y-129678755D03*
D22*
X135137350Y-130158112D03*
D21*
X140616421Y-130637469D03*
%TD*%
%TO.C,SW28*%
X55745000Y-110700000D03*
D22*
X50245000Y-110700000D03*
D21*
X44745000Y-110700000D03*
%TD*%
%TO.C,SW21*%
X170045000Y-89173500D03*
D22*
X164545000Y-89173500D03*
D21*
X159045000Y-89173500D03*
%TD*%
%TO.C,SW34*%
X74795000Y-129750000D03*
D22*
X69295000Y-129750000D03*
D21*
X63795000Y-129750000D03*
%TD*%
%TO.C,SW38*%
X166752776Y-131404620D03*
D22*
X172065368Y-132828125D03*
D21*
X177377960Y-134251630D03*
%TD*%
%TO.C,SW22*%
X55745000Y-91650000D03*
D22*
X50245000Y-91650000D03*
D21*
X44745000Y-91650000D03*
%TD*%
%TO.C,SW3*%
X131945000Y-48787499D03*
D22*
X126445000Y-48787499D03*
D21*
X120945000Y-48787499D03*
%TD*%
%TO.C,SW1*%
X112895000Y-46311000D03*
D22*
X107395000Y-46311000D03*
D21*
X101895000Y-46311000D03*
%TD*%
%TO.C,SW30*%
X162647435Y-110576495D03*
D22*
X167960027Y-112000000D03*
D21*
X173272619Y-113423505D03*
%TD*%
%TO.C,SW23*%
X74795000Y-91650000D03*
D22*
X69295000Y-91650000D03*
D21*
X63795000Y-91650000D03*
%TD*%
%TO.C,SW26*%
X131945000Y-105937500D03*
D22*
X126445000Y-105937500D03*
D21*
X120945000Y-105937500D03*
%TD*%
%TO.C,SW32*%
X112895000Y-122511000D03*
D22*
X107395000Y-122511000D03*
D21*
X101895000Y-122511000D03*
%TD*%
%TO.C,SW18*%
X93845000Y-86887500D03*
D22*
X88345000Y-86887500D03*
D21*
X82845000Y-86887500D03*
%TD*%
%TO.C,SW4*%
X150995000Y-51073500D03*
D22*
X145495000Y-51073500D03*
D21*
X139995000Y-51073500D03*
%TD*%
%TO.C,SW25*%
X93845000Y-105937500D03*
D22*
X88345000Y-105937500D03*
D21*
X82845000Y-105937500D03*
%TD*%
%TO.C,SW24*%
X112895000Y-103461000D03*
D22*
X107395000Y-103461000D03*
D21*
X101895000Y-103461000D03*
%TD*%
%TO.C,SW13*%
X170045000Y-70123500D03*
D22*
X164545000Y-70123500D03*
D21*
X159045000Y-70123500D03*
%TD*%
%TO.C,SW17*%
X112895000Y-84411000D03*
D22*
X107395000Y-84411000D03*
D21*
X101895000Y-84411000D03*
%TD*%
%TO.C,SW12*%
X150995000Y-70123500D03*
D22*
X145495000Y-70123500D03*
D21*
X139995000Y-70123500D03*
%TD*%
%TO.C,SW9*%
X112895000Y-65361000D03*
D22*
X107395000Y-65361000D03*
D21*
X101895000Y-65361000D03*
%TD*%
D18*
%TO.C,J4*%
X81000000Y-35000001D03*
X82999995Y-34999999D03*
D17*
X84999999Y-35000000D03*
D18*
X78999998Y-35000003D03*
%TD*%
D21*
%TO.C,SW19*%
X131945000Y-86887500D03*
D22*
X126445000Y-86887500D03*
D21*
X120945000Y-86887500D03*
%TD*%
%TO.C,SW7*%
X55745000Y-53549999D03*
D22*
X50245000Y-53549999D03*
D21*
X44745000Y-53549999D03*
%TD*%
%TO.C,SW20*%
X150995000Y-89173500D03*
D22*
X145495000Y-89173500D03*
D21*
X139995000Y-89173500D03*
%TD*%
%LPD*%
M02*
