M48
; DRILL file {KiCad 8.0.1-rc1} date 2024-04-23T13:15:56-0500
; FORMAT={-:-/ absolute / inch / decimal}
; #@! TF.CreationDate,2024-04-23T13:15:56-05:00
; #@! TF.GenerationSoftware,Kicad,Pcbnew,8.0.1-rc1
; #@! TF.FileFunction,NonPlated,1,2,NPTH
FMAT,2
INCH
; #@! TA.AperFunction,NonPlated,NPTH,ComponentDrill
T1C0.0256
; #@! TA.AperFunction,NonPlated,NPTH,ComponentDrill
T2C0.0669
; #@! TA.AperFunction,NonPlated,NPTH,ComponentDrill
T3C0.0866
; #@! TA.AperFunction,NonPlated,NPTH,ComponentDrill
T4C0.1339
%
G90
G05
T1
X2.6295Y-1.1673
X2.8571Y-1.1673
T2
X1.7616Y-2.1083
X1.7616Y-2.8583
X1.7616Y-3.6083
X1.7616Y-4.3583
X1.7616Y-5.1083
X2.1947Y-2.1083
X2.1947Y-2.8583
X2.1947Y-3.6083
X2.1947Y-4.3583
X2.1947Y-5.1083
X2.5116Y-2.1083
X2.5116Y-2.8583
X2.5116Y-3.6083
X2.5116Y-4.3583
X2.5116Y-5.1083
X2.9447Y-2.1083
X2.9447Y-2.8583
X2.9447Y-3.6083
X2.9447Y-4.3583
X2.9447Y-5.1083
X3.2616Y-1.9208
X3.2616Y-2.6708
X3.2616Y-3.4208
X3.2616Y-4.1708
X3.2616Y-5.1083
X3.6947Y-1.9208
X3.6947Y-2.6708
X3.6947Y-3.4208
X3.6947Y-4.1708
X3.6947Y-5.1083
X4.0116Y-1.8233
X4.0116Y-2.5733
X4.0116Y-3.3233
X4.0116Y-4.0733
X4.0116Y-4.8233
X4.4447Y-1.8233
X4.4447Y-2.5733
X4.4447Y-3.3233
X4.4447Y-4.0733
X4.4447Y-4.8233
X4.7616Y-1.9208
X4.7616Y-2.6708
X4.7616Y-3.4208
X4.7616Y-4.1708
X5.1047Y-5.1055
X5.1947Y-1.9208
X5.1947Y-2.6708
X5.1947Y-3.4208
X5.1947Y-4.1708
X5.5116Y-2.0108
X5.5116Y-2.7608
X5.5116Y-3.5108
X5.5116Y-4.2608
X5.5361Y-5.1432
X5.9447Y-2.0108
X5.9447Y-2.7608
X5.9447Y-3.5108
X5.9447Y-4.2608
X6.2616Y-2.0108
X6.2616Y-2.7608
X6.2616Y-3.5108
X6.4034Y-4.3534
X6.5651Y-5.1734
X6.6947Y-2.0108
X6.6947Y-2.7608
X6.6947Y-3.5108
X6.8218Y-4.4655
X6.9834Y-5.2855
X7.0116Y-2.0108
X7.0116Y-2.7608
X7.1309Y-4.5486
X7.4447Y-2.0108
X7.4447Y-2.7608
X7.5492Y-4.6607
T3
X2.1063Y-1.378
X4.1535Y-5.315
X5.2559Y-4.6457
X7.1457Y-1.3386
X7.3031Y-5.5118
T4
X1.9781Y-2.1083
X1.9781Y-2.8583
X1.9781Y-3.6083
X1.9781Y-4.3583
X1.9781Y-5.1083
X2.7281Y-2.1083
X2.7281Y-2.8583
X2.7281Y-3.6083
X2.7281Y-4.3583
X2.7281Y-5.1083
X3.4781Y-1.9208
X3.4781Y-2.6708
X3.4781Y-3.4208
X3.4781Y-4.1708
X3.4781Y-5.1083
X4.2281Y-1.8233
X4.2281Y-2.5733
X4.2281Y-3.3233
X4.2281Y-4.0733
X4.2281Y-4.8233
X4.9781Y-1.9208
X4.9781Y-2.6708
X4.9781Y-3.4208
X4.9781Y-4.1708
X5.3204Y-5.1243
X5.7281Y-2.0108
X5.7281Y-2.7608
X5.7281Y-3.5108
X5.7281Y-4.2608
X6.4781Y-2.0108
X6.4781Y-2.7608
X6.4781Y-3.5108
X6.6126Y-4.4094
X6.7742Y-5.2295
X7.2281Y-2.0108
X7.2281Y-2.7608
X7.34Y-4.6046
M30
