%TF.GenerationSoftware,KiCad,Pcbnew,8.0.1-rc1*%
%TF.CreationDate,2024-04-23T13:15:56-05:00*%
%TF.ProjectId,ergomax_left,6572676f-6d61-4785-9f6c-6566742e6b69,rev?*%
%TF.SameCoordinates,Original*%
%TF.FileFunction,Soldermask,Top*%
%TF.FilePolarity,Negative*%
%FSLAX46Y46*%
G04 Gerber Fmt 4.6, Leading zero omitted, Abs format (unit mm)*
G04 Created by KiCad (PCBNEW 8.0.1-rc1) date 2024-04-23 13:15:56*
%MOMM*%
%LPD*%
G01*
G04 APERTURE LIST*
%ADD10C,1.400000*%
%ADD11C,2.200000*%
%ADD12C,2.000000*%
%ADD13R,2.000000X2.000000*%
%ADD14R,3.200000X2.000000*%
%ADD15R,1.350000X1.350000*%
%ADD16O,1.350000X1.350000*%
%ADD17R,1.800000X1.800000*%
%ADD18C,1.800000*%
%ADD19C,1.700000*%
%ADD20C,3.400000*%
%ADD21C,0.650000*%
%ADD22O,1.000000X2.100000*%
%ADD23O,1.000000X1.600000*%
G04 APERTURE END LIST*
D10*
%TO.C,XC4*%
X99500000Y-35500000D03*
%TD*%
%TO.C,XC8*%
X177000000Y-40000000D03*
%TD*%
D11*
%TO.C,REF\u002A\u002A*%
X105500000Y-135000000D03*
%TD*%
D10*
%TO.C,XR8*%
X190500000Y-40000000D03*
%TD*%
%TO.C,XC9*%
X188500000Y-135250000D03*
%TD*%
%TO.C,XR2*%
X62500000Y-42500000D03*
%TD*%
%TO.C,XC3*%
X89500000Y-38000000D03*
%TD*%
%TO.C,XC5*%
X119000000Y-38000000D03*
%TD*%
%TO.C,XR4*%
X112500000Y-35500000D03*
%TD*%
%TO.C,XR3*%
X94500000Y-38000000D03*
%TD*%
%TO.C,XR7*%
X170500000Y-40000000D03*
%TD*%
D11*
%TO.C,REF\u002A\u002A*%
X181500000Y-34000000D03*
%TD*%
%TO.C,REF\u002A\u002A*%
X185500000Y-140000000D03*
%TD*%
D10*
%TO.C,XC1*%
X43000000Y-42446388D03*
%TD*%
%TO.C,XC2*%
X57000000Y-42500000D03*
%TD*%
%TO.C,XC7*%
X157500000Y-40000000D03*
%TD*%
D12*
%TO.C,RE1*%
X191649997Y-87000011D03*
D13*
X191649997Y-92000014D03*
D12*
X191649997Y-89500018D03*
D14*
X184149997Y-95100014D03*
X184149995Y-83900009D03*
D12*
X177149994Y-87000018D03*
X177149997Y-92000018D03*
%TD*%
D15*
%TO.C,J2*%
X67043765Y-39318552D03*
D16*
X69043765Y-39318552D03*
X71043765Y-39318552D03*
X73043765Y-39318552D03*
%TD*%
D11*
%TO.C,REF\u002A\u002A*%
X53500000Y-35000000D03*
%TD*%
D10*
%TO.C,XC6*%
X138000000Y-40000000D03*
%TD*%
D11*
%TO.C,REF\u002A\u002A*%
X133500000Y-118000000D03*
%TD*%
D10*
%TO.C,XR5*%
X131000000Y-37500000D03*
%TD*%
%TO.C,XR1*%
X49500000Y-42500000D03*
%TD*%
%TO.C,XR6*%
X151000000Y-40000000D03*
%TD*%
D17*
%TO.C,LED2*%
X189000003Y-100724996D03*
D18*
X189000003Y-103264997D03*
%TD*%
D10*
%TO.C,XR9*%
X186000000Y-131000000D03*
%TD*%
D17*
%TO.C,LED1*%
X181750002Y-100724999D03*
D18*
X181750001Y-103264997D03*
%TD*%
D19*
%TO.C,SW14*%
X189095000Y-70123500D03*
D20*
X183595000Y-70123500D03*
D19*
X178095000Y-70123500D03*
%TD*%
%TO.C,SW15*%
X55745000Y-72600000D03*
D20*
X50245000Y-72600000D03*
D19*
X44745000Y-72600000D03*
%TD*%
%TO.C,SW29*%
X74795000Y-110700000D03*
D20*
X69295000Y-110700000D03*
D19*
X63795000Y-110700000D03*
%TD*%
%TO.C,SW33*%
X55745000Y-129750000D03*
D20*
X50245000Y-129750000D03*
D19*
X44745000Y-129750000D03*
%TD*%
D21*
%TO.C,J1*%
X66790002Y-29649998D03*
X72570000Y-29649995D03*
D22*
X65359999Y-30179999D03*
D23*
X65360000Y-25999998D03*
D22*
X74000000Y-30179998D03*
D23*
X74000002Y-25999998D03*
%TD*%
D19*
%TO.C,SW10*%
X93845000Y-67837499D03*
D20*
X88345000Y-67837499D03*
D19*
X82845000Y-67837499D03*
%TD*%
%TO.C,SW27*%
X150995000Y-108223500D03*
D20*
X145495000Y-108223500D03*
D19*
X139995000Y-108223500D03*
%TD*%
%TO.C,SW8*%
X74795000Y-53549999D03*
D20*
X69295000Y-53549999D03*
D19*
X63795000Y-53549999D03*
%TD*%
%TO.C,SW2*%
X93845000Y-48787499D03*
D20*
X88345000Y-48787499D03*
D19*
X82845000Y-48787499D03*
%TD*%
%TO.C,SW35*%
X93845000Y-129750000D03*
D20*
X88345000Y-129750000D03*
D19*
X82845000Y-129750000D03*
%TD*%
%TO.C,SW31*%
X181124374Y-115534220D03*
D20*
X186436966Y-116957725D03*
D19*
X191749558Y-118381230D03*
%TD*%
%TO.C,SW11*%
X131945000Y-67837499D03*
D20*
X126445000Y-67837499D03*
D19*
X120945000Y-67837499D03*
%TD*%
%TO.C,SW5*%
X170045000Y-51073500D03*
D20*
X164545000Y-51073500D03*
D19*
X159045000Y-51073500D03*
%TD*%
%TO.C,SW6*%
X189095000Y-51073500D03*
D20*
X183595000Y-51073500D03*
D19*
X178095000Y-51073500D03*
%TD*%
%TO.C,SW16*%
X74795000Y-72600000D03*
D20*
X69295000Y-72600000D03*
D19*
X63795000Y-72600000D03*
%TD*%
%TO.C,SW36*%
X129658279Y-129678755D03*
D20*
X135137350Y-130158112D03*
D19*
X140616421Y-130637469D03*
%TD*%
%TO.C,SW28*%
X55745000Y-110700000D03*
D20*
X50245000Y-110700000D03*
D19*
X44745000Y-110700000D03*
%TD*%
%TO.C,SW21*%
X170045000Y-89173500D03*
D20*
X164545000Y-89173500D03*
D19*
X159045000Y-89173500D03*
%TD*%
%TO.C,SW34*%
X74795000Y-129750000D03*
D20*
X69295000Y-129750000D03*
D19*
X63795000Y-129750000D03*
%TD*%
%TO.C,SW38*%
X166752776Y-131404620D03*
D20*
X172065368Y-132828125D03*
D19*
X177377960Y-134251630D03*
%TD*%
%TO.C,SW22*%
X55745000Y-91650000D03*
D20*
X50245000Y-91650000D03*
D19*
X44745000Y-91650000D03*
%TD*%
%TO.C,SW3*%
X131945000Y-48787499D03*
D20*
X126445000Y-48787499D03*
D19*
X120945000Y-48787499D03*
%TD*%
%TO.C,SW1*%
X112895000Y-46311000D03*
D20*
X107395000Y-46311000D03*
D19*
X101895000Y-46311000D03*
%TD*%
%TO.C,SW30*%
X162647435Y-110576495D03*
D20*
X167960027Y-112000000D03*
D19*
X173272619Y-113423505D03*
%TD*%
%TO.C,SW23*%
X74795000Y-91650000D03*
D20*
X69295000Y-91650000D03*
D19*
X63795000Y-91650000D03*
%TD*%
%TO.C,SW26*%
X131945000Y-105937500D03*
D20*
X126445000Y-105937500D03*
D19*
X120945000Y-105937500D03*
%TD*%
%TO.C,SW32*%
X112895000Y-122511000D03*
D20*
X107395000Y-122511000D03*
D19*
X101895000Y-122511000D03*
%TD*%
%TO.C,SW18*%
X93845000Y-86887500D03*
D20*
X88345000Y-86887500D03*
D19*
X82845000Y-86887500D03*
%TD*%
%TO.C,SW4*%
X150995000Y-51073500D03*
D20*
X145495000Y-51073500D03*
D19*
X139995000Y-51073500D03*
%TD*%
%TO.C,SW25*%
X93845000Y-105937500D03*
D20*
X88345000Y-105937500D03*
D19*
X82845000Y-105937500D03*
%TD*%
%TO.C,SW24*%
X112895000Y-103461000D03*
D20*
X107395000Y-103461000D03*
D19*
X101895000Y-103461000D03*
%TD*%
%TO.C,SW13*%
X170045000Y-70123500D03*
D20*
X164545000Y-70123500D03*
D19*
X159045000Y-70123500D03*
%TD*%
%TO.C,SW17*%
X112895000Y-84411000D03*
D20*
X107395000Y-84411000D03*
D19*
X101895000Y-84411000D03*
%TD*%
%TO.C,SW12*%
X150995000Y-70123500D03*
D20*
X145495000Y-70123500D03*
D19*
X139995000Y-70123500D03*
%TD*%
%TO.C,SW9*%
X112895000Y-65361000D03*
D20*
X107395000Y-65361000D03*
D19*
X101895000Y-65361000D03*
%TD*%
D16*
%TO.C,J4*%
X81000000Y-35000001D03*
X82999995Y-34999999D03*
D15*
X84999999Y-35000000D03*
D16*
X78999998Y-35000003D03*
%TD*%
D19*
%TO.C,SW19*%
X131945000Y-86887500D03*
D20*
X126445000Y-86887500D03*
D19*
X120945000Y-86887500D03*
%TD*%
%TO.C,SW7*%
X55745000Y-53549999D03*
D20*
X50245000Y-53549999D03*
D19*
X44745000Y-53549999D03*
%TD*%
%TO.C,SW20*%
X150995000Y-89173500D03*
D20*
X145495000Y-89173500D03*
D19*
X139995000Y-89173500D03*
%TD*%
M02*
