M48
; DRILL file {KiCad 8.0.1-rc1} date 2024-04-23T13:15:56-0500
; FORMAT={-:-/ absolute / inch / decimal}
; #@! TF.CreationDate,2024-04-23T13:15:56-05:00
; #@! TF.GenerationSoftware,Kicad,Pcbnew,8.0.1-rc1
; #@! TF.FileFunction,Plated,1,2,PTH
FMAT,2
INCH
; #@! TA.AperFunction,Plated,PTH,ViaDrill
T1C0.0157
; #@! TA.AperFunction,Plated,PTH,ComponentDrill
T2C0.0236
; #@! TA.AperFunction,Plated,PTH,ComponentDrill
T3C0.0276
; #@! TA.AperFunction,Plated,PTH,ComponentDrill
T4C0.0315
; #@! TA.AperFunction,Plated,PTH,ComponentDrill
T5C0.0354
; #@! TA.AperFunction,Plated,PTH,ComponentDrill
T6C0.0394
; #@! TA.AperFunction,Plated,PTH,ComponentDrill
T7C0.0591
; #@! TA.AperFunction,Plated,PTH,ComponentDrill
T8C0.1181
%
G90
G05
T1
X2.2441Y-2.5984
X2.2736Y-4.685
X2.5098Y-2.5394
X2.5098Y-3.3563
X2.5197Y-4.1142
X2.5394Y-4.7933
X2.6378Y-1.3386
X2.7756Y-2.2146
X2.815Y-1.6339
X2.8545Y-4.4474
X2.8554Y-4.244
X2.874Y-1.3386
X2.8758Y-1.6703
X2.9528Y-1.6339
X3.0217Y-1.4961
X3.1004Y-2.3524
X3.1398Y-4.6555
X3.2283Y-3.878
X3.2874Y-4.9803
X3.3169Y-3.1594
X3.3858Y-4.5866
X3.3858Y-4.7244
X3.4547Y-1.6929
X3.5433Y-4.5669
X3.6059Y-2.2638
X3.6122Y-2.5098
X3.6417Y-4.5669
X3.6417Y-4.9803
X3.7008Y-4.5669
X3.75Y-2.7362
X3.8091Y-3.878
X3.8189Y-3.061
X3.9272Y-4.7835
X3.9961Y-4.6161
X4.065Y-5.0984
X4.2077Y-3.0758
X4.2913Y-3.8976
X4.3406Y-4.439
X4.3559Y-2.2441
X4.3602Y-2.5394
X4.4488Y-3.1398
X4.498Y-5.0295
X4.5571Y-3.8976
X4.5669Y-4.9705
X4.7884Y-3.125
X4.9803Y-5.1594
X5.1059Y-2.2933
X5.1083Y-2.7067
X5.1083Y-4.7146
X5.1083Y-4.8622
X5.1821Y-5.1881
X5.1969Y-3.1496
X5.2559Y-3.8976
X5.4823Y-4.685
X5.6988Y-4.9213
X5.7677Y-4.9902
X5.7874Y-3.8386
X5.7874Y-5.0436
X5.7925Y-4.8965
X5.8071Y-3.2579
X5.8071Y-5.1476
X5.8169Y-2.874
X5.8268Y-5.0689
X5.8563Y-2.3917
X5.8563Y-4.3799
X5.876Y-4.8917
X5.876Y-5.0591
X5.8957Y-4.8425
X5.9744Y-4.1535
X5.9843Y-4.498
X5.9941Y-5.3248
X6.0039Y-4.7244
X6.0433Y-4.0551
X6.063Y-4.7975
X6.0728Y-3.5138
X6.0827Y-5.3839
X6.1122Y-3.4941
X6.1122Y-5.2461
X6.122Y-4.1437
X6.122Y-4.9803
X6.122Y-5.0591
X6.1614Y-4.6457
X6.1614Y-5.0197
X6.2008Y-4.9803
X6.2008Y-5.0591
X6.2008Y-5.3248
X6.2008Y-5.5512
X6.2303Y-5.2756
X6.2402Y-4.5472
X6.2402Y-4.7047
X6.2402Y-5.5413
X6.2697Y-4.6161
X6.325Y-3.1531
X6.3583Y-4.8524
X6.3681Y-2.4114
X6.3878Y-5.2461
X6.3976Y-3.9075
X6.4173Y-5.1299
X6.4764Y-4.9016
X6.4766Y-5.1553
X6.4862Y-5.0591
X6.5Y-5.187
X6.5846Y-4.7047
X6.7095Y-5.0768
X6.7126Y-4.311
X6.7323Y-2.4114
X6.7323Y-3.8681
X6.7674Y-3.1538
X6.776Y-5.113
X6.8012Y-4.0551
X6.8602Y-5.1476
X7.0965Y-4.9508
X7.3031Y-4.7441
X7.3327Y-3.8189
X7.5492Y-4.2913
X7.5886Y-4.7146
T3
X1.6929Y-1.6711
X1.9488Y-1.6732
X2.2441Y-1.6732
X2.4606Y-1.6732
X3.5236Y-1.4961
X3.7205Y-1.4961
X3.9173Y-1.3976
X4.4291Y-1.3976
X4.685Y-1.4961
X5.1575Y-1.4764
X5.4331Y-1.5748
X5.9449Y-1.5748
X6.2008Y-1.5748
X6.7126Y-1.5748
X6.9685Y-1.5748
X7.3228Y-5.1575
X7.4213Y-5.3248
X7.5Y-1.5748
T4
X2.6395Y-1.548
X2.7183Y-1.548
X2.797Y-1.548
X2.8757Y-1.548
X3.1102Y-1.378
X3.189Y-1.378
X3.2677Y-1.378
X3.3465Y-1.378
T5
X7.1555Y-4.0656
X7.1555Y-3.9656
X7.4409Y-3.9656
X7.4409Y-4.0656
T6
X6.9744Y-3.4252
X6.9744Y-3.622
X7.5453Y-3.4252
X7.5453Y-3.5236
X7.5453Y-3.622
T8
X1.7813Y-2.2559
X1.7813Y-3.0059
X1.7813Y-3.7559
X1.7813Y-4.5059
X1.7813Y-5.2559
X1.9781Y-2.3425
X1.9781Y-3.0925
X1.9781Y-3.8425
X1.9781Y-4.5925
X1.9781Y-5.3425
X2.5313Y-2.2559
X2.5313Y-3.0059
X2.5313Y-3.7559
X2.5313Y-4.5059
X2.5313Y-5.2559
X2.7281Y-2.3425
X2.7281Y-3.0925
X2.7281Y-3.8425
X2.7281Y-4.5925
X2.7281Y-5.3425
X3.2813Y-2.0684
X3.2813Y-2.8184
X3.2813Y-3.5684
X3.2813Y-4.3184
X3.2813Y-5.2559
X3.4781Y-2.155
X3.4781Y-2.905
X3.4781Y-3.655
X3.4781Y-4.405
X3.4781Y-5.3425
X4.0313Y-1.9709
X4.0313Y-2.7209
X4.0313Y-3.4709
X4.0313Y-4.2209
X4.0313Y-4.9709
X4.2281Y-2.0575
X4.2281Y-2.8075
X4.2281Y-3.5575
X4.2281Y-4.3075
X4.2281Y-5.0575
X4.7813Y-2.0684
X4.7813Y-2.8184
X4.7813Y-3.5684
X4.7813Y-4.3184
X4.9781Y-2.155
X4.9781Y-2.905
X4.9781Y-3.655
X4.9781Y-4.405
X5.3408Y-4.891
X5.5293Y-4.9944
X5.5313Y-2.1584
X5.5313Y-2.9084
X5.5313Y-3.6584
X5.5313Y-4.4084
X5.7281Y-2.245
X5.7281Y-2.995
X5.7281Y-3.745
X5.7281Y-4.495
X6.2813Y-2.1584
X6.2813Y-2.9084
X6.2813Y-3.6584
X6.4781Y-2.245
X6.4781Y-2.995
X6.4781Y-3.745
X6.6732Y-4.1832
X6.8349Y-5.0032
X6.841Y-4.3178
X7.0026Y-5.1378
X7.0313Y-2.1584
X7.0313Y-2.9084
X7.2281Y-2.245
X7.2281Y-2.995
X7.4007Y-4.3784
X7.5684Y-4.513
T2
G00X2.5732Y-1.1665
M15
G01X2.5732Y-1.2098
M16
G05
G00X2.5732Y-1.0118
M15
G01X2.5732Y-1.0354
M16
G05
G00X2.9134Y-1.1665
M15
G01X2.9134Y-1.2098
M16
G05
G00X2.9134Y-1.0118
M15
G01X2.9134Y-1.0354
M16
G05
T7
G00X7.2756Y-3.3031
M15
G01X7.2244Y-3.3031
M16
G05
G00X7.2756Y-3.7441
M15
G01X7.2244Y-3.7441
M16
G05
M30
